<svg width="106" height="65" viewBox="0 0 106 65" fill="none" xmlns="http://www.w3.org/2000/svg">
<g clip-path="url(#clip0_35_536)">
<path d="M4.3774 47.3617C5.91642 45.3579 7.42314 43.3821 8.95188 41.4238C9.23531 41.0598 9.32783 40.753 9.16188 40.2964C8.7551 39.1705 8.3909 38.0285 8.05755 36.8776C7.91216 36.377 7.65223 36.1216 7.14559 35.9777C4.77537 35.304 2.41691 34.5905 0.00117426 33.8771C0.00117426 32.0877 -0.0149796 30.3056 0.0261393 28.5264C0.0305449 28.3503 0.355091 28.0934 0.576839 28.0259C2.75027 27.3594 4.92957 26.7106 7.11769 26.0926C7.61699 25.9517 7.90335 25.7256 8.05167 25.2133C8.37034 24.1109 8.73013 23.0202 9.1193 21.9398C9.31314 21.4025 9.24853 21.0091 8.87992 20.5467C7.35999 18.6339 5.88852 16.6816 4.36859 14.7057C5.4274 13.248 6.46566 11.7992 7.53622 10.3767C7.63167 10.249 7.96797 10.2035 8.15006 10.2578C8.85202 10.4692 9.53489 10.7408 10.228 10.9815C10.8698 11.2047 13.6203 12.1471 14.6219 12.5581C15.1902 12.79 15.597 12.7401 16.0787 12.3585C16.948 11.67 17.8703 11.0476 18.7852 10.4178C19.2448 10.1008 19.4372 9.73084 19.4108 9.14073C19.3139 6.9667 19.2815 4.78973 19.2272 2.61277C19.2199 2.3456 19.2272 2.07843 19.2272 1.75549C20.9997 1.17858 22.7634 0.604614 24.6167 0.00128795C25.3833 1.11252 26.1572 2.22963 26.9282 3.34968C27.5934 4.31705 28.2264 5.30939 28.9357 6.24153C29.1339 6.50283 29.5495 6.72889 29.8741 6.74063C31.1385 6.79054 32.4058 6.7744 33.6702 6.71862C33.9492 6.70687 34.3105 6.49549 34.4735 6.26355C35.9215 4.20549 37.3342 2.12247 38.791 -0.00164795C40.4974 0.551768 42.1951 1.0861 43.8721 1.67328C44.0395 1.732 44.1864 2.12247 44.1835 2.35588C44.1497 4.62973 44.1012 6.90504 44.0072 9.17743C43.9837 9.74112 44.1614 10.0699 44.6196 10.3753C45.5536 11.0006 46.467 11.6627 47.3511 12.357C47.8005 12.7108 48.1808 12.7827 48.7359 12.5728C50.7713 11.8036 52.8302 11.099 54.8802 10.3709C55.1314 10.2813 55.3854 10.2006 55.66 10.1066C56.7967 11.6436 57.9172 13.157 59.0479 14.6852C57.5016 16.7021 55.9993 18.6839 54.4691 20.6436C54.1827 21.0106 54.0975 21.3203 54.2591 21.7724C54.6688 22.9233 55.0344 24.0903 55.3898 25.2588C55.5235 25.6977 55.7261 25.9796 56.2137 26.0603C56.4222 26.0955 61.123 27.4842 63.082 28.0861C63.2259 28.1301 63.3948 28.3899 63.3977 28.5514C63.4242 29.9944 63.4271 31.4374 63.4139 32.8789C63.4066 33.6364 62.5533 34.1883 61.4857 34.4584C59.5869 34.9399 57.7204 35.5476 55.848 36.126C55.6997 36.1715 55.5499 36.377 55.4956 36.54C55.0477 37.8596 54.6012 39.1793 54.2121 40.5166C54.143 40.7544 54.2782 41.1258 54.4426 41.3431C55.9596 43.3512 57.5031 45.3388 59.0494 47.3455C57.9201 48.903 56.8187 50.4223 55.6968 51.9696C53.3383 51.1299 51.0107 50.3167 48.6963 49.4667C48.2072 49.2876 47.8445 49.317 47.426 49.6414C46.4802 50.3768 45.5066 51.0785 44.5183 51.7567C44.1262 52.0253 43.9955 52.3189 44.0131 52.7887C44.0953 55.0376 44.1394 57.2879 44.1952 59.5368C44.2011 59.779 44.1952 60.0213 44.1952 60.3016C42.4741 60.8595 40.7838 61.4231 39.0788 61.9369C38.9261 61.9839 38.6089 61.7681 38.4855 61.592C37.1551 59.6866 35.8363 57.7724 34.544 55.842C34.2811 55.4486 34.0006 55.2974 33.5293 55.3106C32.306 55.3444 31.0812 55.3414 29.8579 55.3106C29.4174 55.3003 29.1471 55.4369 28.899 55.8053C27.6169 57.7136 26.2953 59.5955 25.0176 61.5068C24.746 61.9134 24.5242 62.0588 24.022 61.8782C22.665 61.3908 21.292 60.9446 19.9086 60.5394C19.3741 60.3824 19.1817 60.1622 19.2066 59.5823C19.3021 57.31 19.3227 55.0346 19.4108 52.7608C19.4299 52.2749 19.2566 52.0004 18.8806 51.7406C17.8762 51.0433 16.882 50.3284 15.9098 49.5871C15.5573 49.3184 15.2592 49.2759 14.8407 49.43C12.6599 50.23 10.4645 50.9875 8.2837 51.7861C7.87251 51.9373 7.64048 51.8888 7.38202 51.5189C6.40251 50.1199 5.38628 48.7459 4.37593 47.3514L4.3774 47.3617ZM12.2796 32.2873C12.7936 37.8479 15.0815 42.5101 19.4328 46.0596C23.624 49.477 28.4584 50.917 33.8406 50.346C47.8944 48.8546 55.7981 32.9376 48.2953 20.943C44.0983 14.2345 37.8174 11.1283 29.833 11.7052C29.4379 11.7331 29.363 11.7067 28.5906 11.8462C24.0264 12.6388 20.1773 14.7542 17.1111 18.2405C14.0286 21.7445 12.4587 25.8724 12.262 30.5199C12.2267 31.5548 12.2664 32.1435 12.2796 32.2888V32.2873ZM1.83831 29.5804C4.18796 28.9037 6.43629 28.2446 8.69342 27.6163C9.13839 27.493 9.38951 27.2875 9.53489 26.8339C10.1223 24.996 10.7685 23.1758 11.3382 21.3335C11.4264 21.0502 11.3221 20.6069 11.1415 20.3573C10.1517 18.9921 9.10461 17.6666 8.08692 16.3205C7.6772 15.7773 6.98552 15.218 6.98258 14.6617C6.97817 14.1039 7.70216 13.5592 8.04873 12.975C8.3351 12.4906 8.6479 12.4818 9.13398 12.6623C11.1488 13.4125 13.1724 14.1391 15.2078 14.8276C15.4898 14.923 15.9362 14.8584 16.18 14.6881C17.7866 13.5725 19.3726 12.4245 20.9292 11.2399C21.1848 11.0447 21.4006 10.6175 21.4006 10.2975C21.4036 8.6108 21.3257 6.92413 21.2861 5.23746C21.2699 4.55926 21.0262 3.68143 21.3536 3.25573C21.7149 2.78598 22.6254 2.75662 23.2774 2.48946C23.696 2.31771 23.928 2.41166 24.1776 2.78305C25.3833 4.56514 26.6271 6.3208 27.8284 8.10583C28.1016 8.51245 28.3791 8.69154 28.8902 8.67979C30.6994 8.63869 32.5116 8.61961 34.3208 8.66952C34.9772 8.68713 35.3297 8.44932 35.6733 7.92674C36.9318 6.00813 38.2359 4.12035 39.5385 2.20027C40.3036 2.43808 41.0188 2.6847 41.7457 2.87993C42.1951 3.0003 42.3595 3.20875 42.3434 3.69905C42.2714 5.84959 42.2597 8.0016 42.1965 10.1507C42.1833 10.616 42.3111 10.9111 42.7046 11.1826C43.994 12.0663 45.301 12.9368 46.5111 13.9218C47.3437 14.6 48.0868 14.8173 49.0707 14.2874C49.6361 13.9835 53.5013 12.6286 53.6922 12.3144C52.9653 12.5508 52.2384 12.8179 51.4923 13.0146C51.2662 13.0748 47.7784 14.2874 47.1396 13.8338C45.8825 12.9412 44.6475 12.0194 43.364 11.1665C42.7884 10.7834 42.5842 10.3709 42.6283 9.66625C42.7604 7.5436 42.7898 5.41508 42.8867 3.28949C42.9073 2.84764 42.7737 2.63185 42.3434 2.50707C41.521 2.27073 40.7016 2.01678 39.9071 1.70264C39.4474 1.52208 39.2139 1.63365 38.9511 2.02118C37.7014 3.86199 36.4355 5.69105 35.1388 7.49956C34.9758 7.72709 34.6042 7.92233 34.3252 7.9282C32.5894 7.9605 30.8536 7.95903 29.1192 7.90765C28.8241 7.89884 28.4378 7.66544 28.2631 7.41736C26.9825 5.59857 25.7343 3.75483 24.5022 1.90228C24.2393 1.5074 23.9999 1.41052 23.5447 1.5808C22.7003 1.89934 21.8353 2.17679 20.963 2.41019C20.4784 2.53937 20.3741 2.79186 20.3888 3.24986C20.4637 5.4738 20.5269 7.69774 20.5474 9.92314C20.5504 10.2255 20.3624 10.6336 20.1274 10.8157C18.7896 11.8432 17.4209 12.8311 16.0317 13.7912C15.8041 13.9483 15.3914 14.0099 15.13 13.9218C12.9757 13.1996 10.8404 12.4231 8.69048 11.6876C8.48489 11.6172 8.10013 11.626 8.00027 11.7537C7.25279 12.7108 6.55524 13.7075 5.84594 14.6881C7.37908 16.6654 8.87258 18.5708 10.3308 20.5026C10.5012 20.7287 10.601 21.1368 10.5232 21.3996C10.0283 23.0774 9.4923 24.745 8.92545 26.4009C8.84174 26.6475 8.56125 26.9146 8.31307 27.0012C7.29685 27.3535 6.263 27.6515 5.22621 27.9378C4.98537 28.0039 2.25831 28.8714 1.76048 28.9888C1.37719 29.0799 1.25971 29.281 1.27146 29.6597C1.29789 30.539 1.31111 31.4212 1.2832 32.3005C1.26705 32.7806 1.44915 32.9684 1.91027 33.0947C4.05579 33.6804 6.1837 34.3248 8.32776 34.9149C8.7595 35.0339 8.96951 35.2408 9.10461 35.6621C9.64062 37.3385 10.2324 38.9958 10.7552 40.6752C10.8389 40.9423 10.767 41.3563 10.6025 41.5838C9.59951 42.971 8.54804 44.3216 7.51566 45.6867C7.39964 45.8394 7.30859 46.0097 7.2058 46.1726C8.58034 44.7502 9.80657 43.2279 11.0563 41.7262C11.3397 41.3857 11.3926 41.0847 11.256 40.6649C10.6583 38.83 10.1106 36.9789 9.49671 35.1498C9.4086 34.8856 9.09727 34.5905 8.82853 34.5098C6.85335 33.9226 4.86349 33.3795 2.87509 32.8378C1.81922 32.5501 1.81922 32.5662 1.83684 31.4726C1.84712 30.8649 1.83831 30.2586 1.83831 29.5804ZM39.2624 61.0738C40.0393 60.8037 40.7544 60.5644 41.4637 60.3046C42.057 60.0873 42.8721 60.0036 43.1643 59.5721C43.4507 59.1493 43.2039 58.3639 43.1893 57.7371C43.1834 57.4685 43.179 57.1999 43.1599 56.9312C43.0953 55.9903 43.0263 55.0493 42.9587 54.1069C42.8882 54.1098 42.8177 54.1128 42.7487 54.1157C42.7487 55.6482 42.734 57.1822 42.759 58.7148C42.7663 59.1317 42.6297 59.3122 42.2288 59.4267C41.1333 59.7365 40.051 60.0947 38.9114 60.4499C39.0421 60.6804 39.1332 60.8418 39.2639 61.0723L39.2624 61.0738ZM61.9791 33.262C62.4814 33.3398 62.6326 33.105 62.6135 32.6514C62.5871 32.0172 62.5856 31.3831 62.5827 30.7474C62.5778 29.5085 61.9713 28.7227 60.7632 28.3899C59.5957 28.0714 58.4268 27.7602 57.2578 27.446C58.5413 28.0567 59.8586 28.5602 61.2008 28.9771C61.8176 29.1679 62.0408 29.4366 61.9968 30.1001C61.9263 31.1453 61.9777 32.1978 61.9777 33.262H61.9791ZM54.9287 50.4267L55.0227 50.6822C55.2635 50.6102 55.6072 50.6132 55.7261 50.4517C56.4163 49.5078 57.0742 48.536 57.691 47.5422C57.7953 47.3734 57.741 46.98 57.6073 46.8112C56.876 45.8952 56.0962 45.0174 55.3326 44.1263C55.1769 43.9443 55.0183 43.7637 54.8612 43.5817L54.7231 43.7036C55.569 44.8808 56.4149 46.0581 57.2578 47.231C56.453 48.3349 55.6923 49.3801 54.9302 50.4253L54.9287 50.4267ZM26.7755 56.9254C26.7211 56.8857 26.6653 56.8461 26.611 56.8064C25.9223 57.7195 25.2085 58.615 24.5565 59.5544C24.229 60.0257 23.9485 60.1739 23.3729 59.9361C22.3713 59.5236 21.3228 59.2227 20.2934 58.8748C20.2346 58.9335 20.1759 58.9908 20.1171 59.0495C20.2625 59.2594 20.3639 59.5955 20.5577 59.6616C21.778 60.0726 23.019 60.4235 24.2936 60.8051C25.1351 59.4913 25.9546 58.2098 26.7755 56.9283V56.9254Z" fill="white"/>
<path d="M13.2109 29.9857C13.4048 25.9855 14.8058 22.4492 17.3698 19.3973C20.304 15.9051 24.0854 13.8691 28.5733 13.1204C28.6922 13.1013 28.8141 13.1057 28.8126 13.1057C27.5012 13.6048 26.0342 14.0335 24.6846 14.6999C19.555 17.2307 16.3947 21.3541 15.2023 26.9323C14.7441 29.0755 15.2125 30.9809 17.3537 32.239C17.7619 32.3887 18.4022 32.5883 17.4829 32.3813C18.0424 32.3813 17.6753 32.421 18.1526 32.421C18.6063 35.8589 20.0602 38.7698 22.6448 41.076C23.7947 42.1036 25.084 42.908 26.5746 43.3733C26.4219 43.2735 26.2706 43.1678 26.1135 43.0739C22.3511 40.8235 20.185 37.4927 19.4302 33.2078C19.3465 32.7336 19.3553 32.3461 19.9677 32.2375C20.1953 32.1978 20.4038 32.0261 20.6079 31.894C20.79 31.7751 20.9545 31.6253 21.2467 31.3949C21.2747 31.8235 21.5801 33.519 21.608 33.9579C21.0485 33.4882 22.8416 36.8351 22.3393 36.8351C22.4642 36.907 20.0528 32.7058 20.0851 32.7072C21.3172 32.7909 21.3231 32.7894 21.6712 33.9976C22.915 38.3133 26.6789 41.3931 31.3341 41.5824C36.985 41.8129 41.6843 37.4751 42.1498 31.8441C42.1572 31.756 42.1675 31.6694 42.1895 31.4507C43.5405 33.2181 45.2587 33.7671 47.2956 33.4104C47.2427 38.19 43.5684 43.4306 37.966 46.8876C38.2127 46.7951 38.4682 46.7173 38.7076 46.6072C44.3409 44.0104 47.7626 39.6873 48.77 33.5484C48.9154 32.6603 49.4367 32.1582 50.0491 31.4389C50.0065 33.4236 49.6908 35.2057 49.1033 36.9379C46.504 44.5932 39.3479 49.6429 31.2651 49.436C26.1854 49.3053 21.8797 47.3265 18.3537 43.664C15.5356 40.7369 13.8483 37.2608 13.2917 33.2328" fill="white"/>
<path d="M40.8403 31.0339C40.8697 35.9882 36.8533 40.1704 31.7105 40.1704C26.8012 40.1704 22.6041 36.2788 22.5865 31.0529C22.5689 25.9812 26.6514 21.89 31.7031 21.8959C36.7813 21.9018 40.8301 25.9503 40.8403 31.0324V31.0339ZM26.0419 32.4724C26.3944 33.1095 26.5031 33.7598 26.9216 34.325C28.5047 36.4638 31.151 37.3724 33.6137 36.5108C36.0852 35.6461 37.6316 33.2637 37.4965 30.636C37.4025 28.807 36.141 26.4186 33.6122 25.554C31.1289 24.7055 28.4224 25.5819 26.9583 27.7589C26.6073 28.28 26.5207 29.0771 26.0654 29.3986C25.6263 29.7083 24.8686 29.5659 24.2224 29.6246V32.4724H26.0419Z" fill="white"/>
<path d="M26.0407 32.4725H24.2212V29.6247C24.8659 29.566 25.6236 29.7083 26.0642 29.3986C26.5194 29.0786 26.6061 28.28 26.9571 27.7589C28.4212 25.5834 31.1277 24.7056 33.611 25.5541C36.1398 26.4187 37.4013 28.8056 37.4953 30.6361C37.6304 33.2637 36.084 35.6462 33.6125 36.5108C31.1497 37.3725 28.5049 36.4624 26.9204 34.325C26.5018 33.7614 26.3932 33.1111 26.0407 32.4725Z" fill="#000A2F"/>
<path d="M59.3535 20.1816H4.14844V44.1488H59.3535V20.1816Z" fill="#000A2F" stroke="white" stroke-width="0.3645" stroke-miterlimit="10"/>
<path d="M58.6429 20.8493H4.85938V43.4777H58.6429V20.8493Z" fill="#070A2A" stroke="white" stroke-width="0.3645" stroke-miterlimit="10"/>
<path d="M16.3281 23.1248H21.7279C23.1906 23.1248 24.3096 23.5769 25.0865 24.4827C25.8618 25.3884 26.251 26.7007 26.251 28.4212C26.251 30.1416 25.8633 31.454 25.0865 32.3597C24.3111 33.2654 23.1906 33.7175 21.7279 33.7175H16.3281V23.1263V23.1248ZM17.0051 23.9204V32.9219H21.6237C22.9027 32.9219 23.8749 32.5388 24.5431 31.774C25.2113 31.0092 25.5446 29.8906 25.5446 28.4212C25.5446 26.9518 25.2083 25.8464 24.5387 25.0757C23.8676 24.305 22.8925 23.9204 21.6148 23.9204H17.0066H17.0051ZM17.2239 24.2052H21.6134C22.8278 24.2052 23.7501 24.5649 24.3801 25.2856C25.0101 26.0064 25.3244 27.0516 25.3244 28.4212C25.3244 29.7908 25.0116 30.8359 24.3845 31.5567C23.7574 32.2775 22.8367 32.6371 21.6222 32.6371H17.2239V24.2052ZM17.9009 25.0009V31.8415H21.6222C22.6017 31.8415 23.3448 31.5523 23.85 30.971C24.3551 30.3912 24.6092 29.5412 24.6092 28.4212C24.6092 27.3011 24.3566 26.4512 23.85 25.8713C23.3448 25.2915 22.6017 25.0009 21.6222 25.0009H17.9009Z" fill="white"/>
<path d="M35.2766 30.5509C35.2766 31.2218 35.1047 31.7341 34.7611 32.0893C34.4175 32.4446 33.9049 32.6222 33.225 32.6222H27.2334V31.8119H33.1868C33.6377 31.8119 33.9813 31.6989 34.2177 31.4743C34.4527 31.2497 34.5702 30.9223 34.5702 30.4922C34.5702 30.0621 34.4527 29.7494 34.2177 29.5248C33.9828 29.3002 33.6391 29.1872 33.1868 29.1872H30.1528C29.2115 29.1872 28.489 28.9244 27.9868 28.3989C27.4845 27.8734 27.2334 27.1262 27.2334 26.1559C27.2334 25.1856 27.4845 24.4384 27.9868 23.9129C28.489 23.3873 29.2115 23.1246 30.1528 23.1246H36.1063V23.9349H30.1998C29.4744 23.9349 28.9163 24.1272 28.5257 24.5133C28.1351 24.8979 27.9383 25.4615 27.9383 26.2014C27.9383 26.9412 28.1351 27.5137 28.5301 27.9189C28.9251 28.324 29.4803 28.5266 30.1998 28.5266H33.225C34.5922 28.5266 35.2766 29.2019 35.2766 30.5524V30.5509ZM35.4631 32.9143C34.9638 33.4501 34.2398 33.7173 33.2926 33.7173H27.2334V32.907H33.225C33.9622 32.907 34.5276 32.7015 34.9182 32.2919C35.3089 31.8823 35.5056 31.301 35.5056 30.5509C35.5056 29.8008 35.3103 29.2239 34.9182 28.8187C34.5276 28.4136 33.9622 28.211 33.225 28.211H30.1998C29.5449 28.211 29.0412 28.0393 28.6872 27.6928C28.3348 27.3479 28.1571 26.8502 28.1571 26.1999C28.1571 25.5496 28.3333 25.0579 28.6872 24.7217C29.0397 24.387 29.5449 24.2197 30.1998 24.2197H36.1063V25.03H30.2571C29.3217 25.03 28.8547 25.4395 28.8547 26.2601C28.8547 27.0807 29.3217 27.4902 30.2571 27.4902H33.2911C34.2324 27.4902 34.9549 27.7574 35.4572 28.2932C35.9594 28.829 36.2105 29.6012 36.2105 30.6111C36.2105 31.6211 35.9609 32.3785 35.4616 32.9143H35.4631Z" fill="white"/>
<path d="M41.7164 33.7159C40.2787 33.7159 39.167 33.2564 38.3814 32.336C37.5957 31.4156 37.2036 30.1106 37.2036 28.421C37.2036 26.7314 37.5957 25.4249 38.3814 24.506C39.167 23.5856 40.2787 23.1261 41.7164 23.1261H47.3071V23.9217H41.831C40.5842 23.9217 39.6194 24.3137 38.935 25.099C38.2507 25.8844 37.91 26.9912 37.91 28.4225C37.91 29.8537 38.2507 30.9723 38.9306 31.7532C39.6105 32.5327 40.5754 32.9232 41.8222 32.9232H46.6874V28.3931H41.8222V27.6723H47.3086V33.7188H41.7179L41.7164 33.7159ZM47.3071 24.205V25.0007H41.8207C40.8661 25.0007 40.1304 25.3001 39.612 25.9005C39.0936 26.5009 38.8352 27.3464 38.8352 28.4357C38.8352 29.5249 39.0936 30.3704 39.612 30.9708C40.1304 31.5712 40.8661 31.8707 41.8207 31.8707H45.8371V29.4104H41.8207V28.6896H46.4671V32.6355H41.8207C40.6444 32.6355 39.7339 32.2685 39.0921 31.533C38.4489 30.7976 38.1288 29.7598 38.1288 28.4195C38.1288 27.0793 38.4533 26.0547 39.1024 25.3133C39.7515 24.5735 40.6605 24.2036 41.831 24.2036H47.3071V24.205Z" fill="white"/>
<path d="M9.82324 36.3248C10.1125 36.2763 10.4929 36.2352 10.976 36.2352C11.5693 36.2352 12.004 36.3732 12.2801 36.6213C12.5356 36.8415 12.6869 37.1806 12.6869 37.5946C12.6869 38.0085 12.5621 38.3461 12.3286 38.5883C12.0114 38.926 11.493 39.0992 10.907 39.0992C10.7279 39.0992 10.5619 39.0919 10.4239 39.0581V40.9209H9.82324V36.3262V36.3248ZM10.4239 38.5663C10.5546 38.6016 10.7205 38.6148 10.9202 38.6148C11.6442 38.6148 12.0863 38.2625 12.0863 37.621C12.0863 36.9795 11.6516 36.7108 10.9893 36.7108C10.7264 36.7108 10.5267 36.7314 10.4239 36.7593V38.5663Z" fill="white"/>
<path d="M15.9025 38.7392H14.0948V40.4156H16.1096V40.9191H13.4941V36.2686H16.0068V36.7721H14.0948V38.2415H15.9025V38.7377V38.7392Z" fill="white"/>
<path d="M20.8109 38.8771C20.7772 38.2283 20.7346 37.4488 20.7419 36.8689H20.7214C20.5628 37.4136 20.3689 37.9934 20.1354 38.6349L19.3145 40.8911H18.8593L18.1074 38.676C17.8871 38.0213 17.7006 37.4209 17.5684 36.8689H17.5552C17.542 37.4488 17.5067 38.2283 17.4656 38.9241L17.3408 40.9175H16.7681L17.0926 36.2671H17.8592L18.6522 38.516C18.846 39.0885 19.0046 39.5993 19.1221 40.0823H19.1427C19.2602 39.6125 19.4261 39.1032 19.6332 38.516L20.4614 36.2671H21.228L21.5173 40.9175H20.9299L20.8124 38.8756L20.8109 38.8771Z" fill="white"/>
<path d="M26.415 38.547C26.415 40.1471 25.4413 40.9956 24.2548 40.9956C23.0682 40.9956 22.1636 40.0429 22.1636 38.6366C22.1636 37.1598 23.0814 36.1939 24.3238 36.1939C25.5662 36.1939 26.415 37.1672 26.415 38.547ZM22.8053 38.6234C22.8053 39.6172 23.3443 40.5067 24.2885 40.5067C25.2328 40.5067 25.7791 39.6304 25.7791 38.5749C25.7791 37.6501 25.296 36.6842 24.2959 36.6842C23.2958 36.6842 22.8053 37.6017 22.8053 38.6234Z" fill="white"/>
<path d="M27.795 36.2701V38.2152H30.0448V36.2701H30.6527V40.9206H30.0448V38.7407H27.795V40.9206H27.1943V36.2701H27.795Z" fill="white"/>
<path d="M32.5778 36.7795H31.1636V36.2686H34.6073V36.7795H33.1857V40.9191H32.5792V36.7795H32.5778Z" fill="white"/>
<path d="M37.3402 39.457L36.857 40.9191H36.2358L37.816 36.2686H38.54L40.1275 40.9191H39.4857L38.9893 39.457H37.3402ZM38.866 38.9873L38.4107 37.6485C38.3079 37.3446 38.2389 37.0686 38.1699 36.8H38.1567C38.0877 37.076 38.0113 37.3593 37.9217 37.6411L37.4665 38.9858H38.8675L38.866 38.9873Z" fill="white"/>
<path d="M41.4048 36.2704V38.3329H41.5913L43.1861 36.2704H43.9116L42.1523 38.4018C42.9189 38.5061 43.2155 38.9743 43.4563 39.6026C43.6282 40.0782 43.7603 40.5069 43.9674 40.9208H43.3183C43.1524 40.6038 43.0217 40.1898 42.8968 39.8243C42.6824 39.2107 42.3858 38.7894 41.6001 38.7894H41.4063V40.9208H40.813V36.2704H41.4063H41.4048Z" fill="white"/>
<path d="M47.9132 36.2704V40.9208H47.3126V36.7739H45.1524V40.9208H44.5518V36.2704H47.9132Z" fill="white"/>
<path d="M52.3253 36.2701V40.9206H51.7247V36.7736H49.5645V40.9206H48.9639V36.2701H52.3253Z" fill="white"/>
</g>
<path d="M60.9128 60.0228C61.585 59.3546 62.2431 58.6956 62.9108 58.0425C63.0346 57.9211 63.075 57.8187 63.0026 57.6665C62.8249 57.291 62.6658 56.9101 62.5202 56.5262C62.4567 56.3593 62.3432 56.2741 62.1219 56.2261C61.0866 56.0014 60.0565 55.7635 59.0014 55.5255C59.0014 54.9287 58.9943 54.3344 59.0123 53.741C59.0142 53.6823 59.1559 53.5966 59.2528 53.5741C60.2021 53.3518 61.154 53.1354 62.1097 52.9293C62.3278 52.8823 62.4529 52.8069 62.5176 52.636C62.6568 52.2684 62.814 51.9046 62.984 51.5443C63.0686 51.3651 63.0404 51.2339 62.8794 51.0797C62.2155 50.4417 61.5728 49.7906 60.909 49.1316C61.3714 48.6455 61.8249 48.1622 62.2925 47.6878C62.3342 47.6452 62.4811 47.6301 62.5606 47.6482C62.8672 47.7187 63.1655 47.8093 63.4682 47.8895C63.7485 47.964 64.9499 48.2783 65.3874 48.4154C65.6356 48.4927 65.8133 48.4761 66.0237 48.3488C66.4034 48.1192 66.8062 47.9116 67.2058 47.7015C67.4066 47.5958 67.4906 47.4724 67.4791 47.2756C67.4367 46.5505 67.4226 45.8245 67.3989 45.0984C67.3957 45.0093 67.3989 44.9202 67.3989 44.8125C68.1731 44.6201 68.9434 44.4287 69.7529 44.2275C70.0877 44.5981 70.4257 44.9707 70.7625 45.3442C71.0531 45.6668 71.3295 45.9978 71.6393 46.3087C71.7259 46.3958 71.9074 46.4712 72.0492 46.4751C72.6015 46.4918 73.155 46.4864 73.7073 46.4678C73.8291 46.4639 73.9869 46.3934 74.0581 46.316C74.6906 45.6296 75.3076 44.9349 75.9439 44.2265C76.6892 44.4111 77.4307 44.5893 78.1632 44.7851C78.2364 44.8047 78.3005 44.9349 78.2992 45.0128C78.2845 45.7711 78.2633 46.53 78.2222 47.2879C78.212 47.4758 78.2896 47.5855 78.4897 47.6873C78.8977 47.8959 79.2966 48.1167 79.6828 48.3483C79.879 48.4663 80.0452 48.4903 80.2876 48.4203C81.1766 48.1637 82.0759 47.9287 82.9713 47.6859C83.081 47.656 83.192 47.6291 83.3119 47.5978C83.8084 48.1103 84.2978 48.6151 84.7917 49.1248C84.1163 49.7974 83.4601 50.4584 82.7917 51.112C82.6667 51.2344 82.6295 51.3377 82.7 51.4885C82.879 51.8723 83.0387 52.2615 83.1939 52.6512C83.2523 52.7976 83.3408 52.8916 83.5538 52.9185C83.6448 52.9303 85.698 53.3934 86.5537 53.5941C86.6165 53.6088 86.6903 53.6955 86.6916 53.7493C86.7031 54.2306 86.7044 54.7119 86.6987 55.1926C86.6954 55.4452 86.3228 55.6293 85.8565 55.7194C85.0271 55.88 84.2119 56.0827 83.394 56.2756C83.3293 56.2908 83.2638 56.3593 83.2401 56.4136C83.0445 56.8538 82.8495 57.2939 82.6795 57.7399C82.6493 57.8192 82.7084 57.9431 82.7802 58.0155C83.4428 58.6853 84.1169 59.3482 84.7923 60.0174C84.2991 60.5369 83.818 61.0436 83.328 61.5596C82.2978 61.2796 81.2812 61.0084 80.2703 60.7249C80.0567 60.6652 79.8983 60.6749 79.7155 60.7831C79.3024 61.0284 78.8771 61.2624 78.4455 61.4886C78.2742 61.5782 78.2171 61.6761 78.2248 61.8328C78.2607 62.5828 78.28 63.3334 78.3043 64.0834C78.3069 64.1642 78.3043 64.245 78.3043 64.3385C77.5526 64.5245 76.8143 64.7125 76.0696 64.8839C76.0029 64.8995 75.8644 64.8276 75.8105 64.7688C75.2294 64.1333 74.6534 63.4949 74.0889 62.8511C73.9741 62.7199 73.8516 62.6695 73.6457 62.6739C73.1114 62.6852 72.5764 62.6842 72.0421 62.6739C71.8497 62.6705 71.7317 62.716 71.6233 62.8389C71.0633 63.4754 70.486 64.103 69.928 64.7404C69.8093 64.876 69.7125 64.9245 69.4931 64.8643C68.9004 64.7018 68.3007 64.5529 67.6965 64.4178C67.463 64.3654 67.379 64.292 67.3899 64.0986C67.4316 63.3407 67.4406 62.5819 67.4791 61.8235C67.4874 61.6615 67.4117 61.5699 67.2475 61.4832C66.8088 61.2507 66.3745 61.0123 65.9499 60.765C65.796 60.6754 65.6658 60.6612 65.4829 60.7126C64.5304 60.9795 63.5715 61.2321 62.619 61.4984C62.4394 61.5489 62.338 61.5327 62.2252 61.4093C61.7973 60.9427 61.3535 60.4845 60.9122 60.0194L60.9128 60.0228ZM64.3643 54.9953C64.5888 56.8499 65.5881 58.4048 67.4887 59.5886C69.3193 60.7283 71.4309 61.2086 73.7817 61.0181C79.9201 60.5207 83.3722 55.2122 80.0952 51.2118C78.262 48.9745 75.5186 47.9385 72.0312 48.1309C71.8587 48.1402 71.826 48.1314 71.4886 48.1779C69.495 48.4423 67.8139 49.1478 66.4746 50.3105C65.1282 51.4792 64.4426 52.8559 64.3566 54.4059C64.3412 54.751 64.3585 54.9473 64.3643 54.9958V54.9953ZM59.8038 54.0925C60.8301 53.8668 61.8121 53.647 62.7979 53.4375C62.9923 53.3963 63.102 53.3278 63.1655 53.1765C63.4221 52.5636 63.7043 51.9565 63.9532 51.3421C63.9916 51.2476 63.9461 51.0997 63.8672 51.0165C63.4349 50.5612 62.9775 50.1191 62.533 49.6702C62.3541 49.489 62.052 49.3025 62.0507 49.1169C62.0488 48.9309 62.365 48.7492 62.5164 48.5544C62.6414 48.3928 62.7781 48.3899 62.9904 48.4501C63.8704 48.7003 64.7543 48.9426 65.6433 49.1722C65.7665 49.2041 65.9614 49.1825 66.0679 49.1257C66.7696 48.7537 67.4624 48.3708 68.1423 47.9757C68.2539 47.9106 68.3482 47.7681 68.3482 47.6614C68.3495 47.0989 68.3155 46.5363 68.2982 45.9738C68.2911 45.7476 68.1846 45.4549 68.3277 45.3129C68.4854 45.1562 68.8831 45.1464 69.1679 45.0573C69.3507 45 69.4521 45.0314 69.5611 45.1552C70.0877 45.7496 70.631 46.3351 71.1557 46.9305C71.275 47.0661 71.3962 47.1258 71.6194 47.1219C72.4097 47.1082 73.2012 47.1018 73.9914 47.1185C74.2781 47.1243 74.4321 47.045 74.5822 46.8707C75.1319 46.2308 75.7015 45.6012 76.2704 44.9609C76.6046 45.0402 76.9169 45.1224 77.2345 45.1875C77.4307 45.2277 77.5026 45.2972 77.4955 45.4607C77.4641 46.178 77.459 46.8957 77.4314 47.6124C77.4256 47.7676 77.4814 47.866 77.6533 47.9566C78.2165 48.2513 78.7873 48.5417 79.3159 48.8702C79.6796 49.0964 80.0041 49.1688 80.4339 48.9921C80.6808 48.8907 82.369 48.4389 82.4524 48.3341C82.1349 48.4129 81.8174 48.502 81.4916 48.5676C81.3928 48.5877 79.8694 48.9921 79.5904 48.8408C79.0413 48.5431 78.5019 48.2357 77.9413 47.9512C77.6899 47.8235 77.6007 47.6859 77.6199 47.4509C77.6777 46.7429 77.6905 46.0331 77.7328 45.3241C77.7418 45.1768 77.6835 45.1048 77.4955 45.0632C77.1363 44.9844 76.7784 44.8997 76.4314 44.7949C76.2306 44.7347 76.1286 44.7719 76.0138 44.9011C75.468 45.5151 74.9151 46.1251 74.3487 46.7283C74.2775 46.8041 74.1152 46.8693 73.9933 46.8712C73.2352 46.882 72.477 46.8815 71.7195 46.8644C71.5906 46.8614 71.4219 46.7836 71.3456 46.7008C70.7862 46.0943 70.241 45.4793 69.7029 44.8615C69.5881 44.7298 69.4835 44.6975 69.2847 44.7543C68.9158 44.8605 68.538 44.953 68.157 45.0309C67.9454 45.074 67.8998 45.1582 67.9062 45.3109C67.939 46.0526 67.9665 46.7944 67.9755 47.5366C67.9768 47.6374 67.8947 47.7735 67.7921 47.8342C67.2077 48.1769 66.6099 48.5064 66.0031 48.8266C65.9037 48.879 65.7235 48.8996 65.6093 48.8702C64.6683 48.6293 63.7357 48.3703 62.7967 48.125C62.7069 48.1015 62.5388 48.1045 62.4952 48.1471C62.1687 48.4663 61.864 48.7987 61.5542 49.1257C62.2239 49.7852 62.8762 50.4207 63.5131 51.065C63.5875 51.1404 63.6312 51.2765 63.5972 51.3641C63.381 51.9237 63.1469 52.4799 62.8993 53.0321C62.8627 53.1144 62.7402 53.2035 62.6318 53.2323C62.188 53.3498 61.7364 53.4492 61.2835 53.5447C61.1784 53.5667 59.9872 53.8561 59.7698 53.8952C59.6024 53.9256 59.5511 53.9927 59.5562 54.119C59.5677 54.4122 59.5735 54.7065 59.5613 54.9997C59.5543 55.1598 59.6338 55.2225 59.8352 55.2646C60.7723 55.4599 61.7018 55.6749 62.6382 55.8717C62.8268 55.9113 62.9185 55.9804 62.9775 56.1209C63.2117 56.68 63.4702 57.2327 63.6985 57.7928C63.7351 57.8819 63.7036 58.02 63.6318 58.0958C63.1937 58.5585 62.7344 59.0089 62.2835 59.4642C62.2329 59.5151 62.1931 59.5719 62.1482 59.6263C62.7486 59.1519 63.2841 58.6442 63.83 58.1433C63.9538 58.0297 63.9769 57.9294 63.9172 57.7894C63.6562 57.1774 63.4169 56.56 63.1488 55.95C63.1103 55.8619 62.9743 55.7635 62.857 55.7365C61.9942 55.5407 61.1251 55.3596 60.2566 55.1789C59.7954 55.083 59.7954 55.0883 59.8031 54.7236C59.8076 54.5209 59.8038 54.3187 59.8038 54.0925ZM76.1498 64.596C76.4891 64.5059 76.8015 64.4261 77.1113 64.3395C77.3704 64.267 77.7264 64.2391 77.8541 64.0952C77.9791 63.9542 77.8714 63.6922 77.865 63.4832C77.8624 63.3936 77.8605 63.304 77.8521 63.2144C77.8239 62.9006 77.7938 62.5868 77.7643 62.2725C77.7335 62.2734 77.7027 62.2744 77.6725 62.2754C77.6725 62.7865 77.6661 63.2981 77.677 63.8092C77.6802 63.9483 77.6206 64.0085 77.4455 64.0467C76.967 64.15 76.4943 64.2695 75.9965 64.3879C76.0536 64.4648 76.0934 64.5186 76.1504 64.5955L76.1498 64.596ZM86.072 55.3204C86.2913 55.3463 86.3574 55.268 86.3491 55.1167C86.3375 54.9052 86.3369 54.6937 86.3356 54.4818C86.3335 54.0685 86.0686 53.8065 85.5409 53.6955C85.0309 53.5892 84.5204 53.4855 84.0098 53.3807C84.5704 53.5843 85.1458 53.7523 85.732 53.8913C86.0014 53.955 86.0989 54.0446 86.0797 54.2658C86.0489 54.6144 86.0713 54.9655 86.0713 55.3204H86.072ZM82.9925 61.0451L83.0336 61.1303C83.1388 61.1063 83.2888 61.1072 83.3408 61.0534C83.6423 60.7386 83.9296 60.4145 84.199 60.083C84.2446 60.0267 84.2208 59.8955 84.1625 59.8392C83.843 59.5337 83.5024 59.241 83.1689 58.9438C83.1009 58.8831 83.0316 58.8229 82.963 58.7622L82.9027 58.8028C83.2722 59.1954 83.6416 59.5881 84.0098 59.9793C83.6583 60.3474 83.326 60.696 82.9931 61.0446L82.9925 61.0451ZM70.6958 63.2124C70.6721 63.1992 70.6477 63.186 70.624 63.1728C70.3231 63.4773 70.0114 63.776 69.7266 64.0893C69.5836 64.2464 69.4611 64.2959 69.2096 64.2166C68.7722 64.079 68.3142 63.9786 67.8645 63.8626C67.8389 63.8822 67.8132 63.9013 67.7876 63.9209C67.8511 63.9909 67.8953 64.103 67.98 64.125C68.513 64.2621 69.055 64.3791 69.6118 64.5064C69.9793 64.0682 70.3372 63.6408 70.6958 63.2134V63.2124Z" fill="white"/>
<path d="M64.771 54.2276C64.8557 52.8935 65.4676 51.7141 66.5875 50.6963C67.8691 49.5316 69.5207 48.8525 71.4809 48.6029C71.5329 48.5965 71.5861 48.598 71.5855 48.598C71.0127 48.7644 70.3719 48.9074 69.7824 49.1296C67.5419 49.9737 66.1616 51.3489 65.6408 53.2093C65.4406 53.9241 65.6453 54.5596 66.5805 54.9792C66.7588 55.0291 67.0384 55.0957 66.6369 55.0266C66.8813 55.0266 66.7209 55.0399 66.9294 55.0399C67.1276 56.1865 67.7626 57.1573 68.8915 57.9264C69.3937 58.2691 69.9569 58.5374 70.6079 58.6926C70.5412 58.6593 70.4752 58.6241 70.4065 58.5927C68.7632 57.8422 67.8171 56.7314 67.4874 55.3023C67.4509 55.1441 67.4547 55.0149 67.7222 54.9787C67.8216 54.9654 67.9127 54.9082 68.0018 54.8641C68.0814 54.8244 68.1532 54.7745 68.2809 54.6976C68.293 54.8406 68.4265 55.4061 68.4387 55.5525C68.1943 55.3958 68.9774 56.512 68.7581 56.512C68.8126 56.536 67.7594 55.1348 67.7735 55.1353C68.3117 55.1632 68.3142 55.1627 68.4662 55.5657C69.0095 57.005 70.6535 58.0322 72.6868 58.0953C75.155 58.1722 77.2075 56.7255 77.4109 54.8475C77.4141 54.8181 77.4186 54.7892 77.4282 54.7162C78.0183 55.3057 78.7688 55.4888 79.6584 55.3698C79.6353 56.9639 78.0305 58.7117 75.5835 59.8647C75.6912 59.8338 75.8028 59.8079 75.9074 59.7712C78.3679 58.9051 79.8624 57.4633 80.3024 55.4159C80.3659 55.1197 80.5936 54.9522 80.8611 54.7123C80.8425 55.3742 80.7046 55.9686 80.448 56.5463C79.3127 59.0995 76.187 60.7836 72.6566 60.7146C70.438 60.671 68.5573 60.0111 67.0173 58.7896C65.7864 57.8133 65.0494 56.654 64.8063 55.3106" fill="white"/>
<path d="M76.8386 54.5771C76.8515 56.2295 75.0972 57.6243 72.8509 57.6243C70.7066 57.6243 68.8734 56.3264 68.8657 54.5835C68.8581 52.892 70.6412 51.5275 72.8477 51.5295C75.0657 51.5314 76.8341 52.8817 76.8386 54.5766V54.5771ZM70.375 55.0569C70.529 55.2694 70.5764 55.4863 70.7592 55.6748C71.4507 56.3881 72.6065 56.6911 73.6822 56.4037C74.7617 56.1154 75.4371 55.3208 75.3781 54.4444C75.3371 53.8344 74.7861 53.0379 73.6816 52.7495C72.5969 52.4665 71.4148 52.7588 70.7753 53.4849C70.622 53.6587 70.5841 53.9245 70.3853 54.0317C70.1935 54.135 69.8625 54.0875 69.5803 54.1071V55.0569H70.375Z" fill="white"/>
<path d="M70.3743 55.057H69.5796V54.1072C69.8612 54.0877 70.1921 54.1351 70.3846 54.0318C70.5834 53.9251 70.6213 53.6588 70.7746 53.485C71.4141 52.7594 72.5962 52.4667 73.6808 52.7496C74.7854 53.038 75.3364 53.8341 75.3774 54.4446C75.4364 55.3209 74.761 56.1155 73.6815 56.4039C72.6058 56.6912 71.4506 56.3877 70.7585 55.6749C70.5757 55.4869 70.5283 55.27 70.3743 55.057Z" fill="#000A2F"/>
<path d="M70.6175 39.5597C71.5374 38.6476 72.4379 37.7482 73.3517 36.8568C73.5211 36.6911 73.5764 36.5514 73.4772 36.3436C73.2341 35.8311 73.0164 35.3112 72.8171 34.7873C72.7302 34.5595 72.5749 34.4432 72.2721 34.3777C70.8554 34.071 69.4457 33.7463 68.0019 33.4215C68.0019 32.607 67.9922 31.7958 68.0168 30.9859C68.0194 30.9057 68.2134 30.7888 68.3459 30.7581C69.645 30.4547 70.9476 30.1593 72.2554 29.878C72.5538 29.8139 72.725 29.711 72.8136 29.4778C73.0041 28.976 73.2191 28.4795 73.4517 27.9877C73.5676 27.7431 73.529 27.564 73.3087 27.3535C72.4002 26.4829 71.5207 25.5942 70.6123 24.6948C71.2451 24.0312 71.8657 23.3717 72.5055 22.7242C72.5626 22.6661 72.7636 22.6454 72.8724 22.6701C73.292 22.7663 73.7001 22.8899 74.1144 22.9995C74.498 23.1011 76.142 23.5301 76.7406 23.7172C77.0803 23.8227 77.3234 23.8 77.6113 23.6263C78.1309 23.3129 78.6822 23.0296 79.229 22.7429C79.5037 22.5986 79.6187 22.4302 79.6029 22.1616C79.545 21.172 79.5257 20.181 79.4932 19.1901C79.4888 19.0685 79.4932 18.9468 79.4932 18.7998C80.5526 18.5372 81.6068 18.276 82.7145 18.0013C83.1727 18.5072 83.6352 19.0157 84.096 19.5255C84.4937 19.9659 84.872 20.4176 85.2959 20.8419C85.4144 20.9608 85.6628 21.0637 85.8568 21.0691C86.6125 21.0918 87.37 21.0844 88.1257 21.059C88.2925 21.0537 88.5084 20.9575 88.6059 20.8519C89.4713 19.9151 90.3157 18.9669 91.1864 18C92.2063 18.2519 93.221 18.4951 94.2234 18.7624C94.3234 18.7892 94.4112 18.9669 94.4095 19.0731C94.3893 20.1082 94.3603 21.1439 94.3041 22.1783C94.2901 22.4349 94.3963 22.5846 94.6701 22.7235C95.2284 23.0082 95.7743 23.3096 96.3027 23.6256C96.5713 23.7867 96.7987 23.8194 97.1304 23.7239C98.347 23.3737 99.5776 23.053 100.803 22.7215C100.953 22.6808 101.105 22.644 101.269 22.6013C101.948 23.3009 102.618 23.9898 103.294 24.6854C102.37 25.6035 101.472 26.5056 100.557 27.3976C100.386 27.5647 100.335 27.7057 100.432 27.9115C100.676 28.4354 100.895 28.9666 101.107 29.4985C101.187 29.6983 101.308 29.8266 101.6 29.8633C101.725 29.8794 104.534 30.5115 105.705 30.7855C105.791 30.8055 105.892 30.9238 105.894 30.9973C105.91 31.6541 105.911 32.311 105.903 32.9671C105.899 33.3119 105.389 33.5632 104.751 33.6861C103.616 33.9053 102.5 34.1819 101.381 34.4452C101.293 34.4659 101.203 34.5595 101.171 34.6337C100.903 35.2344 100.636 35.8351 100.404 36.4438C100.362 36.5521 100.443 36.7211 100.541 36.82C101.448 37.7341 102.371 38.6389 103.295 39.5523C102.62 40.2613 101.961 40.9529 101.291 41.6572C99.8813 41.275 98.49 40.9048 97.1067 40.5179C96.8145 40.4364 96.5977 40.4497 96.3475 40.5974C95.7822 40.9322 95.2003 41.2516 94.6096 41.5603C94.3752 41.6826 94.2971 41.8162 94.3076 42.03C94.3568 43.0537 94.3831 44.0781 94.4165 45.1018C94.42 45.212 94.4165 45.3223 94.4165 45.4499C93.3878 45.7038 92.3775 45.9604 91.3584 46.1943C91.2672 46.2157 91.0776 46.1174 91.0038 46.0373C90.2086 45.1699 89.4204 44.2986 88.648 43.4199C88.4909 43.2408 88.3232 43.172 88.0415 43.178C87.3103 43.1934 86.5783 43.192 85.8471 43.178C85.5838 43.1733 85.4223 43.2355 85.274 43.4032C84.5077 44.2719 83.7177 45.1285 82.9541 45.9985C82.7917 46.1836 82.6592 46.2497 82.359 46.1676C81.548 45.9457 80.7273 45.7426 79.9005 45.5582C79.581 45.4867 79.466 45.3864 79.4809 45.1225C79.538 44.0881 79.5502 43.0524 79.6029 42.0173C79.6143 41.7962 79.5108 41.6712 79.2861 41.5529C78.6857 41.2355 78.0915 40.9101 77.5104 40.5727C77.2997 40.4504 77.1216 40.431 76.8714 40.5012C75.568 40.8653 74.2557 41.2101 72.9523 41.5736C72.7065 41.6425 72.5679 41.6204 72.4134 41.452C71.8279 40.8152 71.2205 40.1898 70.6166 39.555L70.6175 39.5597ZM75.3406 32.6979C75.6478 35.229 77.0153 37.3512 79.6161 38.967C82.1211 40.5226 85.0106 41.1781 88.2276 40.9181C96.6275 40.2392 101.351 32.9939 96.8671 27.534C94.3585 24.4803 90.6045 23.0663 85.8322 23.3289C85.5961 23.3416 85.5513 23.3296 85.0896 23.3931C82.3616 23.7539 80.0611 24.7168 78.2284 26.3038C76.386 27.8988 75.4477 29.7778 75.3301 31.8933C75.309 32.3644 75.3327 32.6324 75.3406 32.6985V32.6979ZM69.0999 31.4657C70.5043 31.1576 71.8481 30.8576 73.1972 30.5716C73.4631 30.5155 73.6132 30.422 73.7001 30.2155C74.0512 29.3789 74.4374 28.5503 74.778 27.7117C74.8307 27.5827 74.7683 27.3809 74.6604 27.2673C74.0688 26.6459 73.443 26.0425 72.8347 25.4298C72.5898 25.1825 72.1764 24.928 72.1746 24.6747C72.172 24.4208 72.6047 24.1729 72.8119 23.9069C72.983 23.6864 73.17 23.6824 73.4605 23.7646C74.6648 24.1061 75.8743 24.4368 77.0908 24.7502C77.2594 24.7937 77.5262 24.7642 77.6719 24.6867C78.6321 24.1789 79.5801 23.6564 80.5105 23.1171C80.6632 23.0283 80.7922 22.8338 80.7922 22.6881C80.794 21.9204 80.7475 21.1526 80.7238 20.3848C80.7141 20.0761 80.5684 19.6765 80.7642 19.4827C80.9801 19.2689 81.5243 19.2556 81.914 19.1339C82.1641 19.0558 82.3028 19.0985 82.452 19.2676C83.1727 20.0788 83.9161 20.878 84.6341 21.6905C84.7974 21.8756 84.9633 21.9571 85.2687 21.9518C86.3501 21.9331 87.4332 21.9244 88.5146 21.9471C88.9069 21.9551 89.1176 21.8469 89.323 21.609C90.0752 20.7356 90.8546 19.8763 91.6332 19.0023C92.0905 19.1106 92.5179 19.2228 92.9524 19.3117C93.221 19.3665 93.3193 19.4614 93.3096 19.6845C93.2666 20.6635 93.2596 21.6431 93.2219 22.6213C93.214 22.8331 93.2903 22.9674 93.5256 23.0911C94.2962 23.4933 95.0774 23.8896 95.8007 24.3379C96.2983 24.6466 96.7425 24.7455 97.3306 24.5043C97.6685 24.366 99.9787 23.7492 100.093 23.6062C99.6583 23.7138 99.2238 23.8354 98.7779 23.925C98.6428 23.9524 96.5582 24.5043 96.1763 24.2978C95.425 23.8916 94.6868 23.4719 93.9197 23.0837C93.5756 22.9093 93.4536 22.7215 93.4799 22.4008C93.5589 21.4346 93.5765 20.4657 93.6344 19.4981C93.6467 19.297 93.5668 19.1988 93.3096 19.142C92.8181 19.0344 92.3283 18.9188 91.8535 18.7758C91.5788 18.6936 91.4392 18.7444 91.2821 18.9208C90.5351 19.7587 89.7785 20.5913 89.0035 21.4145C88.906 21.5181 88.684 21.607 88.5172 21.6096C87.4797 21.6243 86.4422 21.6237 85.4056 21.6003C85.2292 21.5963 84.9984 21.49 84.8939 21.3771C84.1285 20.5492 83.3824 19.7099 82.646 18.8667C82.4889 18.6869 82.3458 18.6428 82.0737 18.7203C81.569 18.8653 81.0521 18.9916 80.5307 19.0979C80.241 19.1567 80.1787 19.2716 80.1875 19.4801C80.2323 20.4924 80.27 21.5047 80.2823 22.5177C80.284 22.6554 80.1717 22.8412 80.0312 22.924C79.2316 23.3918 78.4136 23.8415 77.5832 24.2785C77.4472 24.35 77.2005 24.378 77.0443 24.3379C75.7567 24.0092 74.4804 23.6557 73.1954 23.3209C73.0726 23.2889 72.8426 23.2929 72.7829 23.351C72.3361 23.7867 71.9192 24.2404 71.4953 24.6867C72.4116 25.5868 73.3043 26.4541 74.1759 27.3335C74.2777 27.4364 74.3374 27.6222 74.2909 27.7418C73.9951 28.5055 73.6747 29.2646 73.3359 30.0184C73.2858 30.1306 73.1182 30.2522 72.9699 30.2917C72.3625 30.452 71.7445 30.5877 71.1249 30.718C70.9809 30.748 69.351 31.1429 69.0534 31.1964C68.8243 31.2378 68.7541 31.3294 68.7611 31.5018C68.7769 31.902 68.7848 32.3036 68.7681 32.7039C68.7585 32.9224 68.8673 33.0079 69.1429 33.0654C70.4253 33.332 71.6971 33.6253 72.9786 33.8939C73.2367 33.9481 73.3622 34.0423 73.443 34.2341C73.7633 34.9972 74.1171 35.7516 74.4295 36.516C74.4796 36.6376 74.4366 36.826 74.3382 36.9296C73.7388 37.5611 73.1103 38.1758 72.4932 38.7972C72.4239 38.8667 72.3695 38.9443 72.308 39.0184C73.1296 38.3709 73.8625 37.678 74.6095 36.9944C74.7789 36.8394 74.8105 36.7024 74.7288 36.5113C74.3716 35.6761 74.0442 34.8334 73.6773 34.0009C73.6247 33.8806 73.4386 33.7463 73.2779 33.7095C72.0974 33.4422 70.9081 33.195 69.7196 32.9484C69.0885 32.8175 69.0885 32.8248 69.099 32.327C69.1052 32.0504 69.0999 31.7744 69.0999 31.4657ZM91.4682 45.8014C91.9325 45.6784 92.3599 45.5695 92.7839 45.4512C93.1385 45.3523 93.6256 45.3143 93.8003 45.1178C93.9715 44.9254 93.824 44.5679 93.8152 44.2826C93.8117 44.1603 93.8091 44.038 93.7977 43.9157C93.759 43.4874 93.7178 43.0591 93.6774 42.6301C93.6353 42.6314 93.5932 42.6327 93.5519 42.6341C93.5519 43.3317 93.5431 44.03 93.558 44.7276C93.5624 44.9173 93.4808 44.9995 93.2412 45.0517C92.5864 45.1926 91.9395 45.3557 91.2584 45.5174C91.3365 45.6223 91.3909 45.6958 91.469 45.8007L91.4682 45.8014ZM105.046 33.1415C105.346 33.177 105.436 33.0701 105.425 32.8636C105.409 32.5749 105.408 32.2862 105.407 31.9969C105.404 31.4329 105.041 31.0752 104.319 30.9238C103.621 30.7788 102.923 30.6371 102.224 30.4941C102.991 30.7721 103.778 31.0013 104.581 31.1911C104.949 31.2779 105.083 31.4002 105.056 31.7022C105.014 32.178 105.045 32.6571 105.045 33.1415H105.046ZM100.832 40.9549L100.888 41.0712C101.032 41.0384 101.237 41.0397 101.308 40.9662C101.721 40.5366 102.114 40.0942 102.483 39.6419C102.545 39.565 102.513 39.3859 102.433 39.3091C101.996 38.8921 101.53 38.4925 101.073 38.0869C100.98 38.0041 100.885 37.9219 100.791 37.839L100.709 37.8945C101.215 38.4304 101.72 38.9663 102.224 39.5002C101.743 40.0027 101.288 40.4785 100.833 40.9542L100.832 40.9549ZM84.0048 43.913C83.9723 43.895 83.9389 43.8769 83.9065 43.8589C83.4948 44.2745 83.0682 44.6821 82.6785 45.1098C82.4828 45.3243 82.3151 45.3918 81.971 45.2835C81.3724 45.0958 80.7457 44.9588 80.1304 44.8004C80.0953 44.8271 80.0602 44.8532 80.0251 44.8799C80.112 44.9755 80.1726 45.1285 80.2884 45.1586C81.0178 45.3457 81.7595 45.5054 82.5214 45.6791C83.0243 45.0811 83.5141 44.4977 84.0048 43.9144V43.913Z" fill="white"/>
<path d="M75.897 31.6501C76.0128 29.8293 76.8502 28.2196 78.3827 26.8304C80.1364 25.2407 82.3966 24.3139 85.079 23.9731C85.1501 23.9644 85.2229 23.9664 85.222 23.9664C84.4382 24.1936 83.5614 24.3888 82.7547 24.6921C79.6888 25.8441 77.7999 27.7211 77.0872 30.2603C76.8133 31.2359 77.0933 32.1032 78.3731 32.6758C78.6171 32.744 78.9998 32.8349 78.4503 32.7407C78.7847 32.7407 78.5653 32.7587 78.8506 32.7587C79.1218 34.3236 79.9907 35.6487 81.5356 36.6984C82.2228 37.1662 82.9935 37.5324 83.8844 37.7442C83.7931 37.6987 83.7027 37.6506 83.6088 37.6079C81.36 36.5835 80.0653 35.0674 79.6142 33.1169C79.5642 32.901 79.5694 32.7246 79.9354 32.6752C80.0715 32.6571 80.1961 32.579 80.3181 32.5188C80.427 32.4647 80.5253 32.3965 80.6999 32.2916C80.7166 32.4867 80.8992 33.2585 80.9159 33.4583C80.5815 33.2445 81.6532 34.768 81.353 34.768C81.4276 34.8007 79.9863 32.8883 80.0057 32.889C80.7421 32.9271 80.7456 32.9264 80.9536 33.4764C81.6971 35.4409 83.9467 36.8428 86.7291 36.929C90.1066 37.0339 92.9154 35.0593 93.1936 32.4961C93.198 32.456 93.2042 32.4166 93.2174 32.317C94.0249 33.1215 95.0518 33.3714 96.2692 33.2091C96.2376 35.3848 94.0415 37.7702 90.693 39.3439C90.8404 39.3018 90.9932 39.2664 91.1362 39.2162C94.5032 38.0342 96.5484 36.0663 97.1505 33.2719C97.2374 32.8676 97.549 32.6391 97.915 32.3117C97.8895 33.2151 97.7008 34.0263 97.3497 34.8148C95.7961 38.2995 91.5189 40.5981 86.6879 40.5039C83.6518 40.4444 81.0783 39.5437 78.9708 37.8765C77.2864 36.5441 76.2779 34.9618 75.9452 33.1282" fill="white"/>
<path d="M92.4113 32.1273C92.4288 34.3825 90.0282 36.2862 86.9544 36.2862C84.0201 36.2862 81.5115 34.5148 81.501 32.136C81.4905 29.8273 83.9306 27.965 86.95 27.9677C89.9852 27.9704 92.4051 29.8133 92.4113 32.1266V32.1273ZM83.5663 32.7821C83.777 33.0721 83.8419 33.3682 84.0921 33.6254C85.0383 34.599 86.62 35.0126 88.0919 34.6204C89.5692 34.2268 90.4934 33.1423 90.4127 31.9462C90.3565 31.1136 89.6025 30.0265 88.0911 29.6329C86.6068 29.2467 84.9891 29.6456 84.114 30.6365C83.9043 30.8737 83.8525 31.2366 83.5804 31.3829C83.3179 31.5239 82.865 31.4591 82.4788 31.4858V32.7821H83.5663Z" fill="white"/>
<path d="M83.5651 32.782H82.4775V31.4857C82.8629 31.459 83.3158 31.5238 83.5791 31.3828C83.8512 31.2371 83.903 30.8736 84.1128 30.6364C84.9879 29.6461 86.6055 29.2466 88.0898 29.6328C89.6012 30.0263 90.3552 31.1128 90.4114 31.9461C90.4922 33.1422 89.5679 34.2267 88.0907 34.6203C86.6187 35.0125 85.0379 34.5982 84.0908 33.6253C83.8407 33.3687 83.7757 33.0727 83.5651 32.782Z" fill="#000A2F"/>
<defs>
<clipPath id="clip0_35_536">
<rect width="63.423" height="61.965" fill="white"/>
</clipPath>
</defs>
</svg>
