<svg width="101" height="31" viewBox="0 0 101 31" fill="none" xmlns="http://www.w3.org/2000/svg">
<line y1="30.5" x2="98" y2="30.5" stroke="#FF0000"/>
<path d="M2.11364 23V5.54545H4.22727V13.3182H13.5341V5.54545H15.6477V23H13.5341V15.1932H4.22727V23H2.11364ZM23.4588 23.3068C22.6293 23.3068 21.8764 23.1506 21.2003 22.8381C20.5241 22.5199 19.9872 22.0625 19.5895 21.4659C19.1918 20.8636 18.9929 20.1364 18.9929 19.2841C18.9929 18.5341 19.1406 17.9261 19.4361 17.4602C19.7315 16.9886 20.1264 16.6193 20.6207 16.3523C21.1151 16.0852 21.6605 15.8864 22.2571 15.7557C22.8594 15.6193 23.4645 15.5114 24.0724 15.4318C24.8679 15.3295 25.5128 15.2528 26.0071 15.2017C26.5071 15.1449 26.8707 15.0511 27.098 14.9205C27.331 14.7898 27.4474 14.5625 27.4474 14.2386V14.1705C27.4474 13.3295 27.2173 12.6761 26.7571 12.2102C26.3026 11.7443 25.6122 11.5114 24.6861 11.5114C23.7259 11.5114 22.973 11.7216 22.4276 12.142C21.8821 12.5625 21.4986 13.0114 21.277 13.4886L19.3679 12.8068C19.7088 12.0114 20.1634 11.392 20.7315 10.9489C21.3054 10.5 21.9304 10.1875 22.6065 10.0114C23.2884 9.82955 23.9588 9.73864 24.6179 9.73864C25.0384 9.73864 25.5213 9.78977 26.0668 9.89204C26.6179 9.98864 27.1491 10.1903 27.6605 10.4972C28.1776 10.804 28.6065 11.267 28.9474 11.8864C29.2884 12.5057 29.4588 13.3352 29.4588 14.375V23H27.4474V21.2273H27.3452C27.2088 21.5114 26.9815 21.8153 26.6634 22.1392C26.3452 22.4631 25.9219 22.7386 25.3935 22.9659C24.8651 23.1932 24.2202 23.3068 23.4588 23.3068ZM23.7656 21.5C24.5611 21.5 25.2315 21.3438 25.777 21.0312C26.3281 20.7188 26.7429 20.3153 27.0213 19.821C27.3054 19.3267 27.4474 18.8068 27.4474 18.2614V16.4205C27.3622 16.5227 27.1747 16.6165 26.8849 16.7017C26.6009 16.7812 26.2713 16.8523 25.8963 16.9148C25.527 16.9716 25.1662 17.0227 24.8139 17.0682C24.4673 17.108 24.1861 17.142 23.9702 17.1705C23.4474 17.2386 22.9588 17.3494 22.5043 17.5028C22.0554 17.6506 21.6918 17.875 21.4134 18.1761C21.1406 18.4716 21.0043 18.875 21.0043 19.3864C21.0043 20.0852 21.2628 20.6136 21.7798 20.9716C22.3026 21.3239 22.9645 21.5 23.7656 21.5ZM33.13 23V9.90909H38.4822C39.8913 9.90909 41.0107 10.2273 41.8402 10.8636C42.6697 11.5 43.0845 12.3409 43.0845 13.3864C43.0845 14.1818 42.8487 14.7983 42.3771 15.2358C41.9055 15.6676 41.3004 15.9602 40.5618 16.1136C41.0447 16.1818 41.5135 16.3523 41.968 16.625C42.4283 16.8977 42.8089 17.2727 43.1101 17.75C43.4112 18.2216 43.5618 18.8011 43.5618 19.4886C43.5618 20.1591 43.3913 20.7585 43.0504 21.2869C42.7095 21.8153 42.2209 22.233 41.5845 22.5398C40.9482 22.8466 40.1868 23 39.3004 23H33.13ZM35.0391 21.1591H39.3004C39.9936 21.1591 40.5362 20.9943 40.9283 20.6648C41.3203 20.3352 41.5163 19.8864 41.5163 19.3182C41.5163 18.642 41.3203 18.1108 40.9283 17.7244C40.5362 17.3324 39.9936 17.1364 39.3004 17.1364H35.0391V21.1591ZM35.0391 15.3977H38.4822C39.022 15.3977 39.4851 15.3239 39.8714 15.1761C40.2578 15.0227 40.5533 14.8068 40.7578 14.5284C40.968 14.2443 41.0732 13.9091 41.0732 13.5227C41.0732 12.9716 40.843 12.5398 40.3828 12.2273C39.9226 11.9091 39.2891 11.75 38.4822 11.75H35.0391V15.3977ZM52.0952 23.2727C50.8338 23.2727 49.7457 22.9943 48.831 22.4375C47.9219 21.875 47.2202 21.0909 46.7259 20.0852C46.2372 19.0739 45.9929 17.8977 45.9929 16.5568C45.9929 15.2159 46.2372 14.0341 46.7259 13.0114C47.2202 11.983 47.9077 11.1818 48.7884 10.608C49.6747 10.0284 50.7088 9.73864 51.8906 9.73864C52.5724 9.73864 53.2457 9.85227 53.9105 10.0795C54.5753 10.3068 55.1804 10.6761 55.7259 11.1875C56.2713 11.6932 56.706 12.3636 57.0298 13.1989C57.3537 14.0341 57.5156 15.0625 57.5156 16.2841V17.1364H47.4247V15.3977H55.4702C55.4702 14.6591 55.3224 14 55.027 13.4205C54.7372 12.8409 54.3224 12.3835 53.7827 12.0483C53.2486 11.7131 52.6179 11.5455 51.8906 11.5455C51.0895 11.5455 50.3963 11.7443 49.8111 12.142C49.2315 12.5341 48.7855 13.0455 48.473 13.6761C48.1605 14.3068 48.0043 14.983 48.0043 15.7045V16.8636C48.0043 17.8523 48.1747 18.6903 48.5156 19.3778C48.8622 20.0597 49.3423 20.5795 49.956 20.9375C50.5696 21.2898 51.2827 21.4659 52.0952 21.4659C52.6236 21.4659 53.1009 21.392 53.527 21.2443C53.9588 21.0909 54.331 20.8636 54.6435 20.5625C54.956 20.2557 55.1974 19.875 55.3679 19.4205L57.3111 19.9659C57.1065 20.625 56.7628 21.2045 56.2798 21.7045C55.7969 22.1989 55.2003 22.5852 54.4901 22.8636C53.7798 23.1364 52.9815 23.2727 52.0952 23.2727ZM60.5753 27.9091V9.90909H62.5185V11.9886H62.7571C62.9048 11.7614 63.1094 11.4716 63.3707 11.1193C63.6378 10.7614 64.0185 10.4432 64.5128 10.1648C65.0128 9.88068 65.6889 9.73864 66.5412 9.73864C67.6435 9.73864 68.6151 10.0142 69.456 10.5653C70.2969 11.1165 70.9531 11.8977 71.4247 12.9091C71.8963 13.9205 72.1321 15.1136 72.1321 16.4886C72.1321 17.875 71.8963 19.0767 71.4247 20.0938C70.9531 21.1051 70.2997 21.8892 69.4645 22.446C68.6293 22.9972 67.6662 23.2727 66.5753 23.2727C65.7344 23.2727 65.0611 23.1335 64.5554 22.8551C64.0497 22.571 63.6605 22.25 63.3878 21.892C63.1151 21.5284 62.9048 21.2273 62.7571 20.9886H62.5866V27.9091H60.5753ZM62.5526 16.4545C62.5526 17.4432 62.6974 18.3153 62.9872 19.071C63.277 19.821 63.7003 20.4091 64.2571 20.8352C64.8139 21.2557 65.4957 21.4659 66.3026 21.4659C67.1435 21.4659 67.8452 21.2443 68.4077 20.8011C68.9759 20.3523 69.402 19.75 69.6861 18.9943C69.9759 18.233 70.1207 17.3864 70.1207 16.4545C70.1207 15.5341 69.9787 14.7045 69.6946 13.9659C69.4162 13.2216 68.9929 12.6335 68.4247 12.2017C67.8622 11.7642 67.1548 11.5455 66.3026 11.5455C65.4844 11.5455 64.7969 11.7528 64.2401 12.1676C63.6832 12.5767 63.2628 13.1506 62.9787 13.8892C62.6946 14.6222 62.5526 15.4773 62.5526 16.4545ZM76.1612 9.90909L79.2976 15.2614L82.4339 9.90909H84.7521L80.5249 16.4545L84.7521 23H82.4339L79.2976 17.9205L76.1612 23H73.843L78.0021 16.4545L73.843 9.90909H76.1612Z" fill="#FF0000"/>
<path d="M95.5303 5.46967C95.2374 5.17678 94.7626 5.17678 94.4697 5.46967L89.6967 10.2426C89.4038 10.5355 89.4038 11.0104 89.6967 11.3033C89.9896 11.5962 90.4645 11.5962 90.7574 11.3033L95 7.06066L99.2426 11.3033C99.5355 11.5962 100.01 11.5962 100.303 11.3033C100.596 11.0104 100.596 10.5355 100.303 10.2426L95.5303 5.46967ZM95.75 23L95.75 6L94.25 6L94.25 23L95.75 23Z" fill="#FF0000"/>
</svg>
