<svg width="40" height="40" viewBox="0 0 40 40" fill="none" xmlns="http://www.w3.org/2000/svg">
<rect width="40" height="40" rx="6.561" fill="#FF0000"/>
<path d="M17.4746 13.0314C17.9622 12.5451 18.747 12.5451 19.2346 13.0314C19.4784 13.2745 19.6003 13.5899 19.6003 13.909C19.6003 14.2281 19.4784 14.5434 19.2346 14.7866L14.9146 19.091H28.0879C28.7737 19.091 29.3337 19.6457 29.3337 20.3333C29.3337 21.021 28.7775 21.5757 28.0879 21.5757H14.9146L19.2346 25.8801C19.7222 26.3664 19.7222 27.149 19.2346 27.6353C18.747 28.1216 17.9622 28.1216 17.4746 27.6353L11.0327 21.2109C10.7965 20.9792 10.667 20.6639 10.667 20.3333C10.667 20.0028 10.7965 19.6875 11.0327 19.4557L17.4746 13.0314Z" fill="white"/>
</svg>
