<svg width="49" height="48" viewBox="0 0 49 48" fill="none" xmlns="http://www.w3.org/2000/svg">
<rect width="48" height="48" rx="8.1" transform="matrix(-1 0 0 1 48.6396 0)" fill="#FF0000"/>
<path d="M27.6707 15.6376C27.0856 15.0541 26.1438 15.0541 25.5587 15.6376C25.2661 15.9294 25.1198 16.3078 25.1198 16.6908C25.1198 17.0737 25.2661 17.4521 25.5587 17.7439L30.7427 22.9092H14.9347C14.1118 22.9092 13.4398 23.5748 13.4398 24.4C13.4398 25.2252 14.1073 25.8908 14.9347 25.8908H30.7427L25.5587 31.0561C24.9736 31.6396 24.9736 32.5788 25.5587 33.1623C26.1438 33.7459 27.0856 33.7459 27.6707 33.1623L35.401 25.4531C35.6844 25.175 35.8398 24.7966 35.8398 24.4C35.8398 24.0034 35.6844 23.625 35.401 23.3469L27.6707 15.6376Z" fill="white"/>
</svg>
