<svg width="184" height="24" viewBox="0 0 184 24" fill="none" xmlns="http://www.w3.org/2000/svg">
<path d="M12 1.61804L14.2186 8.4463L14.3309 8.7918H14.6942H21.8738L16.0654 13.0119L15.7715 13.2254L15.8837 13.5709L18.1024 20.3992L12.2939 16.1791L12 15.9656L11.7061 16.1791L5.89763 20.3992L8.11627 13.5709L8.22853 13.2254L7.93464 13.0119L2.12616 8.7918H9.30583H9.6691L9.78136 8.4463L12 1.61804Z" fill="#FF0000" stroke="black"/>
<path d="M52 1.61804L54.2186 8.4463L54.3309 8.7918H54.6942H61.8738L56.0654 13.0119L55.7715 13.2254L55.8837 13.5709L58.1024 20.3992L52.2939 16.1791L52 15.9656L51.7061 16.1791L45.8976 20.3992L48.1163 13.5709L48.2285 13.2254L47.9346 13.0119L42.1262 8.7918H49.3058H49.6691L49.7814 8.4463L52 1.61804Z" fill="#FF0000" stroke="black"/>
<path d="M92 1.61804L94.2186 8.4463L94.3309 8.7918H94.6942H101.874L96.0654 13.0119L95.7715 13.2254L95.8837 13.5709L98.1024 20.3992L92.2939 16.1791L92 15.9656L91.7061 16.1791L85.8976 20.3992L88.1163 13.5709L88.2285 13.2254L87.9346 13.0119L82.1262 8.7918H89.3058H89.6691L89.7814 8.4463L92 1.61804Z" fill="#FF0000" stroke="black"/>
<path d="M132 1.61804L134.219 8.4463L134.331 8.7918H134.694H141.874L136.065 13.0119L135.771 13.2254L135.884 13.5709L138.102 20.3992L132.294 16.1791L132 15.9656L131.706 16.1791L125.898 20.3992L128.116 13.5709L128.229 13.2254L127.935 13.0119L122.126 8.7918H129.306H129.669L129.781 8.4463L132 1.61804Z" fill="#FF0000" stroke="black"/>
<path d="M172 1.61804L174.219 8.4463L174.331 8.7918H174.694H181.874L176.065 13.0119L175.771 13.2254L175.884 13.5709L178.102 20.3992L172.294 16.1791L172 15.9656L171.706 16.1791L165.898 20.3992L168.116 13.5709L168.229 13.2254L167.935 13.0119L162.126 8.7918H169.306H169.669L169.781 8.4463L172 1.61804Z" fill="#FF0000" stroke="black"/>
</svg>
