<svg width="146" height="104" viewBox="0 0 146 104" fill="none" xmlns="http://www.w3.org/2000/svg">
<g clip-path="url(#clip0_26_128)">
<path d="M6.00527 64.9683C8.11641 62.2197 10.1832 59.5093 12.2803 56.8231C12.6691 56.3237 12.796 55.9029 12.5683 55.2766C12.0103 53.7322 11.5108 52.1656 11.0535 50.5869C10.854 49.9002 10.4975 49.5498 9.80251 49.3525C6.55119 48.4282 3.31598 47.4496 0.00221477 46.471C0.00221477 44.0163 -0.0199442 41.5718 0.0364604 39.1312C0.0425037 38.8896 0.487697 38.5372 0.791879 38.4446C3.77326 37.5304 6.7627 36.6404 9.76423 35.7926C10.4491 35.5993 10.842 35.2892 11.0454 34.5864C11.4826 33.0742 11.9761 31.578 12.5099 30.096C12.7758 29.359 12.6872 28.8194 12.1816 28.1851C10.0966 25.5613 8.07814 22.8831 5.99318 20.1728C7.4456 18.1732 8.86982 16.1857 10.3383 14.2345C10.4693 14.0593 10.9306 13.9969 11.1804 14.0714C12.1433 14.3614 13.08 14.7339 14.0308 15.0641C14.9111 15.3702 18.6842 16.663 20.0581 17.2268C20.8377 17.545 21.3957 17.4765 22.0564 16.9529C23.249 16.0085 24.514 15.1548 25.769 14.2909C26.3995 13.856 26.6634 13.3485 26.6272 12.539C26.4942 9.55682 26.4499 6.57059 26.3754 3.58435C26.3653 3.21787 26.3754 2.85138 26.3754 2.40838C28.8068 1.61702 31.2262 0.829682 33.7684 0.00207417C34.8199 1.5264 35.8816 3.05879 36.9391 4.5952C37.8517 5.92219 38.7199 7.28342 39.6929 8.56208C39.9648 8.92051 40.5349 9.23061 40.9801 9.24672C42.7146 9.31518 44.453 9.29303 46.1875 9.21651C46.5702 9.20041 47.0658 8.91044 47.2894 8.59228C49.2756 5.76915 51.2135 2.91179 53.2119 -0.00195312C55.5526 0.757191 57.8813 1.49016 60.1818 2.29562C60.4115 2.37616 60.6129 2.91179 60.6089 3.23196C60.5626 6.3511 60.4961 9.47225 60.3672 12.5894C60.3349 13.3626 60.5787 13.8137 61.2072 14.2325C62.4884 15.0903 63.7414 15.9985 64.9541 16.9509C65.5705 17.4362 66.0922 17.5349 66.8537 17.2469C69.6457 16.1918 72.47 15.2252 75.2822 14.2265C75.6266 14.1036 75.9751 13.9929 76.3518 13.864C77.911 15.9723 79.448 18.0484 80.9992 20.1446C78.8779 22.9113 76.8172 25.6297 74.7181 28.318C74.3253 28.8214 74.2085 29.2462 74.43 29.8664C74.9921 31.4451 75.4937 33.046 75.9812 34.6489C76.1645 35.2509 76.4425 35.6376 77.1113 35.7483C77.3973 35.7966 83.8456 37.7015 86.5329 38.5271C86.7303 38.5875 86.9619 38.944 86.966 39.1655C87.0022 41.1449 87.0062 43.1243 86.9881 45.1017C86.978 46.1407 85.8076 46.8979 84.3431 47.2684C81.7385 47.9288 79.1781 48.7625 76.6097 49.5559C76.4062 49.6183 76.2007 49.9002 76.1262 50.1237C75.5118 51.934 74.8994 53.7443 74.3656 55.5787C74.2709 55.9049 74.4562 56.4144 74.6819 56.7124C76.7628 59.467 78.88 62.1935 81.0012 64.9462C79.4521 67.0826 77.9412 69.1668 76.4022 71.2891C73.167 70.1373 69.9741 69.0218 66.7993 67.8559C66.1285 67.6102 65.6309 67.6505 65.0568 68.0955C63.7595 69.1043 62.4239 70.0669 61.0682 70.9972C60.5303 71.3657 60.3511 71.7684 60.3752 72.4128C60.488 75.4977 60.5485 78.5846 60.625 81.6695C60.6331 82.0017 60.625 82.334 60.625 82.7186C58.2641 83.4838 55.9455 84.257 53.6067 84.9618C53.3972 85.0262 52.9621 84.7302 52.7929 84.4886C50.9678 81.8749 49.1588 79.2491 47.3861 76.6011C47.0255 76.0615 46.6407 75.8541 45.9941 75.8722C44.3161 75.9185 42.636 75.9145 40.958 75.8722C40.3536 75.8581 39.983 76.0454 39.6425 76.5508C37.8839 79.1685 36.0709 81.75 34.3183 84.3718C33.9457 84.9296 33.6415 85.1289 32.9525 84.8813C31.0912 84.2127 29.2077 83.6006 27.3101 83.0448C26.5768 82.8294 26.3129 82.5273 26.3472 81.7319C26.4781 78.6148 26.5063 75.4936 26.6272 72.3745C26.6534 71.708 26.4157 71.3314 25.9 70.975C24.5221 70.0185 23.1583 69.0379 21.8247 68.021C21.3413 67.6525 20.9323 67.5941 20.3582 67.8055C17.3668 68.903 14.3552 69.942 11.3637 71.0374C10.7997 71.2449 10.4814 71.1784 10.1268 70.671C8.7832 68.752 7.3892 66.8672 6.00326 64.9542L6.00527 64.9683ZM16.845 44.2902C17.5501 51.9179 20.6886 58.3132 26.6574 63.1822C32.4066 67.87 39.0382 69.8454 46.4212 69.0621C65.6994 67.0162 76.5412 45.1822 66.2494 28.7287C60.4921 19.5264 51.8763 15.2655 40.9237 16.0569C40.3818 16.0951 40.2791 16.0589 39.2195 16.2502C32.9586 17.3375 27.6787 20.2392 23.4726 25.0216C19.2442 29.8282 17.0908 35.4906 16.8208 41.8658C16.7725 43.2854 16.8269 44.0929 16.845 44.2922V44.2902ZM2.52229 40.577C5.74541 39.6487 8.82953 38.7446 11.9257 37.8828C12.5361 37.7136 12.8806 37.4317 13.08 36.8095C13.8858 34.2884 14.7722 31.7915 15.5538 29.2644C15.6746 28.8757 15.5316 28.2676 15.2838 27.9253C13.9261 26.0526 12.4898 24.2343 11.0938 22.3878C10.5317 21.6427 9.58293 20.8755 9.5789 20.1124C9.57286 19.3472 10.566 18.6001 11.0414 17.7987C11.4342 17.1342 11.8633 17.1221 12.5301 17.3698C15.2939 18.3987 18.0698 19.3955 20.8618 20.3399C21.2486 20.4708 21.861 20.3822 22.1954 20.1486C24.3992 18.6182 26.5748 17.0436 28.7101 15.4185C29.0606 15.1507 29.3568 14.5648 29.3568 14.1258C29.3608 11.8121 29.254 9.49843 29.1996 7.18475C29.1775 6.25444 28.8431 5.05028 29.2923 4.46633C29.7878 3.82196 31.0368 3.78169 31.9312 3.4152C32.5053 3.17961 32.8236 3.30848 33.1661 3.81793C34.8199 6.2625 36.5262 8.67082 38.174 11.1194C38.5487 11.6772 38.9294 11.9229 39.6304 11.9067C42.1122 11.8504 44.5981 11.8242 47.0799 11.8926C47.9803 11.9168 48.4638 11.5906 48.9352 10.8737C50.6616 8.24191 52.4504 5.65236 54.2372 3.01851C55.2867 3.34473 56.2678 3.68302 57.2649 3.95083C57.8813 4.11595 58.107 4.40189 58.0848 5.07445C57.9861 8.02444 57.97 10.9764 57.8834 13.9244C57.8652 14.5627 58.0405 14.9675 58.5804 15.34C60.349 16.5522 62.1419 17.7463 63.8018 19.0975C64.944 20.0278 65.9633 20.3258 67.313 19.5989C68.0886 19.182 73.3906 17.3235 73.6525 16.8925C72.6553 17.2167 71.6582 17.5832 70.6348 17.853C70.3246 17.9356 65.5403 19.5989 64.664 18.9767C62.9396 17.7524 61.2455 16.4878 59.4849 15.3179C58.6952 14.7923 58.4152 14.2265 58.4756 13.2599C58.6569 10.3482 58.6972 7.4284 58.8302 4.51264C58.8584 3.90653 58.675 3.61053 58.0848 3.43937C56.9567 3.11517 55.8327 2.76681 54.7428 2.33589C54.1123 2.08821 53.792 2.24125 53.4314 2.77285C51.7171 5.29796 49.9807 7.80696 48.2019 10.2878C47.9783 10.5999 47.4687 10.8677 47.0859 10.8758C44.7048 10.9201 42.3238 10.918 39.9447 10.8476C39.5398 10.8355 39.01 10.5153 38.7703 10.175C37.0137 7.6801 35.3014 5.15097 33.6113 2.60975C33.2507 2.06807 32.9223 1.93517 32.2979 2.16876C31.1395 2.60572 29.953 2.9863 28.7565 3.30647C28.0917 3.48367 27.9487 3.83001 27.9688 4.45827C28.0715 7.50894 28.1582 10.5596 28.1864 13.6123C28.1904 14.0271 27.9325 14.5869 27.6102 14.8366C25.7751 16.2462 23.8976 17.6013 21.9919 18.9183C21.6797 19.1337 21.1136 19.2183 20.7551 19.0975C17.7999 18.1068 14.8709 17.0415 11.9217 16.0327C11.6397 15.9361 11.1119 15.9481 10.9749 16.1233C9.94956 17.4362 8.9927 18.8035 8.01972 20.1486C10.1228 22.861 12.1715 25.4747 14.1718 28.1246C14.4055 28.4347 14.5425 28.9945 14.4357 29.355C13.7569 31.6566 13.0216 33.9441 12.244 36.2155C12.1292 36.5538 11.7444 36.9202 11.404 37.0391C10.01 37.5223 8.59182 37.9311 7.16962 38.3238C6.83925 38.4144 3.09842 39.6044 2.41552 39.7655C1.88975 39.8904 1.7286 40.1662 1.74471 40.6858C1.78097 41.8919 1.7991 43.1021 1.76083 44.3083C1.73867 44.9668 1.98846 45.2245 2.621 45.3977C5.56411 46.2011 8.48304 47.0851 11.4241 47.8946C12.0164 48.0577 12.3045 48.3416 12.4898 48.9196C13.2251 51.2191 14.0369 53.4925 14.754 55.7962C14.8688 56.1626 14.7701 56.7305 14.5445 57.0426C13.1687 58.9455 11.7263 60.7981 10.3101 62.6707C10.151 62.8802 10.0261 63.1138 9.8851 63.3373C11.7706 61.386 13.4527 59.2979 15.167 57.2379C15.5558 56.7708 15.6283 56.358 15.4409 55.7821C14.6211 53.265 13.8697 50.7258 13.0276 48.2168C12.9068 47.8543 12.4797 47.4496 12.1111 47.3388C9.40163 46.5334 6.67205 45.7883 3.94449 45.0453C2.4961 44.6506 2.4961 44.6728 2.52028 43.1726C2.53438 42.339 2.52229 41.5073 2.52229 40.577ZM53.8585 83.7778C54.9241 83.4073 55.9052 83.079 56.8782 82.7226C57.692 82.4246 58.81 82.3098 59.2109 81.7178C59.6037 81.1379 59.2653 80.0606 59.2451 79.2008C59.2371 78.8323 59.231 78.4638 59.2048 78.0953C59.1162 76.8045 59.0215 75.5138 58.9289 74.221C58.8322 74.225 58.7355 74.2291 58.6408 74.2331C58.6408 76.3353 58.6207 78.4396 58.6549 80.5418C58.665 81.1137 58.4776 81.3614 57.9277 81.5185C56.4249 81.9433 54.9403 82.4347 53.377 82.922C53.5563 83.2381 53.6812 83.4596 53.8605 83.7758L53.8585 83.7778ZM85.02 45.6272C85.7089 45.734 85.9164 45.4118 85.8902 44.7896C85.854 43.9197 85.852 43.0498 85.8479 42.1779C85.8412 40.4784 85.0093 39.4004 83.352 38.944C81.7505 38.507 80.147 38.0801 78.5435 37.6492C80.3042 38.4869 82.1111 39.1775 83.9523 39.7494C84.7984 40.0112 85.1046 40.3797 85.0442 41.2899C84.9475 42.7236 85.018 44.1674 85.018 45.6272H85.02ZM75.3486 69.1728L75.4776 69.5232C75.8079 69.4245 76.2793 69.4285 76.4425 69.207C77.3893 67.9123 78.2917 66.5792 79.1378 65.216C79.2808 64.9844 79.2063 64.4448 79.023 64.2132C78.0198 62.9567 76.9501 61.7525 75.9026 60.5302C75.6891 60.2806 75.4715 60.0329 75.256 59.7832L75.0666 59.9503C76.2269 61.5653 77.3873 63.1802 78.5435 64.7891C77.4396 66.3034 76.3961 67.7371 75.3506 69.1708L75.3486 69.1728ZM36.7296 78.0872C36.6551 78.0328 36.5786 77.9785 36.504 77.9241C35.5592 79.1766 34.5802 80.4049 33.6858 81.6937C33.2366 82.34 32.8518 82.5434 32.0622 82.2172C30.6883 81.6514 29.25 81.2386 27.8379 80.7613C27.7573 80.8419 27.6767 80.9204 27.5961 81.001C27.7956 81.2889 27.9346 81.75 28.2005 81.8406C29.8745 82.4045 31.5767 82.8857 33.3252 83.4093C34.4795 81.6071 35.6036 79.8492 36.7296 78.0912V78.0872Z" fill="white"/>
<path d="M18.1221 41.1326C18.388 35.6454 20.3098 30.7945 23.827 26.6081C27.8519 21.8177 33.0391 19.0247 39.1952 17.9978C39.3584 17.9716 39.5256 17.9777 39.5236 17.9777C37.7247 18.6623 35.7122 19.2503 33.861 20.1645C26.8245 23.636 22.4894 29.2923 20.8537 36.9442C20.2252 39.8841 20.8678 42.4978 23.8048 44.2235C24.3648 44.4289 25.2431 44.7028 23.9821 44.4188C24.7496 44.4188 24.246 44.4732 24.9007 44.4732C25.5232 49.1892 27.5175 53.1822 31.0629 56.3457C32.6402 57.7552 34.4089 58.8587 36.4536 59.497C36.244 59.3601 36.0366 59.2151 35.821 59.0862C30.66 55.9993 27.6887 51.4303 26.6533 45.5525C26.5384 44.9021 26.5505 44.3705 27.3905 44.2215C27.7028 44.1671 27.9888 43.9315 28.2688 43.7503C28.5186 43.5872 28.7443 43.3818 29.1451 43.0657C29.1834 43.6536 29.6024 45.9794 29.6407 46.5815C28.8732 45.9371 31.3328 50.5282 30.6439 50.5282C30.8151 50.6269 27.5074 44.8638 27.5517 44.8659C29.2418 44.9806 29.2499 44.9786 29.7273 46.6359C31.4335 52.556 36.5966 56.7806 42.9824 57.0404C50.734 57.3565 57.1802 51.4062 57.8188 43.6818C57.8289 43.561 57.843 43.4422 57.8732 43.1422C59.7265 45.5666 62.0834 46.3197 64.8774 45.8304C64.8049 52.3868 59.7647 59.5755 52.0796 64.3177C52.4181 64.1908 52.7686 64.0841 53.0969 63.9331C60.8243 60.3709 65.518 54.4407 66.8999 46.0197C67.0994 44.8014 67.8145 44.1128 68.6545 43.1261C68.5961 45.8485 68.163 48.2931 67.3572 50.6692C63.7916 61.1703 53.9752 68.0973 42.8877 67.8134C35.9197 67.6341 30.0134 64.9198 25.1767 59.8957C21.3109 55.8805 18.9963 51.1122 18.2329 45.5867" fill="white"/>
<path d="M56.0219 42.5706C56.0621 49.3666 50.5526 55.1035 43.498 55.1035C36.7637 55.1035 31.0064 49.7653 30.9823 42.5968C30.9581 35.6396 36.5582 30.0276 43.488 30.0357C50.4539 30.0437 56.0077 35.5973 56.0219 42.5686V42.5706ZM35.7223 44.544C36.2057 45.4179 36.3548 46.3099 36.9289 47.0852C39.1005 50.0191 42.7305 51.2655 46.1087 50.0835C49.4991 48.8975 51.6203 45.6293 51.435 42.0249C51.306 39.5159 49.5756 36.2397 46.1067 35.0537C42.7003 33.8898 38.9877 35.0919 36.9793 38.0782C36.4978 38.793 36.379 39.8864 35.7545 40.3274C35.1522 40.7523 34.1127 40.5569 33.2264 40.6375V44.544H35.7223Z" fill="white"/>
<path d="M35.7203 44.5437H33.2244V40.6373C34.1087 40.5567 35.1482 40.752 35.7525 40.3272C36.377 39.8882 36.4958 38.7928 36.9773 38.0779C38.9857 35.0937 42.6983 33.8895 46.1047 35.0534C49.5736 36.2395 51.304 39.5136 51.433 42.0247C51.6183 45.6291 49.4971 48.8972 46.1068 50.0833C42.7285 51.2653 39.1005 50.0168 36.9269 47.085C36.3528 46.3117 36.2037 45.4197 35.7203 44.5437Z" fill="#000A2F"/>
<path d="M81.4179 27.6836H5.6908V60.5604H81.4179V27.6836Z" fill="#000A2F" stroke="white" stroke-width="0.5" stroke-miterlimit="10"/>
<path d="M80.4429 28.5996H6.66577V59.64H80.4429V28.5996Z" fill="#070A2A" stroke="white" stroke-width="0.5" stroke-miterlimit="10"/>
<path d="M22.3987 31.7212H29.8058C31.8122 31.7212 33.3472 32.3414 34.4129 33.5838C35.4765 34.8262 36.0103 36.6264 36.0103 38.9864C36.0103 41.3464 35.4785 43.1466 34.4129 44.389C33.3492 45.6315 31.8122 46.2517 29.8058 46.2517H22.3987V31.7232V31.7212ZM23.3273 32.8126V45.1603H29.6628C31.4174 45.1603 32.7509 44.6347 33.6675 43.5856C34.5841 42.5365 35.0414 41.0021 35.0414 38.9864C35.0414 36.9708 34.5801 35.4545 33.6615 34.3973C32.7409 33.3402 31.4033 32.8126 29.6507 32.8126H23.3294H23.3273ZM23.6275 33.2032H29.6487C31.3146 33.2032 32.5797 33.6966 33.4439 34.6853C34.3081 35.674 34.7392 37.1077 34.7392 38.9864C34.7392 40.8652 34.3101 42.2989 33.4499 43.2876C32.5898 44.2763 31.3267 44.7696 29.6608 44.7696H23.6275V33.2032ZM24.5562 34.2946V43.6782H29.6608C31.0044 43.6782 32.0237 43.2815 32.7167 42.4841C33.4097 41.6887 33.7582 40.5228 33.7582 38.9864C33.7582 37.45 33.4117 36.2841 32.7167 35.4887C32.0237 34.6933 31.0044 34.2946 29.6608 34.2946H24.5562Z" fill="white"/>
<path d="M48.3912 41.9082C48.3912 42.8285 48.1555 43.5312 47.6841 44.0185C47.2127 44.5058 46.5097 44.7495 45.577 44.7495H37.358V43.6379H45.5246C46.143 43.6379 46.6144 43.4829 46.9387 43.1748C47.2611 42.8667 47.4222 42.4177 47.4222 41.8277C47.4222 41.2377 47.2611 40.8088 46.9387 40.5007C46.6164 40.1926 46.1451 40.0375 45.5246 40.0375H41.3628C40.0715 40.0375 39.0804 39.6771 38.3914 38.9562C37.7025 38.2353 37.358 37.2104 37.358 35.8794C37.358 34.5483 37.7025 33.5234 38.3914 32.8025C39.0804 32.0816 40.0715 31.7212 41.3628 31.7212H49.5293V32.8327H41.4272C40.4321 32.8327 39.6666 33.0965 39.1307 33.6261C38.5949 34.1537 38.325 34.9269 38.325 35.9418C38.325 36.9567 38.5949 37.742 39.1368 38.2978C39.6787 38.8535 40.4401 39.1314 41.4272 39.1314H45.577C47.4524 39.1314 48.3912 40.0577 48.3912 41.9102V41.9082ZM48.647 45.1502C47.9621 45.8852 46.969 46.2517 45.6696 46.2517H37.358V45.1401H45.577C46.5882 45.1401 47.3638 44.8582 47.8996 44.2964C48.4355 43.7346 48.7054 42.9372 48.7054 41.9082C48.7054 40.8793 48.4375 40.0879 47.8996 39.5321C47.3638 38.9764 46.5882 38.6985 45.577 38.6985H41.4272C40.5288 38.6985 39.8378 38.4629 39.3523 37.9877C38.8689 37.5144 38.6251 36.8318 38.6251 35.9398C38.6251 35.0477 38.8669 34.3732 39.3523 33.912C39.8358 33.4529 40.5288 33.2234 41.4272 33.2234H49.5293V34.3349H41.5058C40.2226 34.3349 39.582 34.8967 39.582 36.0223C39.582 37.148 40.2226 37.7098 41.5058 37.7098H45.6676C46.9589 37.7098 47.95 38.0763 48.6389 38.8112C49.3279 39.5462 49.6724 40.6054 49.6724 41.9908C49.6724 43.3762 49.3299 44.4152 48.645 45.1502H48.647Z" fill="white"/>
<path d="M57.2245 46.2496C55.2523 46.2496 53.7274 45.6193 52.6496 44.3568C51.5719 43.0942 51.0341 41.3041 51.0341 38.9864C51.0341 36.6687 51.5719 34.8765 52.6496 33.616C53.7274 32.3534 55.2523 31.7231 57.2245 31.7231H64.8935V32.8145H57.3816C55.6713 32.8145 54.3478 33.3522 53.4091 34.4295C52.4704 35.5068 52.003 37.0251 52.003 38.9884C52.003 40.9517 52.4704 42.4861 53.4031 43.5573C54.3357 44.6266 55.6592 45.1622 57.3695 45.1622H64.0434V38.9481H57.3695V37.9594H64.8955V46.2536H57.2265L57.2245 46.2496ZM64.8935 33.2032V34.2946H57.3675C56.0581 34.2946 55.0489 34.7054 54.3378 35.5289C53.6267 36.3525 53.2721 37.5124 53.2721 39.0065C53.2721 40.5006 53.6267 41.6605 54.3378 42.4841C55.0489 43.3076 56.0581 43.7184 57.3675 43.7184H62.877V40.3436H57.3675V39.3549H63.7412V44.7675H57.3675C55.7539 44.7675 54.505 44.2641 53.6246 43.2553C52.7423 42.2465 52.3032 40.8228 52.3032 38.9844C52.3032 37.1459 52.7484 35.7404 53.6387 34.7235C54.5291 33.7086 55.7761 33.2012 57.3816 33.2012H64.8935V33.2032Z" fill="white"/>
<path d="M13.4746 49.8274C13.8715 49.761 14.3932 49.7046 15.056 49.7046C15.8698 49.7046 16.4661 49.8939 16.8448 50.2342C17.1953 50.5362 17.4028 51.0014 17.4028 51.5692C17.4028 52.1371 17.2316 52.6002 16.9113 52.9325C16.4761 53.3956 15.765 53.6332 14.9613 53.6332C14.7155 53.6332 14.4879 53.6231 14.2985 53.5768V56.1321H13.4746V49.8294V49.8274ZM14.2985 52.9023C14.4778 52.9506 14.7054 52.9687 14.9794 52.9687C15.9725 52.9687 16.5789 52.4854 16.5789 51.6055C16.5789 50.7255 15.9826 50.357 15.0741 50.357C14.7135 50.357 14.4395 50.3852 14.2985 50.4235V52.9023Z" fill="white"/>
<path d="M21.8144 53.1399H19.3347V55.4395H22.0985V56.1302H18.5107V49.751H21.9575V50.4417H19.3347V52.4573H21.8144V53.1379V53.1399Z" fill="white"/>
<path d="M28.5468 53.3293C28.5004 52.4393 28.442 51.37 28.4521 50.5746H28.4239C28.2063 51.3217 27.9404 52.1171 27.6201 52.997L26.494 56.092H25.8696L24.8382 53.0534C24.536 52.1553 24.2802 51.3318 24.0989 50.5746H24.0807C24.0626 51.37 24.0142 52.4393 23.9578 53.3937L23.7866 56.1283H23.001L23.4462 49.749H24.4977L25.5855 52.8339C25.8514 53.6193 26.069 54.32 26.2301 54.9825H26.2583C26.4195 54.3381 26.6471 53.6394 26.9312 52.8339L28.0673 49.749H29.1189L29.5157 56.1283H28.7099L28.5488 53.3273L28.5468 53.3293Z" fill="white"/>
<path d="M36.2338 52.8763C36.2338 55.0712 34.8982 56.2351 33.2706 56.2351C31.6429 56.2351 30.402 54.9282 30.402 52.9991C30.402 50.9734 31.661 49.6484 33.3652 49.6484C35.0695 49.6484 36.2338 50.9835 36.2338 52.8763ZM31.2823 52.981C31.2823 54.3443 32.0216 55.5645 33.3169 55.5645C34.6122 55.5645 35.3615 54.3624 35.3615 52.9146C35.3615 51.646 34.6988 50.321 33.327 50.321C31.9551 50.321 31.2823 51.5795 31.2823 52.981Z" fill="white"/>
<path d="M38.1274 49.7529V52.421H41.2135V49.7529H42.0475V56.1322H41.2135V53.1419H38.1274V56.1322H37.3035V49.7529H38.1274Z" fill="white"/>
<path d="M44.6884 50.4517H42.7485V49.751H47.4724V50.4517H45.5224V56.1302H44.6905V50.4517H44.6884Z" fill="white"/>
<path d="M51.2213 54.1246L50.5585 56.1302H49.7064L51.874 49.751H52.8671L55.0447 56.1302H54.1644L53.4835 54.1246H51.2213ZM53.3143 53.4802L52.6898 51.6438C52.5488 51.227 52.4541 50.8484 52.3595 50.4799H52.3413C52.2466 50.8585 52.1419 51.2471 52.019 51.6337L51.3945 53.4782H53.3163L53.3143 53.4802Z" fill="white"/>
<path d="M56.7973 49.7529V52.5821H57.0531L59.2408 49.7529H60.236L57.8226 52.6767C58.8742 52.8197 59.2811 53.4621 59.6115 54.3239C59.8472 54.9763 60.0285 55.5643 60.3125 56.1322H59.4221C59.1945 55.6972 59.0152 55.1294 58.844 54.628C58.5499 53.7863 58.1429 53.2083 57.0652 53.2083H56.7993V56.1322H55.9855V49.7529H56.7993H56.7973Z" fill="white"/>
<path d="M65.7253 49.7529V56.1322H64.9014V50.4436H61.9382V56.1322H61.1143V49.7529H65.7253Z" fill="white"/>
<path d="M71.7768 49.7529V56.1322H70.9529V50.4436H67.9897V56.1322H67.1658V49.7529H71.7768Z" fill="white"/>
</g>
<path d="M77.6239 95.0183C78.546 93.817 79.4487 92.6325 80.3647 91.4585C80.5345 91.2403 80.5899 91.0564 80.4905 90.7827C80.2468 90.1077 80.0286 89.423 79.8288 88.7331C79.7417 88.433 79.586 88.2799 79.2824 88.1936C77.8623 87.7897 76.4493 87.362 75.0019 86.9343C75.0019 85.8615 74.9922 84.7932 75.0168 83.7266C75.0195 83.621 75.2139 83.467 75.3468 83.4265C76.649 83.0269 77.9547 82.638 79.2657 82.2675C79.5649 82.183 79.7364 82.0475 79.8253 81.7403C80.0162 81.0794 80.2318 80.4256 80.465 79.7779C80.5811 79.4558 80.5424 79.2199 80.3215 78.9427C79.4109 77.796 78.5293 76.6256 77.6186 75.4411C78.253 74.5672 78.875 73.6986 79.5165 72.8458C79.5737 72.7693 79.7752 72.742 79.8843 72.7746C80.3048 72.9013 80.714 73.0641 81.1293 73.2084C81.5138 73.3422 83.1618 73.9072 83.7618 74.1536C84.1023 74.2926 84.3461 74.2627 84.6347 74.0339C85.1555 73.6212 85.7081 73.248 86.2563 72.8705C86.5316 72.6804 86.6469 72.4586 86.6311 72.1049C86.573 70.8015 86.5536 69.4964 86.5211 68.1914C86.5167 68.0312 86.5211 67.871 86.5211 67.6774C87.5831 67.3316 88.6398 66.9875 89.7502 66.6258C90.2095 67.292 90.6732 67.9617 91.1351 68.6331C91.5337 69.2131 91.9129 69.808 92.3379 70.3668C92.4567 70.5234 92.7057 70.659 92.9001 70.666C93.6577 70.6959 94.417 70.6863 95.1746 70.6528C95.3418 70.6458 95.5582 70.519 95.6559 70.38C96.5234 69.1462 97.3698 67.8974 98.2427 66.624C99.2651 66.9558 100.282 67.2761 101.287 67.6281C101.387 67.6633 101.475 67.8974 101.474 68.0374C101.453 69.4005 101.424 70.7646 101.368 72.1269C101.354 72.4648 101.46 72.6619 101.735 72.845C102.294 73.2199 102.842 73.6168 103.371 74.033C103.641 74.2451 103.869 74.2882 104.201 74.1624C105.421 73.7012 106.654 73.2788 107.882 72.8423C108.033 72.7886 108.185 72.7402 108.35 72.6839C109.031 73.6053 109.702 74.5126 110.38 75.4287C109.453 76.6379 108.553 77.826 107.636 79.0008C107.465 79.2208 107.414 79.4065 107.51 79.6775C107.756 80.3675 107.975 81.0671 108.188 81.7676C108.268 82.0307 108.389 82.1997 108.681 82.2481C108.806 82.2692 111.623 83.1017 112.797 83.4626C112.883 83.489 112.984 83.6447 112.986 83.7415C113.002 84.6066 113.003 85.4717 112.995 86.3359C112.991 86.79 112.48 87.1208 111.84 87.2828C110.702 87.5714 109.584 87.9358 108.462 88.2825C108.373 88.3098 108.284 88.433 108.251 88.5307C107.983 89.3218 107.715 90.113 107.482 90.9147C107.441 91.0572 107.522 91.2799 107.62 91.4101C108.529 92.614 109.454 93.8056 110.38 95.0086C109.704 95.9423 109.044 96.8531 108.372 97.7807C106.959 97.2773 105.564 96.7898 104.177 96.2802C103.884 96.1729 103.667 96.1905 103.416 96.3849C102.85 96.8258 102.266 97.2465 101.674 97.6531C101.439 97.8141 101.361 97.9901 101.371 98.2717C101.421 99.6199 101.447 100.969 101.481 102.317C101.484 102.462 101.481 102.608 101.481 102.776C100.449 103.11 99.4367 103.448 98.4151 103.756C98.3236 103.784 98.1336 103.655 98.0597 103.549C97.2625 102.407 96.4724 101.259 95.6981 100.102C95.5406 99.8664 95.3726 99.7757 95.0901 99.7836C94.3572 99.8039 93.6234 99.8021 92.8904 99.7836C92.6265 99.7775 92.4646 99.8593 92.3159 100.08C91.5478 101.224 90.7559 102.352 89.9904 103.498C89.8276 103.742 89.6948 103.829 89.3939 103.721C88.5809 103.429 87.7582 103.161 86.9293 102.918C86.6091 102.824 86.4938 102.692 86.5088 102.345C86.566 100.982 86.5783 99.6182 86.6311 98.255C86.6425 97.9637 86.5387 97.7992 86.3134 97.6434C85.7116 97.2254 85.1159 96.7968 84.5335 96.3524C84.3223 96.1913 84.1437 96.1658 83.8929 96.2582C82.5863 96.7378 81.2709 97.1919 79.9643 97.6707C79.718 97.7613 79.5789 97.7323 79.4241 97.5105C78.8372 96.6718 78.2283 95.8481 77.623 95.0121L77.6239 95.0183ZM82.3584 85.9812C82.6664 89.3148 84.0372 92.1097 86.6443 94.2377C89.1554 96.2864 92.0519 97.1497 95.2766 96.8074C103.697 95.9132 108.432 86.3711 103.937 79.1803C101.423 75.1586 97.6593 73.2964 92.8755 73.6423C92.6388 73.659 92.5939 73.6432 92.1311 73.7268C89.3965 74.202 87.0904 75.4701 85.2532 77.5602C83.4064 79.6608 82.4658 82.1355 82.3479 84.9216C82.3268 85.5421 82.3505 85.895 82.3584 85.9821V85.9812ZM76.1026 84.3584C77.5104 83.9527 78.8575 83.5576 80.2098 83.1809C80.4764 83.107 80.6269 82.9838 80.714 82.7119C81.0659 81.6101 81.4531 80.5188 81.7944 79.4144C81.8472 79.2446 81.7848 78.9788 81.6765 78.8292C81.0835 78.0108 80.4562 77.2161 79.8464 76.4091C79.6009 76.0835 79.1865 75.7482 79.1848 75.4147C79.1821 75.0803 79.6159 74.7538 79.8235 74.4035C79.9951 74.1131 80.1825 74.1078 80.4738 74.2161C81.6809 74.6658 82.8934 75.1014 84.1129 75.5141C84.2818 75.5713 84.5493 75.5326 84.6954 75.4305C85.6579 74.7617 86.6082 74.0735 87.5409 73.3633C87.694 73.2463 87.8233 72.9902 87.8233 72.7983C87.8251 71.7872 87.7784 70.776 87.7547 69.7649C87.745 69.3583 87.5989 68.832 87.7951 68.5768C88.0116 68.2952 88.5571 68.2776 88.9478 68.1174C89.1985 68.0145 89.3375 68.0708 89.4871 68.2934C90.2095 69.3618 90.9547 70.4143 91.6745 71.4844C91.8381 71.7282 92.0044 71.8356 92.3106 71.8285C93.3946 71.8039 94.4804 71.7925 95.5644 71.8224C95.9577 71.8329 96.1688 71.6904 96.3747 71.3771C97.1288 70.2269 97.9101 69.0952 98.6905 67.9441C99.1489 68.0866 99.5774 68.2345 100.013 68.3515C100.282 68.4237 100.381 68.5487 100.371 68.8426C100.328 70.1318 100.321 71.422 100.283 72.7103C100.275 72.9893 100.352 73.1662 100.588 73.329C101.36 73.8588 102.143 74.3806 102.868 74.9711C103.367 75.3777 103.812 75.5079 104.402 75.1903C104.74 75.0081 107.056 74.1958 107.171 74.0075C106.735 74.1492 106.3 74.3093 105.853 74.4273C105.717 74.4633 103.627 75.1903 103.245 74.9183C102.492 74.3833 101.752 73.8306 100.983 73.3193C100.638 73.0896 100.515 72.8423 100.542 72.4199C100.621 71.1474 100.639 69.8713 100.697 68.5971C100.709 68.3322 100.629 68.2028 100.371 68.128C99.8783 67.9863 99.3874 67.8341 98.9114 67.6457C98.636 67.5375 98.4961 67.6044 98.3386 67.8367C97.5898 68.9403 96.8314 70.0368 96.0544 71.121C95.9568 71.2574 95.7342 71.3744 95.567 71.378C94.527 71.3973 93.487 71.3964 92.4479 71.3656C92.271 71.3604 92.0396 71.2204 91.9349 71.0717C91.1677 69.9813 90.4198 68.876 89.6816 67.7654C89.5241 67.5287 89.3807 67.4706 89.1079 67.5727C88.602 67.7637 88.0837 67.93 87.5611 68.0699C87.2707 68.1474 87.2083 68.2987 87.2171 68.5733C87.2619 69.9065 87.2998 71.2398 87.3121 72.5739C87.3139 72.7552 87.2012 72.9999 87.0604 73.109C86.2589 73.725 85.4389 74.3173 84.6065 74.8928C84.4701 74.987 84.2229 75.0239 84.0663 74.9711C82.7755 74.5382 81.4962 74.0726 80.208 73.6317C80.0849 73.5895 79.8543 73.5948 79.7945 73.6713C79.3467 74.2451 78.9287 74.8426 78.5037 75.4305C79.4223 76.6159 80.3171 77.7582 81.1909 78.9163C81.2929 79.0518 81.3528 79.2965 81.3061 79.454C81.0096 80.4599 80.6885 81.4596 80.3488 82.4523C80.2987 82.6001 80.1306 82.7603 79.9819 82.8122C79.3731 83.0234 78.7536 83.2021 78.1324 83.3737C77.9881 83.4133 76.3542 83.9334 76.056 84.0038C75.8263 84.0583 75.7559 84.1789 75.763 84.4059C75.7788 84.9331 75.7867 85.462 75.77 85.9891C75.7603 86.2769 75.8694 86.3895 76.1457 86.4652C77.4312 86.8164 78.7061 87.2027 79.9907 87.5565C80.2494 87.6277 80.3752 87.7518 80.4562 88.0044C80.7773 89.0094 81.1319 90.003 81.4451 91.0097C81.4953 91.1699 81.4522 91.418 81.3536 91.5544C80.7527 92.3861 80.1227 93.1957 79.5042 94.0141C79.4346 94.1057 79.3801 94.2077 79.3185 94.3054C80.1421 93.4527 80.8767 92.5401 81.6255 91.6398C81.7953 91.4356 81.827 91.2552 81.7452 91.0035C81.3871 89.9035 81.0589 88.7938 80.6911 87.6973C80.6383 87.5389 80.4518 87.362 80.2908 87.3136C79.1073 86.9616 77.9151 86.636 76.7238 86.3112C76.0911 86.1387 76.0911 86.1484 76.1017 85.4928C76.1079 85.1285 76.1026 84.765 76.1026 84.3584ZM98.5251 103.239C98.9906 103.077 99.4191 102.933 99.844 102.777C100.2 102.647 100.688 102.597 100.863 102.338C101.034 102.085 100.887 101.614 100.878 101.238C100.874 101.077 100.872 100.916 100.86 100.755C100.822 100.191 100.78 99.627 100.74 99.062C100.698 99.0638 100.655 99.0655 100.614 99.0673C100.614 99.986 100.605 100.906 100.62 101.824C100.624 102.074 100.543 102.183 100.302 102.251C99.6461 102.437 98.9976 102.652 98.3148 102.865C98.3931 103.003 98.4477 103.1 98.526 103.238L98.5251 103.239ZM112.136 86.5655C112.437 86.6122 112.527 86.4714 112.516 86.1995C112.5 85.8193 112.499 85.4391 112.497 85.0581C112.494 84.3153 112.131 83.8442 111.407 83.6447C110.708 83.4538 110.007 83.2672 109.307 83.0789C110.076 83.445 110.865 83.7468 111.669 83.9967C112.039 84.1111 112.173 84.2722 112.146 84.67C112.104 85.2965 112.135 85.9275 112.135 86.5655H112.136ZM107.912 96.8558L107.968 97.0089C108.112 96.9658 108.318 96.9675 108.389 96.8707C108.803 96.3049 109.197 95.7223 109.567 95.1265C109.629 95.0253 109.596 94.7894 109.516 94.6882C109.078 94.1391 108.611 93.6128 108.153 93.0787C108.06 92.9695 107.965 92.8613 107.871 92.7522L107.788 92.8252C108.295 93.531 108.802 94.2368 109.307 94.9399C108.825 95.6017 108.369 96.2283 107.912 96.8549L107.912 96.8558ZM91.0436 100.752C91.0111 100.728 90.9776 100.704 90.9451 100.68C90.5324 101.228 90.1048 101.765 89.7141 102.328C89.5179 102.61 89.3499 102.699 89.005 102.557C88.4049 102.309 87.7767 102.129 87.1599 101.92C87.1247 101.956 87.0895 101.99 87.0543 102.025C87.1414 102.151 87.2021 102.352 87.3182 102.392C88.0494 102.638 88.7929 102.849 89.5566 103.078C90.0608 102.29 90.5518 101.522 91.0436 100.753V100.752Z" fill="white"/>
<path d="M82.9163 84.6012C83.0324 82.2031 83.8718 80.0831 85.408 78.2535C87.166 76.1599 89.4317 74.9393 92.1205 74.4905C92.1918 74.4791 92.2648 74.4817 92.264 74.4817C91.4782 74.7809 90.5993 75.0379 89.7907 75.4374C86.7173 76.9546 84.8238 79.4266 84.1094 82.7707C83.8348 84.0556 84.1155 85.1979 85.3984 85.952C85.643 86.0418 86.0266 86.1615 85.4758 86.0374C85.811 86.0374 85.5911 86.0612 85.877 86.0612C86.1489 88.1222 87.02 89.8673 88.5685 91.2498C89.2575 91.8659 90.03 92.3481 90.923 92.6271C90.8315 92.5672 90.7409 92.5039 90.6468 92.4476C88.3926 91.0985 87.0947 89.1017 86.6425 86.5329C86.5923 86.2486 86.5976 86.0163 86.9645 85.9512C87.1009 85.9274 87.2258 85.8244 87.3481 85.7452C87.4573 85.674 87.5558 85.5842 87.7309 85.446C87.7476 85.703 87.9306 86.7194 87.9473 86.9826C87.6121 86.701 88.6864 88.7074 88.3855 88.7074C88.4603 88.7505 87.0156 86.2319 87.0349 86.2328C87.7731 86.2829 87.7766 86.2821 87.9852 87.0063C88.7304 89.5936 90.9855 91.4399 93.7747 91.5534C97.1604 91.6916 99.976 89.0911 100.255 85.7153C100.259 85.6625 100.265 85.6106 100.279 85.4795C101.088 86.539 102.118 86.8682 103.338 86.6543C103.306 89.5197 101.105 92.6614 97.7482 94.7339C97.896 94.6784 98.0491 94.6318 98.1925 94.5658C101.568 93.009 103.618 90.4173 104.221 86.737C104.308 86.2046 104.621 85.9036 104.988 85.4724C104.962 86.6622 104.773 87.7306 104.421 88.769C102.864 93.3584 98.5761 96.3857 93.7333 96.2616C90.6899 96.1833 88.1101 94.997 85.9976 92.8013C84.3091 91.0466 83.2981 88.9626 82.9647 86.5478" fill="white"/>
<path d="M99.47 85.2297C99.4876 88.1998 97.0811 90.707 93.9998 90.707C91.0585 90.707 88.5438 88.374 88.5332 85.2411C88.5227 82.2006 90.9687 79.7479 93.9955 79.7515C97.038 79.755 99.4638 82.1821 99.47 85.2288V85.2297ZM90.6036 86.0921C90.8147 86.474 90.8798 86.8639 91.1306 87.2027C92.0791 88.4849 93.6646 89.0296 95.1402 88.5131C96.621 87.9947 97.5475 86.5664 97.4665 84.9912C97.4102 83.8947 96.6544 82.4628 95.1393 81.9445C93.6514 81.4358 92.0298 81.9612 91.1526 83.2663C90.9423 83.5787 90.8904 84.0566 90.6176 84.2493C90.3546 84.435 89.9006 84.3496 89.5134 84.3848V86.0921H90.6036Z" fill="white"/>
<path d="M90.6027 86.092H89.5126V84.3848C89.8988 84.3496 90.3528 84.4349 90.6168 84.2492C90.8896 84.0574 90.9415 83.5787 91.1518 83.2662C92.029 81.962 93.6506 81.4358 95.1384 81.9444C96.6536 82.4628 97.4094 83.8937 97.4657 84.9911C97.5466 86.5664 96.6201 87.9947 95.1393 88.513C93.6638 89.0296 92.0791 88.484 91.1298 87.2026C90.879 86.8647 90.8139 86.4748 90.6027 86.092Z" fill="#000A2F"/>
<path d="M97.5906 60.6988C98.8524 59.1009 100.088 57.5252 101.341 55.9636C101.573 55.6733 101.649 55.4286 101.513 55.0645C101.18 54.1666 100.881 53.2559 100.608 52.3381C100.489 51.9389 100.276 51.7352 99.8602 51.6205C97.9169 51.0832 95.9832 50.5143 94.0026 49.9453C94.0026 48.5183 93.9893 47.0972 94.023 45.6784C94.0266 45.5379 94.2927 45.333 94.4745 45.2792C96.2565 44.7477 98.0433 44.2303 99.8373 43.7374C100.247 43.6251 100.481 43.4448 100.603 43.0362C100.864 42.1571 101.159 41.2873 101.478 40.4257C101.637 39.9973 101.584 39.6835 101.282 39.3148C100.036 37.7894 98.8295 36.2325 97.5833 34.6568C98.4514 33.4944 99.3027 32.339 100.18 31.2046C100.259 31.1028 100.534 31.0665 100.684 31.1098C101.259 31.2784 101.819 31.4949 102.387 31.6869C102.914 31.8649 105.169 32.6164 105.99 32.9442C106.456 33.1291 106.789 33.0893 107.184 32.785C107.897 32.2359 108.653 31.7396 109.403 31.2374C109.78 30.9845 109.938 30.6895 109.916 30.2189C109.837 28.4852 109.81 26.7492 109.766 25.0131C109.76 24.8001 109.766 24.587 109.766 24.3295C111.219 23.8694 112.665 23.4117 114.184 22.9306C114.813 23.8167 115.448 24.7076 116.08 25.6008C116.625 26.3722 117.144 27.1636 117.726 27.9069C117.888 28.1153 118.229 28.2956 118.495 28.305C119.532 28.3448 120.571 28.3319 121.607 28.2874C121.836 28.278 122.132 28.1095 122.266 27.9245C123.453 26.2833 124.611 24.6221 125.806 22.9282C127.205 23.3696 128.597 23.7957 129.972 24.2639C130.109 24.3107 130.229 24.6221 130.227 24.8083C130.199 26.6216 130.16 28.4361 130.082 30.2482C130.063 30.6977 130.209 30.96 130.585 31.2034C131.35 31.7021 132.099 32.2301 132.824 32.7838C133.192 33.0659 133.504 33.1233 133.959 32.9559C135.628 32.3425 137.316 31.7806 138.997 31.1999C139.203 31.1285 139.411 31.0641 139.636 30.9892C140.568 32.2149 141.487 33.4218 142.414 34.6404C141.146 36.2489 139.915 37.8292 138.66 39.392C138.425 39.6847 138.355 39.9317 138.488 40.2923C138.824 41.21 139.124 42.1407 139.415 43.0725C139.524 43.4225 139.691 43.6473 140.09 43.7117C140.261 43.7398 144.115 44.8472 145.722 45.3272C145.84 45.3623 145.978 45.5695 145.98 45.6983C146.002 46.849 146.005 47.9997 145.994 49.1493C145.988 49.7533 145.288 50.1935 144.413 50.4089C142.856 50.7929 141.326 51.2775 139.791 51.7387C139.669 51.775 139.546 51.9389 139.502 52.0689C139.134 53.1213 138.768 54.1737 138.449 55.2401C138.393 55.4298 138.503 55.7259 138.638 55.8992C139.882 57.5006 141.147 59.0857 142.415 60.6859C141.489 61.928 140.586 63.1396 139.667 64.3734C137.733 63.7038 135.824 63.0553 133.927 62.3775C133.526 62.2347 133.229 62.2581 132.885 62.5168C132.11 63.1033 131.312 63.6628 130.501 64.2037C130.18 64.4179 130.073 64.652 130.087 65.0266C130.155 66.82 130.191 68.6146 130.237 70.408C130.241 70.6012 130.237 70.7944 130.237 71.0179C128.825 71.4628 127.44 71.9123 126.042 72.322C125.917 72.3595 125.656 72.1874 125.555 72.0469C124.464 70.5274 123.383 69.0009 122.324 67.4616C122.108 67.1478 121.878 67.0272 121.492 67.0378C120.489 67.0647 119.485 67.0624 118.482 67.0378C118.12 67.0296 117.899 67.1385 117.695 67.4323C116.644 68.9541 115.561 70.4549 114.513 71.979C114.29 72.3033 114.109 72.4192 113.697 72.2752C112.584 71.8866 111.459 71.5307 110.324 71.2076C109.886 71.0823 109.728 70.9067 109.749 70.4443C109.827 68.6322 109.844 66.8177 109.916 65.0044C109.932 64.6169 109.79 64.398 109.482 64.1908C108.658 63.6347 107.843 63.0646 107.046 62.4735C106.757 62.2592 106.512 62.2253 106.169 62.3482C104.381 62.9862 102.581 63.5903 100.793 64.2271C100.456 64.3477 100.266 64.309 100.054 64.014C99.2509 62.8984 98.4177 61.8027 97.5894 60.6906L97.5906 60.6988ZM104.069 48.6775C104.491 53.1119 106.367 56.8298 109.934 59.6604C113.371 62.3857 117.334 63.5341 121.747 63.0787C133.27 61.8893 139.75 49.1961 133.598 39.6309C130.157 34.281 125.007 31.804 118.461 32.264C118.137 32.2863 118.076 32.2652 117.443 32.3764C113.7 33.0086 110.545 34.6955 108.031 37.4757C105.503 40.27 104.216 43.5619 104.055 47.2681C104.026 48.0934 104.059 48.5628 104.069 48.6787V48.6775ZM95.5088 46.5189C97.4352 45.9792 99.2786 45.4536 101.129 44.9526C101.494 44.8542 101.7 44.6903 101.819 44.3286C102.301 42.863 102.831 41.4114 103.298 39.9422C103.37 39.7163 103.284 39.3628 103.136 39.1638C102.325 38.0751 101.466 37.018 100.632 35.9445C100.296 35.5114 99.7289 35.0654 99.7265 34.6217C99.7229 34.1769 100.316 33.7426 100.601 33.2766C100.835 32.8903 101.092 32.8833 101.49 33.0273C103.142 33.6255 104.801 34.205 106.47 34.754C106.701 34.8301 107.067 34.7786 107.267 34.6428C108.585 33.7531 109.885 32.8377 111.161 31.893C111.371 31.7373 111.548 31.3966 111.548 31.1414C111.55 29.7963 111.486 28.4513 111.454 27.1062C111.441 26.5654 111.241 25.8653 111.509 25.5259C111.805 25.1513 112.552 25.1278 113.086 24.9148C113.43 24.7778 113.62 24.8527 113.824 25.1489C114.813 26.5701 115.833 27.9702 116.818 29.3936C117.042 29.7179 117.269 29.8607 117.688 29.8514C119.172 29.8186 120.657 29.8034 122.141 29.8432C122.679 29.8572 122.968 29.6676 123.25 29.2508C124.281 27.7208 125.351 26.2154 126.419 24.6842C127.046 24.8738 127.632 25.0705 128.228 25.2262C128.597 25.3222 128.732 25.4884 128.718 25.8794C128.659 27.5944 128.65 29.3105 128.598 31.0243C128.587 31.3954 128.692 31.6307 129.015 31.8473C130.072 32.552 131.143 33.2462 132.135 34.0317C132.818 34.5725 133.427 34.7458 134.234 34.3232C134.698 34.0809 137.867 33.0004 138.023 32.7499C137.427 32.9383 136.831 33.1514 136.219 33.3083C136.034 33.3562 133.174 34.3232 132.651 33.9615C131.62 33.2497 130.607 32.5146 129.555 31.8344C129.083 31.5289 128.916 31.1999 128.952 30.638C129.06 28.9453 129.084 27.2479 129.164 25.5528C129.181 25.2004 129.071 25.0283 128.718 24.9288C128.044 24.7404 127.372 24.5378 126.721 24.2873C126.344 24.1433 126.153 24.2323 125.937 24.5414C124.912 26.0093 123.875 27.4679 122.811 28.9102C122.678 29.0916 122.373 29.2473 122.144 29.252C120.721 29.2778 119.298 29.2766 117.876 29.2356C117.634 29.2286 117.317 29.0425 117.174 28.8446C116.124 27.3942 115.101 25.9239 114.091 24.4465C113.875 24.1316 113.679 24.0544 113.306 24.1902C112.613 24.4442 111.904 24.6654 111.189 24.8516C110.792 24.9546 110.706 25.1559 110.718 25.5212C110.779 27.2947 110.831 29.0682 110.848 30.8429C110.851 31.084 110.696 31.4095 110.504 31.5546C109.407 32.3741 108.285 33.1619 107.146 33.9275C106.959 34.0528 106.621 34.1019 106.406 34.0317C104.64 33.4558 102.889 32.8365 101.127 32.25C100.958 32.1938 100.643 32.2008 100.561 32.3027C99.9481 33.0659 99.3761 33.8608 98.7946 34.6428C100.052 36.2196 101.276 37.7391 102.472 39.2797C102.611 39.4599 102.693 39.7854 102.629 39.9949C102.224 41.333 101.784 42.6628 101.319 43.9833C101.251 44.1799 101.021 44.393 100.817 44.4621C99.9842 44.743 99.1365 44.9807 98.2865 45.2089C98.089 45.2616 95.8532 45.9535 95.445 46.0471C95.1307 46.1197 95.0344 46.2801 95.044 46.5821C95.0657 47.2833 95.0766 47.9869 95.0537 48.6881C95.0404 49.0709 95.1897 49.2207 95.5678 49.3214C97.3269 49.7885 99.0715 50.3024 100.829 50.773C101.183 50.8678 101.356 51.0328 101.466 51.3688C101.906 52.7057 102.391 54.0273 102.82 55.3665C102.888 55.5796 102.829 55.9097 102.694 56.0912C101.872 57.1974 101.01 58.2744 100.164 59.3631C100.068 59.4848 99.9938 59.6206 99.9095 59.7506C101.036 58.6162 102.042 57.4023 103.066 56.2047C103.299 55.9331 103.342 55.6931 103.23 55.3583C102.74 53.8951 102.291 52.4189 101.788 50.9603C101.716 50.7496 101.46 50.5143 101.24 50.4499C99.6206 49.9816 97.9891 49.5485 96.3588 49.1165C95.4932 48.8871 95.4932 48.9 95.5076 48.0278C95.516 47.5432 95.5088 47.0597 95.5088 46.5189ZM126.192 71.6337C126.829 71.4183 127.416 71.2275 127.997 71.0203C128.484 70.847 129.152 70.7803 129.391 70.4361C129.626 70.099 129.424 69.4727 129.412 68.9728C129.407 68.7586 129.403 68.5444 129.388 68.3302C129.335 67.5798 129.278 66.8294 129.223 66.0779C129.165 66.0802 129.107 66.0825 129.051 66.0849C129.051 67.307 129.039 68.5303 129.059 69.7525C129.065 70.0849 128.953 70.2289 128.624 70.3202C127.726 70.5672 126.839 70.8529 125.904 71.1362C126.012 71.32 126.086 71.4487 126.193 71.6325L126.192 71.6337ZM144.817 49.4548C145.229 49.5169 145.353 49.3296 145.338 48.9678C145.316 48.4621 145.315 47.9564 145.312 47.4495C145.308 46.4615 144.811 45.8348 143.82 45.5695C142.863 45.3155 141.905 45.0673 140.946 44.8168C141.999 45.3038 143.079 45.7053 144.179 46.0377C144.685 46.1899 144.868 46.4042 144.832 46.9333C144.774 47.7668 144.816 48.6061 144.816 49.4548H144.817ZM139.037 63.1431L139.114 63.3468C139.311 63.2894 139.593 63.2917 139.691 63.163C140.257 62.4103 140.796 61.6353 141.302 60.8428C141.387 60.7082 141.343 60.3944 141.233 60.2598C140.633 59.5293 139.994 58.8293 139.368 58.1187C139.24 57.9736 139.11 57.8296 138.981 57.6844L138.868 57.7816C139.562 58.7204 140.255 59.6593 140.946 60.5946C140.287 61.4749 139.663 62.3084 139.038 63.1419L139.037 63.1431ZM115.954 68.3255C115.91 68.2939 115.864 68.2623 115.82 68.2307C115.255 68.9588 114.67 69.6729 114.135 70.4221C113.867 70.7979 113.637 70.9161 113.165 70.7265C112.344 70.3975 111.484 70.1575 110.64 69.8801C110.592 69.9269 110.544 69.9726 110.495 70.0194C110.615 70.1868 110.698 70.4549 110.857 70.5075C111.857 70.8353 112.875 71.1151 113.92 71.4195C114.61 70.3718 115.281 69.3498 115.954 68.3278V68.3255Z" fill="white"/>
<path d="M104.833 46.8419C104.992 43.6519 106.14 40.8318 108.243 38.3981C110.648 35.6131 113.749 33.9895 117.428 33.3924C117.526 33.3772 117.626 33.3807 117.624 33.3807C116.549 33.7787 115.346 34.1206 114.24 34.652C110.034 36.6702 107.443 39.9585 106.466 44.4069C106.09 46.1161 106.474 47.6356 108.229 48.6388C108.564 48.7582 109.089 48.9174 108.335 48.7523C108.794 48.7523 108.493 48.7839 108.884 48.7839C109.256 51.5256 110.448 53.8469 112.568 55.686C113.51 56.5055 114.567 57.147 115.79 57.5181C115.664 57.4385 115.54 57.3542 115.411 57.2793C112.327 55.4847 110.551 52.8285 109.932 49.4114C109.863 49.0333 109.871 48.7242 110.373 48.6376C110.559 48.606 110.73 48.469 110.898 48.3637C111.047 48.2689 111.182 48.1495 111.421 47.9657C111.444 48.3075 111.695 49.6596 111.718 50.0096C111.259 49.635 112.729 52.3041 112.317 52.3041C112.419 52.3614 110.442 49.0111 110.469 49.0122C111.479 49.0789 111.484 49.0778 111.769 50.0412C112.789 53.4829 115.875 55.9389 119.692 56.0899C124.325 56.2737 128.178 52.8144 128.559 48.3239C128.565 48.2536 128.574 48.1846 128.592 48.0102C129.7 49.4196 131.108 49.8574 132.778 49.573C132.735 53.3845 129.723 57.5637 125.129 60.3206C125.331 60.2468 125.541 60.1848 125.737 60.097C130.356 58.0261 133.161 54.5786 133.987 49.683C134.106 48.9748 134.534 48.5744 135.036 48.0008C135.001 49.5835 134.742 51.0046 134.261 52.386C132.129 58.4909 126.262 62.5178 119.635 62.3528C115.47 62.2486 111.94 60.6706 109.049 57.7498C106.739 55.4156 105.355 52.6435 104.899 49.4313" fill="white"/>
<path d="M127.485 47.6778C127.509 51.6287 124.216 54.9639 120 54.9639C115.975 54.9639 112.534 51.8605 112.519 47.6931C112.505 43.6485 115.852 40.3859 119.994 40.3906C124.157 40.3953 127.477 43.6239 127.485 47.6767V47.6778ZM115.352 48.8251C115.641 49.3331 115.73 49.8517 116.074 50.3024C117.372 52.008 119.541 52.7326 121.56 52.0455C123.587 51.356 124.855 49.456 124.744 47.3606C124.667 45.902 123.633 43.9974 121.559 43.3079C119.523 42.6312 117.304 43.3301 116.104 45.0662C115.816 45.4817 115.745 46.1174 115.372 46.3738C115.012 46.6208 114.39 46.5072 113.861 46.554V48.8251H115.352Z" fill="white"/>
<path d="M115.351 48.8252H113.859V46.5541C114.388 46.5073 115.009 46.6209 115.37 46.3739C115.744 46.1187 115.815 45.4818 116.102 45.0663C117.303 43.3314 119.522 42.6313 121.558 43.308C123.631 43.9975 124.666 45.9009 124.743 47.3607C124.853 49.4561 123.586 51.3561 121.559 52.0456C119.54 52.7328 117.372 52.007 116.072 50.3025C115.729 49.853 115.64 49.3344 115.351 48.8252Z" fill="#000A2F"/>
<defs>
<clipPath id="clip0_26_128">
<rect width="87" height="85" fill="white"/>
</clipPath>
</defs>
</svg>
