<svg width="60" height="60" viewBox="0 0 60 60" fill="none" xmlns="http://www.w3.org/2000/svg">
<rect width="60" height="60" rx="10" transform="matrix(-1 0 0 1 60 0)" fill="#C60000"/>
<path d="M33.7886 19.5471C33.0571 18.8176 31.88 18.8176 31.1486 19.5471C30.7829 19.9118 30.6 20.3848 30.6 20.8635C30.6 21.3422 30.7829 21.8152 31.1486 22.1799L37.6286 28.6365H17.8686C16.84 28.6365 16 29.4685 16 30.5C16 31.5315 16.8343 32.3635 17.8686 32.3635H37.6286L31.1486 38.8201C30.4171 39.5496 30.4171 40.7235 31.1486 41.4529C31.88 42.1824 33.0571 42.1824 33.7886 41.4529L43.4514 31.8164C43.8057 31.4688 44 30.9958 44 30.5C44 30.0042 43.8057 29.5312 43.4514 29.1836L33.7886 19.5471Z" fill="white"/>
</svg>
