<svg width="45" height="15" viewBox="0 0 45 15" fill="none" xmlns="http://www.w3.org/2000/svg">
<path d="M0.880682 12.1121V4.83933H1.76136V8.07797H5.6392V4.83933H6.51989V12.1121H5.6392V8.85922H1.76136V12.1121H0.880682ZM9.7745 12.2399C9.42886 12.2399 9.11518 12.1748 8.83345 12.0446C8.55173 11.912 8.32801 11.7214 8.16229 11.4729C7.99657 11.2219 7.91371 10.9189 7.91371 10.5638C7.91371 10.2513 7.97526 9.99795 8.09837 9.80382C8.22147 9.60733 8.38601 9.45344 8.59197 9.34217C8.79794 9.23091 9.02521 9.14805 9.27379 9.09359C9.52474 9.03678 9.77687 8.9918 10.0302 8.95865C10.3616 8.91604 10.6303 8.88408 10.8363 8.86277C11.0446 8.8391 11.1961 8.80003 11.2908 8.74558C11.3879 8.69113 11.4364 8.59644 11.4364 8.46149V8.43308C11.4364 8.0827 11.3406 7.81045 11.1488 7.61632C10.9594 7.42219 10.6718 7.32513 10.2859 7.32513C9.88577 7.32513 9.57209 7.41272 9.34482 7.58791C9.11754 7.7631 8.95774 7.95013 8.86541 8.14899L8.06996 7.8649C8.212 7.53346 8.4014 7.27541 8.63814 7.09075C8.87725 6.90373 9.13767 6.77352 9.41939 6.70013C9.70348 6.62437 9.98284 6.58649 10.2575 6.58649C10.4326 6.58649 10.6339 6.6078 10.8612 6.65041C11.0908 6.69066 11.3121 6.7747 11.5252 6.90254C11.7406 7.03038 11.9194 7.22333 12.0614 7.48138C12.2035 7.73943 12.2745 8.08507 12.2745 8.51831V12.1121H11.4364V11.3734H11.3938C11.337 11.4918 11.2423 11.6185 11.1097 11.7534C10.9772 11.8883 10.8008 12.0032 10.5806 12.0979C10.3604 12.1926 10.0917 12.2399 9.7745 12.2399ZM9.90234 11.4871C10.2338 11.4871 10.5131 11.422 10.7404 11.2917C10.9701 11.1615 11.1429 10.9935 11.2589 10.7875C11.3772 10.5815 11.4364 10.3649 11.4364 10.1376V9.37058C11.4009 9.4132 11.3228 9.45226 11.2021 9.48777C11.0837 9.52091 10.9464 9.55051 10.7901 9.57655C10.6362 9.60022 10.4859 9.62153 10.3391 9.64047C10.1947 9.65704 10.0775 9.67125 9.98757 9.68308C9.76977 9.71149 9.56617 9.75766 9.37678 9.82158C9.18975 9.88313 9.03823 9.97664 8.92223 10.1021C8.80859 10.2252 8.75178 10.3933 8.75178 10.6064C8.75178 10.8976 8.85949 11.1177 9.07493 11.2669C9.29273 11.4137 9.56854 11.4871 9.90234 11.4871ZM13.8042 12.1121V6.65751H16.0343C16.6214 6.65751 17.0878 6.79009 17.4334 7.05524C17.7791 7.32039 17.9519 7.67077 17.9519 8.10638C17.9519 8.43782 17.8536 8.69468 17.6571 8.87698C17.4606 9.0569 17.2085 9.17882 16.9007 9.24274C17.102 9.27115 17.2973 9.34217 17.4867 9.45581C17.6784 9.56945 17.8371 9.7257 17.9625 9.92456C18.088 10.1211 18.1507 10.3625 18.1507 10.649C18.1507 10.9283 18.0797 11.1781 17.9377 11.3983C17.7956 11.6185 17.592 11.7925 17.3269 11.9203C17.0617 12.0481 16.7445 12.1121 16.3752 12.1121H13.8042ZM14.5996 11.345H16.3752C16.664 11.345 16.8901 11.2764 17.0534 11.139C17.2168 11.0017 17.2985 10.8147 17.2985 10.578C17.2985 10.2962 17.2168 10.0749 17.0534 9.91391C16.8901 9.75055 16.664 9.66888 16.3752 9.66888H14.5996V11.345ZM14.5996 8.94445H16.0343C16.2592 8.94445 16.4521 8.91367 16.6131 8.85212C16.7741 8.7882 16.8972 8.69823 16.9824 8.58223C17.07 8.46386 17.1138 8.32418 17.1138 8.1632C17.1138 7.93356 17.0179 7.75363 16.8262 7.62342C16.6344 7.49085 16.3704 7.42456 16.0343 7.42456H14.5996V8.94445ZM21.7063 12.2257C21.1808 12.2257 20.7274 12.1097 20.3462 11.8777C19.9674 11.6433 19.6751 11.3166 19.4691 10.8976C19.2655 10.4762 19.1637 9.98611 19.1637 9.4274C19.1637 8.86869 19.2655 8.37626 19.4691 7.95013C19.6751 7.52162 19.9615 7.18782 20.3285 6.94871C20.6978 6.70723 21.1287 6.58649 21.6211 6.58649C21.9052 6.58649 22.1857 6.63384 22.4627 6.72854C22.7397 6.82323 22.9918 6.97712 23.2191 7.19019C23.4464 7.40089 23.6275 7.68024 23.7624 8.02825C23.8974 8.37626 23.9648 8.80477 23.9648 9.31376V9.66888H19.7603V8.94445H23.1126C23.1126 8.63668 23.051 8.36206 22.9279 8.12058C22.8072 7.87911 22.6344 7.68853 22.4094 7.54885C22.1869 7.40917 21.9241 7.33933 21.6211 7.33933C21.2873 7.33933 20.9985 7.42219 20.7546 7.58791C20.5131 7.75127 20.3273 7.96433 20.1971 8.22712C20.0669 8.4899 20.0018 8.77162 20.0018 9.07229V9.55524C20.0018 9.96717 20.0728 10.3164 20.2148 10.6028C20.3593 10.8869 20.5593 11.1035 20.815 11.2527C21.0707 11.3995 21.3678 11.4729 21.7063 11.4729C21.9265 11.4729 22.1254 11.4421 22.3029 11.3805C22.4828 11.3166 22.6379 11.2219 22.7681 11.0964C22.8983 10.9686 22.9989 10.81 23.07 10.6206L23.8796 10.8479C23.7944 11.1225 23.6512 11.364 23.4499 11.5723C23.2487 11.7783 23.0001 11.9392 22.7042 12.0552C22.4083 12.1689 22.0756 12.2257 21.7063 12.2257ZM25.2397 14.1575V6.65751H26.0494V7.52399H26.1488C26.2103 7.4293 26.2956 7.30856 26.4045 7.16178C26.5157 7.01263 26.6744 6.88005 26.8803 6.76405C27.0887 6.64568 27.3704 6.58649 27.7255 6.58649C28.1848 6.58649 28.5896 6.70131 28.94 6.93095C29.2904 7.16059 29.5638 7.48611 29.7603 7.90751C29.9568 8.32892 30.055 8.82608 30.055 9.39899C30.055 9.97664 29.9568 10.4774 29.7603 10.9011C29.5638 11.3225 29.2915 11.6492 28.9435 11.8812C28.5955 12.1109 28.1942 12.2257 27.7397 12.2257C27.3893 12.2257 27.1088 12.1677 26.8981 12.0517C26.6874 11.9333 26.5252 11.7996 26.4116 11.6504C26.2979 11.4989 26.2103 11.3734 26.1488 11.274H26.0778V14.1575H25.2397ZM26.0636 9.38479C26.0636 9.79672 26.1239 10.1601 26.2447 10.475C26.3654 10.7875 26.5418 11.0325 26.7738 11.2101C27.0058 11.3853 27.2899 11.4729 27.6261 11.4729C27.9764 11.4729 28.2688 11.3805 28.5032 11.1959C28.7399 11.0088 28.9175 10.7579 29.0359 10.443C29.1566 10.1258 29.217 9.77305 29.217 9.38479C29.217 9.00127 29.1578 8.65562 29.0394 8.34786C28.9234 8.03772 28.747 7.79269 28.5103 7.61277C28.2759 7.43048 27.9812 7.33933 27.6261 7.33933C27.2852 7.33933 26.9987 7.42574 26.7667 7.59857C26.5347 7.76902 26.3595 8.00813 26.2411 8.3159C26.1228 8.62129 26.0636 8.97759 26.0636 9.38479ZM31.7338 6.65751L33.0407 8.88763L34.3475 6.65751H35.3134L33.552 9.38479L35.3134 12.1121H34.3475L33.0407 9.99558L31.7338 12.1121H30.7679L32.5009 9.38479L30.7679 6.65751H31.7338Z" fill="white"/>
<path d="M40.789 0.656459C40.5992 0.466664 40.2915 0.466664 40.1017 0.656459L37.0088 3.74934C36.819 3.93914 36.819 4.24686 37.0088 4.43665C37.1986 4.62645 37.5063 4.62645 37.6961 4.43665L40.4453 1.68742L43.1945 4.43665C43.3843 4.62645 43.6921 4.62645 43.8819 4.43665C44.0716 4.24686 44.0716 3.93914 43.8819 3.74934L40.789 0.656459ZM40.9313 12.0161L40.9313 1.00011L39.9593 1.00011L39.9593 12.0161L40.9313 12.0161Z" fill="white"/>
</svg>
