<svg width="96" height="56" viewBox="0 0 96 56" fill="none" xmlns="http://www.w3.org/2000/svg">
<g clip-path="url(#clip0_41_455)">
<path d="M3.93947 42.6253C5.32459 40.822 6.68063 39.0437 8.0565 37.2813C8.31158 36.9536 8.39485 36.6775 8.2455 36.2666C7.87939 35.2533 7.55162 34.2255 7.2516 33.1897C7.12075 32.7392 6.88681 32.5093 6.43083 32.3798C4.29764 31.7734 2.17502 31.1313 0.000861524 30.4892C0.000861524 28.8787 -0.013677 27.2749 0.0233301 25.6736C0.0272951 25.5151 0.319386 25.2839 0.51896 25.2231C2.47505 24.6233 4.43642 24.0394 6.40572 23.4832C6.85509 23.3563 7.11282 23.1529 7.24631 22.6918C7.53311 21.6996 7.85693 20.718 8.20717 19.7456C8.38163 19.2621 8.32348 18.908 7.99174 18.4918C6.6238 16.7704 5.29948 15.0133 3.93154 13.235C4.88447 11.9231 5.8189 10.6191 6.7824 9.3389C6.86831 9.22396 7.17097 9.183 7.33486 9.23189C7.96662 9.42213 8.58121 9.66655 9.20504 9.88322C9.78261 10.084 12.2581 10.9322 13.1595 11.3021C13.671 11.5109 14.0371 11.466 14.4706 11.1225C15.253 10.5028 16.0831 9.94267 16.9065 9.37589C17.3202 9.09052 17.4933 8.75759 17.4695 8.22649C17.3823 6.26986 17.3532 4.31059 17.3043 2.35132C17.2977 2.11087 17.3043 1.87043 17.3043 1.57977C18.8996 1.06056 20.4869 0.543988 22.1549 0.000994356C22.8448 1.00111 23.5413 2.0065 24.2352 3.01454C24.8339 3.88518 25.4035 4.77828 26.0419 5.61721C26.2203 5.85238 26.5944 6.05584 26.8865 6.06641C28.0244 6.11132 29.165 6.09679 30.303 6.04659C30.5541 6.03602 30.8793 5.84577 31.026 5.63703C32.3291 3.78477 33.6006 1.91006 34.9117 -0.00164795C36.4475 0.496427 37.9754 0.977326 39.4847 1.50579C39.6354 1.55863 39.7676 1.91006 39.7649 2.12012C39.7345 4.16659 39.6909 6.21438 39.6063 8.25952C39.5852 8.76684 39.7451 9.06278 40.1575 9.33758C40.998 9.90039 41.8201 10.4962 42.6158 11.1211C43.0202 11.4395 43.3625 11.5043 43.8621 11.3153C45.694 10.6231 47.547 9.98891 49.392 9.33362C49.618 9.25303 49.8467 9.18036 50.0938 9.09581C51.1168 10.4791 52.1253 11.8412 53.143 13.2165C51.7512 15.0317 50.3992 16.8153 49.022 18.579C48.7642 18.9093 48.6876 19.1881 48.833 19.595C49.2017 20.6308 49.5308 21.6811 49.8507 22.7327C49.9709 23.1278 50.1533 23.3814 50.5921 23.4541C50.7798 23.4858 55.0105 24.7356 56.7736 25.2773C56.9031 25.3169 57.0551 25.5508 57.0578 25.6961C57.0816 26.9948 57.0842 28.2935 57.0723 29.5908C57.0657 30.2726 56.2978 30.7693 55.3369 31.0124C53.628 31.4457 51.9482 31.9927 50.263 32.5132C50.1295 32.5542 49.9947 32.7392 49.9458 32.8858C49.5427 34.0735 49.1409 35.2612 48.7907 36.4648C48.7285 36.6788 48.8501 37.0131 48.9982 37.2086C50.3635 39.016 51.7526 40.8048 53.1443 42.6108C52.1279 44.0126 51.1366 45.3799 50.1269 46.7724C48.0043 46.0167 45.9094 45.2848 43.8264 44.5199C43.3863 44.3587 43.0599 44.3851 42.6832 44.6771C41.832 45.339 40.9557 45.9705 40.0663 46.5809C39.7134 46.8226 39.5957 47.0869 39.6116 47.5096C39.6856 49.5336 39.7253 51.559 39.7755 53.583C39.7808 53.801 39.7755 54.019 39.7755 54.2713C38.2265 54.7733 36.7052 55.2807 35.1708 55.7431C35.0333 55.7853 34.7478 55.5911 34.6368 55.4326C33.4394 53.7177 32.2525 51.995 31.0894 50.2576C30.8528 49.9036 30.6004 49.7675 30.1761 49.7794C29.0752 49.8098 27.9729 49.8071 26.8719 49.7794C26.4754 49.7701 26.2322 49.893 26.0089 50.2246C24.855 51.9421 23.6655 53.6358 22.5157 55.356C22.2712 55.7219 22.0716 55.8527 21.6196 55.6902C20.3983 55.2516 19.1626 54.85 17.9176 54.4853C17.4365 54.344 17.2633 54.1458 17.2858 53.6239C17.3717 51.5788 17.3902 49.531 17.4695 47.4845C17.4867 47.0472 17.3307 46.8002 16.9924 46.5663C16.0883 45.9388 15.1936 45.2954 14.3186 44.6282C14.0014 44.3864 13.7331 44.3481 13.3564 44.4868C11.3937 45.2069 9.41783 45.8886 7.45513 46.6073C7.08506 46.7434 6.87624 46.6998 6.64362 46.3668C5.76206 45.1078 4.84746 43.8712 3.93814 42.6161L3.93947 42.6253ZM11.0514 29.0584C11.514 34.063 13.5732 38.2589 17.4893 41.4535C21.2614 44.5291 25.6124 45.8252 30.4563 45.3112C43.1048 43.969 50.2181 29.6437 43.4656 18.8486C39.6883 12.8109 34.0354 10.0153 26.8495 10.5345C26.4939 10.5596 26.4265 10.5359 25.7313 10.6614C21.6235 11.3748 18.1594 13.2786 15.3998 16.4163C12.6255 19.5699 11.2127 23.285 11.0356 27.4678C11.0038 28.3992 11.0395 28.929 11.0514 29.0597V29.0584ZM1.65428 26.6222C3.76897 26.0132 5.79246 25.42 7.82388 24.8545C8.22435 24.7435 8.45036 24.5586 8.58121 24.1503C9.10988 22.4963 9.69142 20.858 10.2042 19.2C10.2835 18.945 10.1897 18.546 10.0271 18.3214C9.13631 17.0927 8.19395 15.8997 7.27803 14.6882C6.90928 14.1994 6.28677 13.6961 6.28413 13.1953C6.28016 12.6933 6.93175 12.2032 7.24367 11.6773C7.50139 11.2414 7.78291 11.2334 8.22039 11.3959C10.0337 12.071 11.855 12.725 13.6869 13.3446C13.9406 13.4305 14.3424 13.3724 14.5618 13.2191C16.0077 12.215 17.4351 11.1819 18.8361 10.1157C19.0661 9.94003 19.2604 9.55557 19.2604 9.26756C19.263 7.74955 19.193 6.23155 19.1573 4.71355C19.1427 4.10317 18.9233 3.31312 19.2181 2.92999C19.5432 2.50722 20.3627 2.4808 20.9495 2.24035C21.3262 2.08577 21.535 2.17033 21.7597 2.50458C22.8448 4.10846 23.9642 5.68856 25.0454 7.29508C25.2912 7.66104 25.541 7.82222 26.0009 7.81165C27.6293 7.77466 29.2602 7.75748 30.8885 7.8024C31.4793 7.81825 31.7965 7.60423 32.1058 7.1339C33.2385 5.40715 34.4121 3.70815 35.5844 1.98008C36.273 2.19411 36.9167 2.41606 37.5709 2.59177C37.9754 2.70011 38.1234 2.88771 38.1088 3.32898C38.0441 5.26447 38.0335 7.20128 37.9767 9.13544C37.9648 9.55425 38.0798 9.8198 38.434 10.0642C39.5944 10.8595 40.7707 11.643 41.8598 12.5295C42.6092 13.1399 43.2779 13.3354 44.1635 12.8585C44.6723 12.585 48.151 11.3655 48.3228 11.0828C47.6686 11.2955 47.0143 11.536 46.3429 11.713C46.1394 11.7672 43.0004 12.8585 42.4255 12.4502C41.2941 11.647 40.1826 10.8173 39.0274 10.0497C38.5093 9.70486 38.3256 9.33362 38.3653 8.69946C38.4842 6.78908 38.5106 4.8734 38.5979 2.96038C38.6164 2.56271 38.4961 2.3685 38.1088 2.2562C37.3687 2.0435 36.6312 1.81494 35.9162 1.53221C35.5025 1.36971 35.2924 1.47012 35.0558 1.8189C33.931 3.47563 32.7917 5.12178 31.6247 6.74944C31.478 6.95422 31.1436 7.12993 30.8925 7.13522C29.3303 7.16428 27.768 7.16296 26.2071 7.11672C25.9415 7.1088 25.5939 6.89873 25.4366 6.67546C24.2841 5.03855 23.1607 3.37918 22.0518 1.71189C21.8152 1.3565 21.5998 1.2693 21.19 1.42255C20.4301 1.70924 19.6516 1.95894 18.8665 2.16901C18.4304 2.28527 18.3365 2.51251 18.3497 2.92471C18.4171 4.92625 18.474 6.9278 18.4925 8.93067C18.4951 9.20282 18.3259 9.5701 18.1145 9.73393C16.9104 10.6587 15.6786 11.5479 14.4283 12.4119C14.2235 12.5533 13.8521 12.6088 13.6168 12.5295C11.6779 11.8795 9.75618 11.1806 7.82124 10.5187C7.6362 10.4553 7.28992 10.4632 7.20005 10.5781C6.52732 11.4395 5.89952 12.3366 5.26115 13.2191C6.64098 14.9987 7.98513 16.7136 9.29756 18.4522C9.45087 18.6557 9.54075 19.0229 9.4707 19.2594C9.02529 20.7695 8.54288 22.2703 8.03271 23.7606C7.95737 23.9826 7.70493 24.223 7.48157 24.301C6.56697 24.618 5.6365 24.8862 4.7034 25.1439C4.48664 25.2033 2.03228 25.9841 1.58423 26.0898C1.23928 26.1717 1.13354 26.3527 1.14411 26.6936C1.1679 27.4849 1.1798 28.2789 1.15469 29.0703C1.14015 29.5023 1.30404 29.6714 1.71905 29.7851C3.65002 30.3122 5.56513 30.8922 7.49478 31.4233C7.88336 31.5303 8.07236 31.7166 8.19395 32.0958C8.67637 33.6045 9.209 35.0961 9.67952 36.6075C9.75486 36.8479 9.69009 37.2205 9.54207 37.4253C8.63936 38.6738 7.69304 39.8892 6.7639 41.1179C6.65948 41.2553 6.57754 41.4086 6.48502 41.5552C7.72211 40.275 8.82572 38.905 9.95047 37.5534C10.2056 37.2469 10.2531 36.9761 10.1302 36.5982C9.59229 34.9468 9.0993 33.2808 8.54684 31.6347C8.46754 31.3969 8.18735 31.1313 7.94548 31.0586C6.16782 30.5302 4.37694 30.0414 2.58739 29.5539C1.6371 29.2949 1.6371 29.3094 1.65296 28.3252C1.66221 27.7782 1.65428 27.2326 1.65428 26.6222ZM35.336 54.9662C36.0351 54.7231 36.6788 54.5078 37.3172 54.2739C37.8511 54.0784 38.5847 54.0031 38.8477 53.6147C39.1054 53.2342 38.8834 52.5274 38.8701 51.9632C38.8649 51.7215 38.8609 51.4797 38.8437 51.2379C38.7855 50.3911 38.7234 49.5442 38.6626 48.696C38.5992 48.6987 38.5358 48.7013 38.4736 48.704C38.4736 50.0832 38.4604 51.4639 38.4829 52.8431C38.4895 53.2183 38.3666 53.3808 38.0058 53.4839C37.0198 53.7627 36.0457 54.085 35.0201 54.4047C35.1377 54.6122 35.2197 54.7575 35.3373 54.9649L35.336 54.9662ZM55.781 29.9357C56.233 30.0057 56.3692 29.7943 56.352 29.3861C56.3282 28.8153 56.3269 28.2446 56.3242 27.6725C56.3198 26.5575 55.774 25.8502 54.6867 25.5508C53.6359 25.2641 52.5839 24.984 51.5318 24.7013C52.687 25.2509 53.8725 25.704 55.0805 26.0792C55.6356 26.251 55.8365 26.4927 55.7969 27.0899C55.7335 28.0306 55.7797 28.9778 55.7797 29.9357H55.781ZM49.4356 45.3839L49.5202 45.6138C49.737 45.5491 50.0463 45.5517 50.1533 45.4064C50.7745 44.5569 51.3666 43.6823 51.9217 42.7878C52.0156 42.6359 51.9667 42.2818 51.8464 42.1299C51.1882 41.3055 50.4864 40.5155 49.7991 39.7135C49.659 39.5497 49.5163 39.3872 49.3748 39.2234L49.2506 39.333C50.0119 40.3926 50.7732 41.4522 51.5318 42.5078C50.8075 43.5013 50.1229 44.4419 49.437 45.3826L49.4356 45.3839ZM24.0977 51.2327C24.0488 51.197 23.9986 51.1613 23.9497 51.1256C23.3298 51.9474 22.6875 52.7533 22.1007 53.5988C21.8059 54.0229 21.5535 54.1564 21.0354 53.9423C20.134 53.5711 19.1903 53.3003 18.2638 52.9871C18.211 53.04 18.1581 53.0915 18.1052 53.1444C18.2361 53.3333 18.3273 53.6358 18.5017 53.6953C19.6 54.0652 20.7169 54.381 21.8641 54.7245C22.6214 53.542 23.3589 52.3887 24.0977 51.2353V51.2327Z" fill="white"/>
<path d="M11.8896 26.9871C12.0641 23.3869 13.325 20.2043 15.6326 17.4576C18.2734 14.3146 21.6767 12.4821 25.7157 11.8083C25.8228 11.7912 25.9325 11.7951 25.9312 11.7951C24.7509 12.2443 23.4306 12.6301 22.2159 13.2299C17.5993 15.5076 14.755 19.2187 13.6818 24.2391C13.2695 26.168 13.6911 27.8828 15.6181 29.015C15.9855 29.1498 16.5618 29.3295 15.7344 29.1432C16.238 29.1432 15.9076 29.1789 16.3371 29.1789C16.7455 32.273 18.054 34.8928 20.3801 36.9684C21.415 37.8932 22.5754 38.6172 23.9169 39.036C23.7795 38.9461 23.6433 38.851 23.5019 38.7665C20.1158 36.7411 18.1663 33.7434 17.487 29.887C17.4116 29.4603 17.4196 29.1115 17.9707 29.0137C18.1756 28.978 18.3632 28.8235 18.5469 28.7046C18.7108 28.5976 18.8589 28.4628 19.1219 28.2554C19.147 28.6412 19.4219 30.1671 19.447 30.5621C18.9435 30.1393 20.5572 33.1516 20.1052 33.1516C20.2176 33.2163 18.0474 29.4352 18.0764 29.4365C19.1853 29.5118 19.1906 29.5105 19.5038 30.5978C20.6233 34.482 24.0108 37.2537 28.2005 37.4242C33.2863 37.6316 37.5157 33.7276 37.9347 28.6596C37.9413 28.5804 37.9505 28.5024 37.9704 28.3056C39.1863 29.8962 40.7327 30.3904 42.5658 30.0693C42.5182 34.371 39.2114 39.0875 34.1692 42.1988C34.3912 42.1156 34.6212 42.0456 34.8366 41.9465C39.9066 39.6094 42.9861 35.7186 43.8928 30.1935C44.0236 29.3942 44.4928 28.9424 45.044 28.295C45.0056 30.0812 44.7215 31.6851 44.1928 33.244C41.8534 40.1339 35.4129 44.6786 28.1384 44.4923C23.5667 44.3748 19.6915 42.5938 16.5182 39.2976C13.9819 36.6632 12.4633 33.5347 11.9623 29.9095" fill="white"/>
<path d="M36.7567 27.9305C36.7831 32.3894 33.1683 36.1533 28.5398 36.1533C24.1214 36.1533 20.344 32.651 20.3282 27.9477C20.3123 23.3831 23.9866 19.701 28.5332 19.7063C33.1035 19.7116 36.7474 23.3553 36.7567 27.9292V27.9305ZM23.4381 29.2252C23.7553 29.7986 23.8531 30.3839 24.2298 30.8925C25.6545 32.8174 28.0362 33.6352 30.2527 32.8597C32.4771 32.0815 33.8688 29.9373 33.7472 27.5724C33.6626 25.9263 32.5273 23.7768 30.2513 22.9986C28.0164 22.235 25.5805 23.0237 24.2628 24.983C23.9469 25.452 23.869 26.1694 23.4592 26.4587C23.0641 26.7375 22.3821 26.6093 21.8005 26.6622V29.2252H23.4381Z" fill="white"/>
<path d="M23.4364 29.2252H21.7988V26.6622C22.379 26.6093 23.061 26.7375 23.4575 26.4587C23.8673 26.1707 23.9452 25.452 24.2611 24.983C25.5788 23.025 28.0147 22.235 30.2496 22.9986C32.5256 23.7768 33.6609 25.925 33.7455 27.5724C33.8671 29.9373 32.4754 32.0815 30.251 32.8597C28.0345 33.6352 25.6542 32.8161 24.2281 30.8925C23.8514 30.3852 23.7536 29.7999 23.4364 29.2252Z" fill="#000A2F"/>
<path d="M53.418 18.1634H3.7334V39.7339H53.418V18.1634Z" fill="#000A2F" stroke="white" stroke-width="0.32805" stroke-miterlimit="10"/>
<path d="M52.7782 18.7644H4.37305V39.13H52.7782V18.7644Z" fill="#070A2A" stroke="white" stroke-width="0.32805" stroke-miterlimit="10"/>
<path d="M14.6953 20.8124H19.5551C20.8715 20.8124 21.8786 21.2193 22.5778 22.0344C23.2757 22.8496 23.6259 24.0307 23.6259 25.5791C23.6259 27.1275 23.277 28.3086 22.5778 29.1237C21.88 29.9389 20.8715 30.3458 19.5551 30.3458H14.6953V20.8137V20.8124ZM15.3046 21.5284V29.6298H19.4613C20.6125 29.6298 21.4874 29.2849 22.0888 28.5966C22.6902 27.9083 22.9902 26.9016 22.9902 25.5791C22.9902 24.2566 22.6875 23.2618 22.0848 22.5682C21.4808 21.8746 20.6032 21.5284 19.4534 21.5284H15.3059H15.3046ZM15.5015 21.7847H19.452C20.5451 21.7847 21.3751 22.1084 21.9421 22.7571C22.5091 23.4058 22.7919 24.3465 22.7919 25.5791C22.7919 26.8117 22.5104 27.7524 21.946 28.4011C21.3817 29.0498 20.553 29.3734 19.46 29.3734H15.5015V21.7847ZM16.1108 22.5008V28.6574H19.46C20.3415 28.6574 21.0103 28.3971 21.465 27.8739C21.9196 27.3521 22.1483 26.5871 22.1483 25.5791C22.1483 24.5711 21.9209 23.8061 21.465 23.2843C21.0103 22.7624 20.3415 22.5008 19.46 22.5008H16.1108Z" fill="white"/>
<path d="M31.7486 27.4958C31.7486 28.0996 31.594 28.5607 31.2847 28.8804C30.9754 29.2001 30.5142 29.36 29.9022 29.36H24.5098V28.6307H29.8679C30.2736 28.6307 30.5829 28.529 30.7957 28.3269C31.0071 28.1247 31.1129 27.8301 31.1129 27.443C31.1129 27.0559 31.0071 26.7745 30.7957 26.5724C30.5842 26.3702 30.2749 26.2685 29.8679 26.2685H27.1373C26.2901 26.2685 25.6398 26.032 25.1878 25.559C24.7358 25.0861 24.5098 24.4136 24.5098 23.5403C24.5098 22.667 24.7358 21.9946 25.1878 21.5216C25.6398 21.0486 26.2901 20.8121 27.1373 20.8121H32.4954V21.5414H27.1796C26.5266 21.5414 26.0244 21.7145 25.6728 22.0619C25.3213 22.4081 25.1442 22.9154 25.1442 23.5813C25.1442 24.2471 25.3213 24.7624 25.6768 25.127C26.0323 25.4917 26.5319 25.674 27.1796 25.674H29.9022C31.1327 25.674 31.7486 26.2817 31.7486 27.4972V27.4958ZM31.9165 29.6229C31.4671 30.1051 30.8155 30.3456 29.963 30.3456H24.5098V29.6163H29.9022C30.5657 29.6163 31.0745 29.4313 31.4261 29.0627C31.7777 28.6941 31.9548 28.171 31.9548 27.4958C31.9548 26.8207 31.779 26.3015 31.4261 25.9369C31.0745 25.5722 30.5657 25.3899 29.9022 25.3899H27.1796C26.5901 25.3899 26.1368 25.2354 25.8182 24.9236C25.501 24.6131 25.3411 24.1652 25.3411 23.5799C25.3411 22.9947 25.4997 22.5521 25.8182 22.2495C26.1354 21.9483 26.5901 21.7977 27.1796 21.7977H32.4954V22.527H27.2311C26.3892 22.527 25.9689 22.8956 25.9689 23.6341C25.9689 24.3726 26.3892 24.7412 27.2311 24.7412H29.9617C30.8089 24.7412 31.4592 24.9817 31.9112 25.4639C32.3632 25.9461 32.5892 26.6411 32.5892 27.55C32.5892 28.459 32.3645 29.1407 31.9151 29.6229H31.9165Z" fill="white"/>
<path d="M37.5449 30.3443C36.251 30.3443 35.2505 29.9308 34.5434 29.1024C33.8363 28.2741 33.4834 27.0996 33.4834 25.5789C33.4834 24.0583 33.8363 22.8825 34.5434 22.0554C35.2505 21.2271 36.251 20.8135 37.5449 20.8135H42.5766V21.5296H37.648C36.5259 21.5296 35.6576 21.8824 35.0417 22.5892C34.4258 23.296 34.1191 24.2921 34.1191 25.5803C34.1191 26.8684 34.4258 27.8751 35.0377 28.578C35.6496 29.2795 36.518 29.6309 37.6401 29.6309H42.0188V25.5538H37.6401V24.9051H42.5779V30.347H37.5462L37.5449 30.3443ZM42.5766 21.7846V22.5007H37.6388C36.7797 22.5007 36.1175 22.7702 35.651 23.3105C35.1844 23.8509 34.9518 24.6119 34.9518 25.5921C34.9518 26.5724 35.1844 27.3334 35.651 27.8738C36.1175 28.4141 36.7797 28.6836 37.6388 28.6836H41.2536V26.4694H37.6388V25.8207H41.8206V29.372H37.6388C36.5801 29.372 35.7607 29.0417 35.1831 28.3798C34.6042 27.7179 34.3161 26.7838 34.3161 25.5776C34.3161 24.3714 34.6081 23.4492 35.1923 22.7821C35.7765 22.1162 36.5946 21.7833 37.648 21.7833H42.5766V21.7846Z" fill="white"/>
<path d="M8.84082 32.6923C9.10119 32.6487 9.44351 32.6117 9.87834 32.6117C10.4123 32.6117 10.8035 32.7359 11.052 32.9592C11.282 33.1573 11.4181 33.4625 11.4181 33.8351C11.4181 34.2076 11.3058 34.5115 11.0956 34.7295C10.8101 35.0334 10.3436 35.1893 9.81622 35.1893C9.65497 35.1893 9.50563 35.1827 9.38139 35.1523V36.8288H8.84082V32.6936V32.6923ZM9.38139 34.7097C9.49902 34.7414 9.64837 34.7533 9.82812 34.7533C10.4797 34.7533 10.8775 34.4362 10.8775 33.8589C10.8775 33.2815 10.4863 33.0397 9.89023 33.0397C9.65365 33.0397 9.47391 33.0582 9.38139 33.0833V34.7097Z" fill="white"/>
<path d="M14.3121 34.8653H12.6851V36.374H14.4984V36.8272H12.1445V32.6418H14.4059V33.0949H12.6851V34.4174H14.3121V34.864V34.8653Z" fill="white"/>
<path d="M18.7294 34.9894C18.699 34.4054 18.6607 33.7039 18.6673 33.1821H18.6488C18.506 33.6722 18.3316 34.1941 18.1214 34.7714L17.3826 36.802H16.9729L16.2962 34.8084C16.0979 34.2192 15.9301 33.6788 15.8111 33.1821H15.7992C15.7873 33.7039 15.7556 34.4054 15.7186 35.0317L15.6063 36.8258H15.0908L15.3829 32.6404H16.0728L16.7865 34.6644C16.961 35.1796 17.1037 35.6394 17.2095 36.0741H17.228C17.3337 35.6513 17.4831 35.1928 17.6694 34.6644L18.4148 32.6404H19.1048L19.3651 36.8258H18.8365L18.7307 34.9881L18.7294 34.9894Z" fill="white"/>
<path d="M23.7735 34.6923C23.7735 36.1324 22.8973 36.896 21.8293 36.896C20.7614 36.896 19.9473 36.0386 19.9473 34.7729C19.9473 33.4438 20.7733 32.5745 21.8915 32.5745C23.0096 32.5745 23.7735 33.4504 23.7735 34.6923ZM20.5248 34.761C20.5248 35.6555 21.0099 36.4561 21.8597 36.4561C22.7096 36.4561 23.2012 35.6673 23.2012 34.7174C23.2012 33.8851 22.7664 33.0158 21.8663 33.0158C20.9663 33.0158 20.5248 33.8415 20.5248 34.761Z" fill="white"/>
<path d="M25.0152 32.6431V34.3937H27.04V32.6431H27.5872V36.8285H27.04V34.8666H25.0152V36.8285H24.4746V32.6431H25.0152Z" fill="white"/>
<path d="M29.3197 33.1015H28.0469V32.6418H31.1462V33.1015H29.8668V36.8272H29.321V33.1015H29.3197Z" fill="white"/>
<path d="M33.6062 35.5113L33.1714 36.8272H32.6123L34.0344 32.6418H34.686L36.1148 36.8272H35.5372L35.0905 35.5113H33.6062ZM34.9794 35.0886L34.5697 33.8837C34.4772 33.6102 34.4151 33.3618 34.353 33.12H34.3411C34.2789 33.3684 34.2102 33.6234 34.1296 33.8771L33.7199 35.0872H34.9808L34.9794 35.0886Z" fill="white"/>
<path d="M37.2641 32.6434V34.4996H37.4319L38.8673 32.6434H39.5202L37.9368 34.5617C38.6267 34.6555 38.8937 35.0769 39.1105 35.6424C39.2651 36.0704 39.3841 36.4562 39.5704 36.8288H38.9862C38.8369 36.5434 38.7192 36.1709 38.6069 35.8419C38.4139 35.2896 38.147 34.9105 37.4399 34.9105H37.2654V36.8288H36.7314V32.6434H37.2654H37.2641Z" fill="white"/>
<path d="M43.122 32.6434V36.8288H42.5814V33.0965H40.6372V36.8288H40.0967V32.6434H43.122Z" fill="white"/>
<path d="M47.0927 32.6431V36.8285H46.5521V33.0963H44.6079V36.8285H44.0674V32.6431H47.0927Z" fill="white"/>
</g>
<path d="M54.7215 47.7046C55.3265 47.0696 55.9188 46.4436 56.5198 45.823C56.6312 45.7077 56.6675 45.6105 56.6023 45.4658C56.4424 45.109 56.2992 44.7472 56.1682 44.3825C56.111 44.2239 56.0089 44.1429 55.8097 44.0973C54.878 43.8838 53.9509 43.6578 53.0012 43.4317C53.0012 42.8647 52.9949 42.3 53.011 41.7362C53.0128 41.6804 53.1404 41.599 53.2275 41.5776C54.0819 41.3664 54.9386 41.1609 55.7987 40.965C55.995 40.9204 56.1076 40.8487 56.1659 40.6864C56.2912 40.3371 56.4326 39.9915 56.5856 39.6491C56.6618 39.4789 56.6364 39.3542 56.4915 39.2077C55.894 38.6016 55.3155 37.983 54.7181 37.3569C55.1343 36.895 55.5424 36.4359 55.9633 35.9851C56.0008 35.9447 56.133 35.9303 56.2046 35.9475C56.4805 36.0144 56.7489 36.1005 57.0214 36.1768C57.2737 36.2475 58.3549 36.5461 58.7486 36.6764C58.972 36.7498 59.1319 36.734 59.3213 36.6131C59.663 36.3949 60.0256 36.1977 60.3852 35.9982C60.5659 35.8977 60.6415 35.7805 60.6311 35.5935C60.593 34.9046 60.5803 34.2148 60.559 33.525C60.5561 33.4403 60.559 33.3556 60.559 33.2533C61.2558 33.0705 61.9491 32.8886 62.6776 32.6975C62.9789 33.0496 63.2832 33.4036 63.5862 33.7585C63.8478 34.065 64.0966 34.3794 64.3754 34.6748C64.4533 34.7576 64.6167 34.8292 64.7443 34.833C65.2413 34.8488 65.7395 34.8437 66.2365 34.826C66.3462 34.8223 66.4882 34.7553 66.5523 34.6818C67.1215 34.0297 67.6769 33.3696 68.2495 32.6965C68.9203 32.8719 69.5877 33.0412 70.2469 33.2273C70.3127 33.2459 70.3704 33.3696 70.3693 33.4436C70.356 34.1641 70.337 34.8851 70.3 35.6051C70.2908 35.7837 70.3606 35.8879 70.5407 35.9847C70.9079 36.1828 71.267 36.3926 71.6145 36.6126C71.7911 36.7247 71.9407 36.7475 72.1589 36.681C72.959 36.4373 73.7683 36.214 74.5742 35.9833C74.6729 35.9549 74.7728 35.9293 74.8807 35.8996C75.3276 36.3866 75.768 36.8661 76.2125 37.3504C75.6047 37.9895 75.0141 38.6174 74.4126 39.2384C74.3 39.3547 74.2665 39.4528 74.33 39.5961C74.4911 39.9608 74.6348 40.3306 74.7745 40.7008C74.8271 40.8399 74.9067 40.9292 75.0984 40.9548C75.1804 40.966 77.0282 41.406 77.7983 41.5967C77.8549 41.6107 77.9213 41.693 77.9224 41.7442C77.9328 42.2014 77.934 42.6586 77.9288 43.1154C77.9259 43.3554 77.5905 43.5303 77.1708 43.6159C76.4244 43.7685 75.6907 43.9611 74.9546 44.1443C74.8963 44.1587 74.8374 44.2239 74.8161 44.2755C74.64 44.6937 74.4645 45.1118 74.3115 45.5356C74.2844 45.6109 74.3375 45.7286 74.4022 45.7975C74.9985 46.4338 75.6052 47.0636 76.2131 47.6995C75.7692 48.193 75.3362 48.6744 74.8952 49.1647C73.9681 48.8986 73.0531 48.6409 72.1433 48.3716C71.951 48.3149 71.8085 48.3242 71.6439 48.427C71.2722 48.66 70.8894 48.8823 70.5009 49.0972C70.3468 49.1824 70.2954 49.2754 70.3023 49.4242C70.3347 50.1368 70.352 50.8499 70.3739 51.5625C70.3762 51.6393 70.3739 51.716 70.3739 51.8049C69.6973 51.9816 69.0329 52.1602 68.3627 52.323C68.3026 52.3379 68.1779 52.2695 68.1294 52.2137C67.6064 51.61 67.088 51.0034 66.58 50.3917C66.4767 50.2671 66.3664 50.2192 66.1811 50.2234C65.7002 50.2341 65.2188 50.2331 64.7379 50.2234C64.5647 50.2201 64.4585 50.2634 64.361 50.3801C63.857 50.9848 63.3374 51.5811 62.8352 52.1868C62.7284 52.3156 62.6412 52.3616 62.4438 52.3044C61.9104 52.15 61.3706 52.0086 60.8268 51.8802C60.6167 51.8304 60.5411 51.7607 60.5509 51.5769C60.5884 50.8569 60.5965 50.1359 60.6311 49.4154C60.6387 49.2614 60.5705 49.1744 60.4227 49.0921C60.0279 48.8712 59.6371 48.6446 59.2549 48.4097C59.1164 48.3246 58.9992 48.3111 58.8347 48.36C57.9774 48.6135 57.1144 48.8535 56.2571 49.1065C56.0955 49.1544 56.0042 49.1391 55.9026 49.0219C55.5176 48.5786 55.1181 48.1432 54.7209 47.7013L54.7215 47.7046ZM57.8279 42.928C58.0299 44.6899 58.9293 46.1673 60.6398 47.292C62.2874 48.3749 64.1878 48.8312 66.3035 48.6502C71.8281 48.1776 74.935 43.134 71.9857 39.3333C70.3358 37.2076 67.8668 36.2233 64.7281 36.4061C64.5728 36.4149 64.5434 36.4066 64.2397 36.4508C62.4455 36.7019 60.9325 37.3722 59.7271 38.4769C58.5154 39.5873 57.8983 40.8953 57.8209 42.3679C57.8071 42.6958 57.8227 42.8824 57.8279 42.9284V42.928ZM53.7234 42.0702C54.6471 41.8558 55.5309 41.6469 56.4182 41.4479C56.5931 41.4088 56.6918 41.3437 56.7489 41.1999C56.9798 40.6176 57.2339 40.0408 57.4578 39.457C57.4925 39.3672 57.4515 39.2268 57.3805 39.1477C56.9914 38.7151 56.5798 38.2951 56.1797 37.8685C56.0187 37.6964 55.7468 37.5192 55.7456 37.3429C55.7439 37.1662 56.0285 36.9936 56.1647 36.8085C56.2773 36.655 56.4003 36.6522 56.5913 36.7094C57.3834 36.9471 58.1789 37.1773 58.979 37.3955C59.0898 37.4257 59.2653 37.4052 59.3611 37.3513C59.9927 36.9978 60.6161 36.634 61.2281 36.2586C61.3285 36.1968 61.4134 36.0614 61.4134 35.96C61.4145 35.4256 61.3839 34.8911 61.3683 34.3567C61.362 34.1418 61.2662 33.8636 61.3949 33.7287C61.5369 33.5799 61.8948 33.5705 62.1511 33.4859C62.3157 33.4315 62.4069 33.4612 62.505 33.5789C62.9789 34.1436 63.4679 34.6999 63.9401 35.2656C64.0475 35.3944 64.1566 35.4511 64.3575 35.4474C65.0687 35.4344 65.7811 35.4284 66.4923 35.4442C66.7503 35.4498 66.8889 35.3744 67.024 35.2088C67.5187 34.6009 68.0313 34.0027 68.5434 33.3943C68.8441 33.4696 69.1253 33.5478 69.411 33.6096C69.5877 33.6478 69.6523 33.7138 69.646 33.8692C69.6177 34.5506 69.6131 35.2325 69.5882 35.9135C69.583 36.061 69.6333 36.1545 69.788 36.2405C70.2948 36.5205 70.8086 36.7964 71.2843 37.1085C71.6116 37.3234 71.9037 37.3922 72.2905 37.2243C72.5127 37.128 74.0321 36.6987 74.1072 36.5991C73.8214 36.674 73.5357 36.7587 73.2424 36.821C73.1535 36.8401 71.7825 37.2243 71.5314 37.0806C71.0372 36.7978 70.5517 36.5056 70.0472 36.2354C69.8209 36.114 69.7406 35.9833 69.758 35.76C69.8099 35.0874 69.8215 34.4129 69.8596 33.7394C69.8676 33.5994 69.8151 33.531 69.646 33.4915C69.3227 33.4166 69.0006 33.3361 68.6883 33.2366C68.5076 33.1794 68.4158 33.2147 68.3124 33.3375C67.8212 33.9208 67.3236 34.5004 66.8138 35.0734C66.7497 35.1455 66.6037 35.2074 66.494 35.2093C65.8117 35.2195 65.1293 35.219 64.4475 35.2028C64.3315 35.2 64.1797 35.126 64.111 35.0474C63.6076 34.4711 63.1169 33.8869 62.6326 33.2998C62.5292 33.1747 62.4351 33.144 62.2562 33.198C61.9243 33.2989 61.5842 33.3868 61.2413 33.4608C61.0508 33.5017 61.0098 33.5817 61.0156 33.7268C61.0451 34.4315 61.0699 35.1362 61.078 35.8414C61.0791 35.9372 61.0052 36.0665 60.9129 36.1242C60.387 36.4498 59.8489 36.7629 59.3028 37.0671C59.2133 37.1168 59.0511 37.1364 58.9484 37.1085C58.1015 36.8796 57.2621 36.6336 56.417 36.4005C56.3362 36.3782 56.1849 36.381 56.1457 36.4214C55.8518 36.7247 55.5776 37.0406 55.2988 37.3513C55.9015 37.9778 56.4886 38.5816 57.0618 39.1937C57.1288 39.2654 57.168 39.3947 57.1374 39.4779C56.9429 40.0096 56.7322 40.538 56.5094 41.0627C56.4765 41.1409 56.3662 41.2255 56.2686 41.253C55.8692 41.3646 55.4628 41.459 55.0552 41.5497C54.9605 41.5707 53.8885 41.8456 53.6928 41.8828C53.5421 41.9116 53.496 41.9753 53.5006 42.0953C53.511 42.374 53.5162 42.6535 53.5052 42.9321C53.4988 43.0842 53.5704 43.1438 53.7517 43.1838C54.5951 43.3694 55.4316 43.5736 56.2744 43.7606C56.4441 43.7983 56.5267 43.8638 56.5798 43.9973C56.7905 44.5285 57.0231 45.0537 57.2287 45.5858C57.2616 45.6705 57.2333 45.8016 57.1686 45.8737C56.7743 46.3133 56.361 46.7413 55.9552 47.1738C55.9096 47.2222 55.8738 47.2762 55.8334 47.3278C56.3737 46.8771 56.8557 46.3947 57.347 45.9189C57.4584 45.811 57.4792 45.7156 57.4255 45.5826C57.1906 45.0011 56.9752 44.4146 56.7339 43.835C56.6993 43.7513 56.5769 43.6578 56.4713 43.6322C55.6948 43.4461 54.9126 43.274 54.131 43.1024C53.7159 43.0112 53.7159 43.0163 53.7228 42.6698C53.7269 42.4772 53.7234 42.2851 53.7234 42.0702ZM68.4348 52.0495C68.7402 51.9639 69.0213 51.8881 69.3002 51.8058C69.5334 51.737 69.8538 51.7104 69.9687 51.5737C70.0812 51.4397 69.9842 51.1909 69.9785 50.9922C69.9762 50.9071 69.9744 50.822 69.9669 50.7369C69.9415 50.4387 69.9144 50.1406 69.8878 49.8419C69.8601 49.8429 69.8324 49.8438 69.8053 49.8447C69.8053 50.3303 69.7995 50.8164 69.8093 51.302C69.8122 51.4341 69.7585 51.4914 69.6009 51.5276C69.1703 51.6258 68.7448 51.7393 68.2969 51.8518C68.3482 51.9249 68.384 51.976 68.4354 52.0491L68.4348 52.0495ZM77.3648 43.2368C77.5622 43.2615 77.6217 43.187 77.6142 43.0433C77.6038 42.8424 77.6032 42.6414 77.602 42.44C77.6001 42.0474 77.3617 41.7984 76.8868 41.693C76.4279 41.592 75.9683 41.4934 75.5088 41.3939C76.0134 41.5874 76.5312 41.7469 77.0588 41.879C77.3013 41.9395 77.389 42.0246 77.3717 42.2349C77.344 42.5661 77.3642 42.8996 77.3642 43.2368H77.3648ZM74.5933 48.6758L74.6302 48.7567C74.7249 48.7339 74.86 48.7349 74.9067 48.6837C75.178 48.3846 75.4367 48.0767 75.6791 47.7618C75.7201 47.7083 75.6987 47.5836 75.6462 47.5301C75.3587 47.2399 75.0522 46.9617 74.752 46.6794C74.6908 46.6217 74.6285 46.5645 74.5667 46.5068L74.5124 46.5454C74.845 46.9185 75.1775 47.2915 75.5088 47.6632C75.1925 48.013 74.8934 48.3442 74.5938 48.6753L74.5933 48.6758ZM63.5262 50.735C63.5049 50.7225 63.4829 50.7099 63.4616 50.6973C63.1908 50.9867 62.9103 51.2704 62.6539 51.5681C62.5252 51.7174 62.4149 51.7644 62.1887 51.689C61.7949 51.5583 61.3828 51.463 60.9781 51.3527C60.955 51.3713 60.9319 51.3895 60.9088 51.4081C60.966 51.4746 61.0058 51.5811 61.082 51.6021C61.5617 51.7323 62.0495 51.8435 62.5506 51.9644C62.8814 51.5481 63.2035 51.142 63.5262 50.736V50.735Z" fill="white"/>
<path d="M58.1943 42.1986C58.2705 40.9311 58.8213 39.8105 59.8292 38.8435C60.9826 37.7369 62.4691 37.0917 64.2333 36.8545C64.28 36.8485 64.3279 36.8499 64.3274 36.8499C63.8119 37.008 63.2352 37.1438 62.7046 37.355C60.6882 38.1569 59.4459 39.4635 58.9771 41.2311C58.797 41.9102 58.9812 42.514 59.8228 42.9126C59.9833 42.9601 60.235 43.0233 59.8736 42.9577C60.0936 42.9577 59.9493 42.9703 60.1369 42.9703C60.3153 44.0597 60.8868 44.9821 61.9028 45.7128C62.3548 46.0384 62.8617 46.2933 63.4476 46.4408C63.3876 46.4092 63.3281 46.3757 63.2663 46.3459C61.7873 45.6328 60.9358 44.5774 60.6391 43.2196C60.6062 43.0694 60.6097 42.9466 60.8504 42.9122C60.9399 42.8996 61.0219 42.8452 61.1021 42.8033C61.1737 42.7656 61.2383 42.7182 61.3532 42.6452C61.3642 42.781 61.4843 43.3182 61.4952 43.4573C61.2753 43.3085 61.9801 44.369 61.7827 44.369C61.8318 44.3918 60.8839 43.0605 60.8966 43.061C61.3809 43.0875 61.3832 43.0871 61.5201 43.4699C62.009 44.8374 63.4886 45.8133 65.3186 45.8733C67.5399 45.9463 69.3872 44.5718 69.5702 42.7875C69.5731 42.7596 69.5772 42.7321 69.5858 42.6628C70.1169 43.2229 70.7923 43.3968 71.593 43.2838C71.5722 44.7983 70.1279 46.4589 67.9256 47.5544C68.0225 47.525 68.123 47.5004 68.2171 47.4655C70.4315 46.6427 71.7766 45.2728 72.1726 43.3275C72.2298 43.0461 72.4347 42.887 72.6754 42.6591C72.6587 43.288 72.5346 43.8527 72.3037 44.4016C71.2819 46.8273 68.4688 48.4274 65.2914 48.3619C63.2946 48.3205 61.602 47.6934 60.216 46.5329C59.1082 45.6054 58.4449 44.5039 58.2261 43.2275" fill="white"/>
<path d="M69.0545 42.5306C69.0661 44.1005 67.4872 45.4257 65.4656 45.4257C63.5357 45.4257 61.8859 44.1926 61.8789 42.5367C61.872 40.9296 63.4768 39.6332 65.4627 39.6351C67.4589 39.6369 69.0505 40.9198 69.0545 42.5302V42.5306ZM63.2373 42.9865C63.3758 43.1883 63.4185 43.3944 63.5831 43.5735C64.2054 44.2512 65.2456 44.5391 66.2137 44.2661C67.1853 43.9921 67.7932 43.2372 67.7401 42.4046C67.7031 41.825 67.2072 41.0682 66.2132 40.7942C65.237 40.5254 64.173 40.8031 63.5975 41.4929C63.4595 41.658 63.4255 41.9106 63.2465 42.0125C63.0739 42.1106 62.776 42.0655 62.522 42.0841V42.9865H63.2373Z" fill="white"/>
<path d="M63.2367 42.9866H62.5215V42.0842C62.7749 42.0656 63.0728 42.1107 63.246 42.0126C63.4249 41.9112 63.459 41.6581 63.597 41.493C64.1725 40.8036 65.2364 40.5255 66.2126 40.7943C67.2067 41.0683 67.7026 41.8246 67.7395 42.4047C67.7926 43.2373 67.1848 43.9922 66.2132 44.2662C65.2451 44.5393 64.2054 44.2509 63.5825 43.5736C63.418 43.395 63.3753 43.1889 63.2367 42.9866Z" fill="#000A2F"/>
<path d="M63.556 28.853C64.3838 28.0145 65.1944 27.1877 66.0167 26.3683C66.1692 26.2159 66.2189 26.0876 66.1297 25.8965C65.9108 25.4254 65.7149 24.9475 65.5356 24.4659C65.4574 24.2564 65.3176 24.1495 65.045 24.0893C63.77 23.8074 62.5014 23.5089 61.2019 23.2103C61.2019 22.4615 61.1932 21.7158 61.2153 20.9713C61.2177 20.8976 61.3923 20.7901 61.5115 20.7618C62.6807 20.483 63.853 20.2115 65.03 19.9529C65.2986 19.8939 65.4527 19.7993 65.5325 19.5849C65.7039 19.1236 65.8974 18.6672 66.1068 18.2151C66.211 17.9903 66.1763 17.8256 65.978 17.6322C65.1604 16.8318 64.3688 16.0148 63.5512 15.188C64.1208 14.578 64.6793 13.9717 65.2552 13.3765C65.3065 13.3231 65.4874 13.304 65.5854 13.3267C65.963 13.4152 66.3303 13.5288 66.7032 13.6296C67.0484 13.723 68.528 14.1173 69.0667 14.2893C69.3725 14.3864 69.5913 14.3655 69.8504 14.2058C70.3181 13.9177 70.8141 13.6572 71.3063 13.3937C71.5536 13.261 71.657 13.1062 71.6428 12.8593C71.5907 11.9496 71.5733 11.0386 71.5441 10.1276C71.5401 10.0158 71.5441 9.90405 71.5441 9.76891C72.4976 9.5275 73.4463 9.28732 74.4432 9.03486C74.8556 9.49986 75.2719 9.96732 75.6866 10.436C76.0445 10.8408 76.385 11.2561 76.7665 11.6461C76.8732 11.7555 77.0967 11.85 77.2713 11.855C77.9515 11.8758 78.6332 11.8691 79.3134 11.8457C79.4635 11.8408 79.6578 11.7524 79.7455 11.6553C80.5244 10.7941 81.2843 9.92248 82.068 9.03363C82.9859 9.26521 83.8991 9.4888 84.8012 9.73451C84.8913 9.75908 84.9703 9.92248 84.9687 10.0201C84.9505 10.9716 84.9245 11.9238 84.8739 12.8746C84.8613 13.1105 84.9569 13.2481 85.2033 13.3759C85.7057 13.6376 86.1971 13.9146 86.6727 14.2052C86.9144 14.3532 87.119 14.3833 87.4176 14.2954C88.5125 13.9736 89.62 13.6787 90.7228 13.374C90.8579 13.3366 90.9945 13.3028 91.1423 13.2635C91.7537 13.9066 92.3564 14.5399 92.9647 15.1794C92.1329 16.0234 91.3247 16.8526 90.5016 17.6727C90.3476 17.8263 90.3017 17.9559 90.3886 18.1451C90.609 18.6267 90.8057 19.115 90.9969 19.604C91.0688 19.7876 91.1778 19.9056 91.4401 19.9393C91.5523 19.9541 94.0809 20.5352 95.1347 20.787C95.2122 20.8055 95.303 20.9142 95.3046 20.9818C95.3188 21.5856 95.3204 22.1894 95.3133 22.7926C95.3093 23.1096 94.8504 23.3405 94.276 23.4536C93.2546 23.6551 92.2506 23.9094 91.2434 24.1514C91.1636 24.1704 91.083 24.2564 91.0538 24.3246C90.8129 24.8768 90.5727 25.4291 90.3634 25.9887C90.3262 26.0882 90.3989 26.2436 90.4874 26.3345C91.3034 27.1748 92.1337 28.0065 92.9655 28.8462C92.358 29.498 91.7655 30.1337 91.162 30.7812C89.8933 30.4298 88.6412 30.0895 87.3963 29.7338C87.1332 29.6589 86.9381 29.6712 86.7129 29.8069C86.2042 30.1147 85.6805 30.4083 85.1488 30.6921C84.9379 30.8045 84.8676 30.9274 84.8771 31.1239C84.9213 32.065 84.945 33.0067 84.975 33.9477C84.9782 34.0491 84.975 34.1504 84.975 34.2678C84.0492 34.5012 83.1399 34.7371 82.2228 34.9521C82.1406 34.9717 81.97 34.8814 81.9036 34.8077C81.1879 34.0104 80.4786 33.2094 79.7834 32.4016C79.642 32.237 79.4911 32.1737 79.2375 32.1792C78.5795 32.1934 77.9207 32.1921 77.2626 32.1792C77.0256 32.1749 76.8803 32.2321 76.7468 32.3863C76.0571 33.1848 75.3462 33.9723 74.6589 34.7721C74.5128 34.9422 74.3935 35.003 74.1233 34.9275C73.3934 34.7235 72.6548 34.5368 71.9106 34.3673C71.6231 34.3015 71.5196 34.2094 71.533 33.9668C71.5844 33.0159 71.5954 32.0638 71.6428 31.1123C71.6531 30.9089 71.5599 30.7941 71.3576 30.6853C70.8173 30.3936 70.2825 30.0944 69.7595 29.7842C69.57 29.6718 69.4096 29.654 69.1845 29.7185C68.0114 30.0533 66.8304 30.3702 65.6573 30.7044C65.4361 30.7677 65.3113 30.7474 65.1722 30.5926C64.6453 30.0072 64.0987 29.4322 63.5552 28.8487L63.556 28.853ZM67.8068 22.5451C68.0832 24.8719 69.314 26.8228 71.6547 28.3081C73.9092 29.7381 76.5098 30.3407 79.405 30.1018C86.9649 29.4777 91.2165 22.8172 87.1806 17.798C84.9229 14.9908 81.5442 13.691 77.2492 13.9324C77.0367 13.9441 76.9964 13.933 76.5809 13.9914C74.1257 14.3231 72.0552 15.2083 70.4057 16.6671C68.7476 18.1334 67.9031 19.8607 67.7973 21.8055C67.7783 22.2385 67.7996 22.4849 67.8068 22.5457V22.5451ZM62.1901 21.4124C63.4541 21.1292 64.6635 20.8534 65.8777 20.5905C66.117 20.5389 66.2521 20.4529 66.3303 20.2631C66.6463 19.494 66.9939 18.7323 67.3004 17.9614C67.3478 17.8428 67.2917 17.6573 67.1945 17.5529C66.6621 16.9816 66.0989 16.427 65.5514 15.8637C65.331 15.6364 64.9589 15.4024 64.9574 15.1696C64.955 14.9361 65.3444 14.7082 65.5309 14.4638C65.6849 14.2611 65.8532 14.2574 66.1147 14.3329C67.1985 14.6468 68.2871 14.9509 69.3819 15.239C69.5336 15.2789 69.7738 15.2519 69.9049 15.1806C70.7691 14.7138 71.6223 14.2334 72.4596 13.7377C72.5971 13.656 72.7132 13.4772 72.7132 13.3433C72.7148 12.6375 72.6729 11.9317 72.6516 11.226C72.6429 10.9422 72.5118 10.5748 72.6879 10.3967C72.8823 10.2001 73.372 10.1878 73.7228 10.076C73.9479 10.0042 74.0727 10.0435 74.207 10.1989C74.8556 10.9446 75.5247 11.6793 76.1709 12.4262C76.3178 12.5964 76.4671 12.6713 76.742 12.6664C77.7153 12.6492 78.6901 12.6412 79.6633 12.6621C80.0164 12.6695 80.206 12.57 80.3909 12.3513C81.0679 11.5484 81.7694 10.7585 82.4701 9.95503C82.8816 10.0545 83.2663 10.1577 83.6574 10.2394C83.8991 10.2898 83.9876 10.377 83.9789 10.5822C83.9402 11.4821 83.9339 12.3826 83.8999 13.2819C83.8928 13.4766 83.9615 13.6001 84.1732 13.7137C84.8668 14.0835 85.5699 14.4478 86.2208 14.86C86.6687 15.1438 87.0684 15.2347 87.5977 15.0129C87.9018 14.8858 89.981 14.3188 90.0837 14.1873C89.6927 14.2862 89.3017 14.398 88.9004 14.4803C88.7787 14.5055 86.9025 15.0129 86.5589 14.8231C85.8827 14.4496 85.2183 14.0639 84.5279 13.707C84.2182 13.5467 84.1084 13.374 84.1321 13.0792C84.2032 12.191 84.219 11.3003 84.2712 10.4108C84.2822 10.2259 84.2103 10.1356 83.9789 10.0834C83.5365 9.98452 83.0957 9.87825 82.6683 9.7468C82.4211 9.67124 82.2955 9.71792 82.1541 9.88009C81.4818 10.6504 80.8009 11.4158 80.1033 12.1725C80.0156 12.2678 79.8158 12.3494 79.6657 12.3519C78.7319 12.3654 77.7982 12.3648 76.8653 12.3433C76.7065 12.3396 76.4987 12.242 76.4047 12.1381C75.7159 11.3771 75.0444 10.6055 74.3816 9.83034C74.2402 9.6651 74.1115 9.62456 73.8666 9.69581C73.4123 9.82911 72.947 9.9452 72.4778 10.0429C72.2171 10.0969 72.161 10.2026 72.1689 10.3942C72.2092 11.3248 72.2432 12.2555 72.2542 13.1867C72.2558 13.3132 72.1547 13.484 72.0283 13.5602C71.3087 13.9902 70.5724 14.4036 69.8251 14.8053C69.7027 14.871 69.4807 14.8968 69.3401 14.86C68.1812 14.5577 67.0326 14.2328 65.8761 13.925C65.7655 13.8956 65.5585 13.8992 65.5048 13.9527C65.1027 14.3532 64.7275 14.7703 64.3459 15.1806C65.1707 16.008 65.974 16.8053 66.7585 17.6137C66.8501 17.7083 66.9038 17.8791 66.862 17.989C66.5957 18.6912 66.3074 19.389 66.0025 20.0819C65.9575 20.1851 65.8066 20.2968 65.6731 20.3331C65.1264 20.4805 64.5703 20.6052 64.0126 20.725C63.883 20.7526 62.4161 21.1157 62.1483 21.1648C61.9421 21.2029 61.8789 21.287 61.8852 21.4455C61.8994 21.8135 61.9065 22.1826 61.8915 22.5506C61.8828 22.7515 61.9808 22.8301 62.2288 22.8829C63.383 23.128 64.5276 23.3977 65.681 23.6446C65.9132 23.6944 66.0262 23.781 66.0989 23.9573C66.3872 24.6588 66.7056 25.3523 66.9868 26.055C67.0318 26.1668 66.9931 26.34 66.9046 26.4352C66.3651 27.0157 65.7995 27.5808 65.2441 28.1521C65.1817 28.216 65.1327 28.2872 65.0774 28.3554C65.8168 27.7602 66.4765 27.1232 67.1487 26.4948C67.3012 26.3523 67.3296 26.2264 67.2562 26.0507C66.9346 25.2829 66.64 24.5083 66.3098 23.7429C66.2624 23.6323 66.0949 23.5089 65.9503 23.4751C64.8878 23.2294 63.8174 23.0021 62.7478 22.7754C62.1799 22.655 62.1799 22.6618 62.1893 22.2041C62.1949 21.9498 62.1901 21.6961 62.1901 21.4124ZM82.3215 34.5909C82.7394 34.4778 83.1241 34.3777 83.5057 34.269C83.8248 34.1781 84.2633 34.1431 84.4205 33.9625C84.5745 33.7856 84.4418 33.4569 84.4339 33.1946C84.4307 33.0822 84.4284 32.9698 84.4181 32.8574C84.3833 32.4637 84.3462 32.0699 84.3099 31.6755C84.272 31.6768 84.234 31.678 84.1969 31.6792C84.1969 32.3205 84.189 32.9624 84.2024 33.6037C84.2064 33.7782 84.1329 33.8537 83.9173 33.9017C83.328 34.0313 82.7457 34.1811 82.1327 34.3298C82.203 34.4262 82.252 34.4938 82.3223 34.5903L82.3215 34.5909ZM94.5415 22.9529C94.8116 22.9855 94.893 22.8872 94.8827 22.6974C94.8685 22.432 94.8677 22.1667 94.8661 21.9007C94.8635 21.3823 94.5373 21.0534 93.8874 20.9142C93.2594 20.7809 92.6306 20.6507 92.0017 20.5192C92.6922 20.7747 93.4008 20.9854 94.1228 21.1599C94.4546 21.2397 94.5747 21.3522 94.551 21.6298C94.513 22.0672 94.5407 22.5076 94.5407 22.9529H94.5415ZM90.7489 30.1356L90.7994 30.2425C90.929 30.2124 91.1138 30.2136 91.1778 30.146C91.5491 29.751 91.903 29.3444 92.2348 28.9285C92.2909 28.8579 92.2616 28.6933 92.1898 28.6226C91.7964 28.2393 91.3769 27.872 90.9661 27.4991C90.8824 27.423 90.7971 27.3474 90.7125 27.2712L90.6383 27.3222C91.0933 27.8149 91.5483 28.3075 92.0017 28.7983C91.5688 29.2602 91.1596 29.6976 90.7497 30.135L90.7489 30.1356ZM75.6045 32.8549C75.5753 32.8384 75.5452 32.8218 75.516 32.8052C75.1455 33.1873 74.7616 33.562 74.4108 33.9551C74.2347 34.1523 74.0838 34.2143 73.7741 34.1148C73.2354 33.9422 72.6714 33.8163 72.1176 33.6707C72.086 33.6953 72.0544 33.7192 72.0228 33.7438C72.101 33.8316 72.1555 33.9723 72.2598 33.9999C72.9162 34.1719 73.5838 34.3187 74.2694 34.4785C74.7221 33.9287 75.1629 33.3924 75.6045 32.8562V32.8549Z" fill="white"/>
<path d="M68.3076 21.582C68.4119 19.9081 69.1655 18.4283 70.5448 17.1512C72.1231 15.6899 74.1573 14.8379 76.5714 14.5246C76.6354 14.5167 76.701 14.5185 76.7002 14.5185C75.9947 14.7273 75.2056 14.9067 74.4796 15.1856C71.7203 16.2446 70.0203 17.9701 69.3788 20.3043C69.1323 21.2011 69.3843 21.9984 70.5361 22.5249C70.7557 22.5875 71.1001 22.6711 70.6056 22.5844C70.9066 22.5844 70.7091 22.601 70.9658 22.601C71.2099 24.0396 71.992 25.2577 73.3823 26.2228C74.0009 26.6527 74.6945 26.9894 75.4963 27.1841C75.4141 27.1423 75.3328 27.0981 75.2482 27.0588C73.2243 26.1171 72.0592 24.7233 71.6531 22.9303C71.6081 22.7319 71.6128 22.5697 71.9422 22.5242C72.0647 22.5077 72.1769 22.4358 72.2867 22.3805C72.3846 22.3308 72.4731 22.2681 72.6303 22.1717C72.6453 22.351 72.8096 23.0605 72.8246 23.2442C72.5236 23.0476 73.4882 24.4481 73.218 24.4481C73.2852 24.4782 71.9881 22.7202 72.0054 22.7208C72.6682 22.7558 72.6714 22.7552 72.8586 23.2608C73.5277 25.0667 75.5524 26.3554 78.0565 26.4347C81.0963 26.5311 83.6242 24.716 83.8746 22.3596C83.8786 22.3228 83.8841 22.2865 83.896 22.195C84.6227 22.9346 85.547 23.1643 86.6427 23.015C86.6142 25.0151 84.6377 27.208 81.624 28.6546C81.7567 28.6159 81.8942 28.5834 82.023 28.5373C85.0532 27.4507 86.8939 25.6417 87.4358 23.0728C87.514 22.7012 87.7944 22.4911 88.1238 22.1901C88.1009 23.0206 87.9311 23.7663 87.6151 24.4911C86.2169 27.6945 82.3674 29.8076 78.0194 29.721C75.2869 29.6663 72.9708 28.8383 71.0741 27.3057C69.5581 26.0809 68.6505 24.6263 68.3511 22.9407" fill="white"/>
<path d="M83.1708 22.0206C83.1866 24.0938 81.0261 25.8438 78.2596 25.8438C75.6188 25.8438 73.3611 24.2154 73.3516 22.0286C73.3421 19.9063 75.5382 18.1943 78.2557 18.1968C80.9874 18.1992 83.1653 19.8934 83.1708 22.02V22.0206ZM75.2104 22.6226C75.4 22.8892 75.4584 23.1613 75.6836 23.3978C76.5351 24.2928 77.9587 24.673 79.2834 24.3124C80.6129 23.9506 81.4448 22.9537 81.3721 21.8541C81.3215 21.0888 80.643 20.0893 79.2826 19.7275C77.9468 19.3725 76.4909 19.7392 75.7033 20.6502C75.5145 20.8682 75.4679 21.2018 75.223 21.3363C74.9868 21.4659 74.5792 21.4063 74.2316 21.4309V22.6226H75.2104Z" fill="white"/>
<path d="M75.2092 22.6225H74.2305V21.4308C74.5773 21.4062 74.9849 21.4658 75.2219 21.3362C75.4668 21.2023 75.5134 20.8681 75.7022 20.6501C76.4898 19.7397 77.9457 19.3724 79.2815 19.7274C80.6418 20.0892 81.3204 21.088 81.3709 21.854C81.4436 22.9536 80.6118 23.9505 79.2823 24.3123C77.9575 24.6729 76.5348 24.292 75.6824 23.3977C75.4573 23.1618 75.3988 22.8897 75.2092 22.6225Z" fill="#000A2F"/>
<defs>
<clipPath id="clip0_41_455">
<rect width="57.0807" height="55.7685" fill="white"/>
</clipPath>
</defs>
</svg>
