<svg width="146" height="104" viewBox="0 0 146 104" fill="none" xmlns="http://www.w3.org/2000/svg">
<g clip-path="url(#clip0_26_91)">
<path d="M6.00527 64.9684C8.11641 62.2198 10.1832 59.5094 12.2803 56.8232C12.6691 56.3239 12.796 55.903 12.5683 55.2768C12.0103 53.7323 11.5108 52.1657 11.0535 50.587C10.854 49.9003 10.4975 49.5499 9.80251 49.3526C6.55119 48.4284 3.31598 47.4497 0.00221477 46.4711C0.00221477 44.0165 -0.0199442 41.5719 0.0364604 39.1314C0.0425037 38.8897 0.487697 38.5373 0.791879 38.4447C3.77326 37.5305 6.7627 36.6405 9.76423 35.7927C10.4491 35.5994 10.842 35.2893 11.0454 34.5866C11.4826 33.0743 11.9761 31.5782 12.5099 30.0961C12.7758 29.3591 12.6872 28.8195 12.1816 28.1852C10.0966 25.5614 8.07814 22.8832 5.99318 20.1729C7.4456 18.1733 8.86982 16.1859 10.3383 14.2346C10.4693 14.0595 10.9306 13.997 11.1804 14.0715C12.1433 14.3615 13.08 14.734 14.0308 15.0643C14.9111 15.3703 18.6842 16.6631 20.0581 17.2269C20.8377 17.5451 21.3957 17.4766 22.0564 16.9531C23.249 16.0087 24.514 15.1549 25.769 14.291C26.3995 13.8561 26.6634 13.3486 26.6272 12.5392C26.4942 9.55694 26.4499 6.57071 26.3754 3.58447C26.3653 3.21799 26.3754 2.8515 26.3754 2.4085C28.8068 1.61714 31.2262 0.829804 33.7684 0.00219624C34.8199 1.52653 35.8816 3.05891 36.9391 4.59532C37.8517 5.92231 38.7199 7.28354 39.6929 8.5622C39.9648 8.92063 40.5349 9.23073 40.9801 9.24684C42.7146 9.3153 44.453 9.29316 46.1875 9.21664C46.5702 9.20053 47.0658 8.91056 47.2894 8.59241C49.2756 5.76928 51.2135 2.91191 53.2119 -0.00183105C55.5526 0.757313 57.8813 1.49028 60.1818 2.29574C60.4115 2.37628 60.6129 2.91191 60.6089 3.23208C60.5626 6.35122 60.4961 9.47237 60.3672 12.5895C60.3349 13.3627 60.5787 13.8138 61.2072 14.2326C62.4884 15.0904 63.7414 15.9986 64.9541 16.951C65.5705 17.4363 66.0922 17.535 66.8537 17.2471C69.6457 16.1919 72.47 15.2254 75.2822 14.2266C75.6266 14.1038 75.9751 13.993 76.3518 13.8641C77.911 15.9724 79.448 18.0485 80.9992 20.1447C78.8779 22.9114 76.8172 25.6299 74.7181 28.3181C74.3253 28.8215 74.2085 29.2464 74.43 29.8666C74.9921 31.4453 75.4937 33.0461 75.9812 34.649C76.1645 35.2511 76.4425 35.6377 77.1113 35.7484C77.3973 35.7968 83.8456 37.7017 86.5329 38.5273C86.7303 38.5877 86.9619 38.9441 86.966 39.1656C87.0022 41.145 87.0062 43.1244 86.9881 45.1018C86.978 46.1409 85.8076 46.898 84.3431 47.2685C81.7385 47.929 79.1781 48.7626 76.6097 49.556C76.4062 49.6184 76.2007 49.9003 76.1262 50.1238C75.5118 51.9341 74.8994 53.7444 74.3656 55.5788C74.2709 55.905 74.4562 56.4145 74.6819 56.7125C76.7628 59.4672 78.88 62.1936 81.0012 64.9463C79.4521 67.0828 77.9412 69.1669 76.4022 71.2893C73.167 70.1375 69.9741 69.0219 66.7993 67.856C66.1285 67.6103 65.6309 67.6506 65.0568 68.0956C63.7595 69.1045 62.4239 70.067 61.0682 70.9973C60.5303 71.3658 60.3511 71.7685 60.3752 72.4129C60.488 75.4978 60.5485 78.5847 60.625 81.6696C60.6331 82.0019 60.625 82.3341 60.625 82.7187C58.2641 83.4839 55.9455 84.2571 53.6067 84.9619C53.3972 85.0264 52.9621 84.7303 52.7929 84.4887C50.9678 81.875 49.1588 79.2492 47.3861 76.6013C47.0255 76.0616 46.6407 75.8542 45.9941 75.8723C44.3161 75.9186 42.636 75.9146 40.958 75.8723C40.3536 75.8582 39.983 76.0455 39.6425 76.5509C37.8839 79.1687 36.0709 81.7502 34.3183 84.3719C33.9457 84.9297 33.6415 85.1291 32.9525 84.8814C31.0912 84.2128 29.2077 83.6007 27.3101 83.0449C26.5768 82.8295 26.3129 82.5274 26.3472 81.732C26.4781 78.6149 26.5063 75.4938 26.6272 72.3746C26.6534 71.7081 26.4157 71.3316 25.9 70.9751C24.5221 70.0187 23.1583 69.038 21.8247 68.0211C21.3413 67.6526 20.9323 67.5942 20.3582 67.8057C17.3668 68.9031 14.3552 69.9421 11.3637 71.0376C10.7997 71.245 10.4814 71.1785 10.1268 70.6711C8.7832 68.7521 7.3892 66.8673 6.00326 64.9543L6.00527 64.9684ZM16.845 44.2903C17.5501 51.918 20.6886 58.3133 26.6574 63.1823C32.4066 67.8701 39.0382 69.8455 46.4212 69.0622C65.6994 67.0163 76.5412 45.1824 66.2494 28.7289C60.4921 19.5265 51.8763 15.2656 40.9237 16.057C40.3818 16.0952 40.2791 16.059 39.2195 16.2503C32.9586 17.3377 27.6787 20.2393 23.4726 25.0217C19.2442 29.8283 17.0908 35.4907 16.8208 41.8659C16.7725 43.2855 16.8269 44.093 16.845 44.2923V44.2903ZM2.52229 40.5771C5.74541 39.6489 8.82953 38.7447 11.9257 37.8829C12.5361 37.7137 12.8806 37.4318 13.08 36.8096C13.8858 34.2885 14.7722 31.7916 15.5538 29.2645C15.6746 28.8759 15.5316 28.2677 15.2838 27.9254C13.9261 26.0527 12.4898 24.2344 11.0938 22.3879C10.5317 21.6428 9.58293 20.8756 9.5789 20.1125C9.57286 19.3473 10.566 18.6002 11.0414 17.7988C11.4342 17.1343 11.8633 17.1222 12.5301 17.3699C15.2939 18.3989 18.0698 19.3956 20.8618 20.34C21.2486 20.4709 21.861 20.3823 22.1954 20.1487C24.3992 18.6183 26.5748 17.0437 28.7101 15.4187C29.0606 15.1509 29.3568 14.5649 29.3568 14.1259C29.3608 11.8122 29.254 9.49855 29.1996 7.18487C29.1775 6.25456 28.8431 5.05041 29.2923 4.46645C29.7878 3.82208 31.0368 3.78181 31.9312 3.41532C32.5053 3.17973 32.8236 3.3086 33.1661 3.81805C34.8199 6.26262 36.5262 8.67094 38.174 11.1195C38.5487 11.6773 38.9294 11.923 39.6304 11.9069C42.1122 11.8505 44.5981 11.8243 47.0799 11.8928C47.9803 11.9169 48.4638 11.5907 48.9352 10.8739C50.6616 8.24203 52.4504 5.65248 54.2372 3.01864C55.2867 3.34485 56.2678 3.68314 57.2649 3.95095C57.8813 4.11607 58.107 4.40201 58.0848 5.07457C57.9861 8.02456 57.97 10.9766 57.8834 13.9245C57.8652 14.5629 58.0405 14.9676 58.5804 15.3401C60.349 16.5523 62.1419 17.7464 63.8018 19.0976C64.944 20.0279 65.9633 20.3259 67.313 19.599C68.0886 19.1822 73.3906 17.3236 73.6525 16.8927C72.6553 17.2169 71.6582 17.5833 70.6348 17.8532C70.3246 17.9357 65.5403 19.599 64.664 18.9768C62.9396 17.7525 61.2455 16.4879 59.4849 15.318C58.6952 14.7924 58.4152 14.2266 58.4756 13.26C58.6569 10.3483 58.6972 7.42852 58.8302 4.51276C58.8584 3.90665 58.675 3.61065 58.0848 3.43949C56.9567 3.11529 55.8327 2.76693 54.7428 2.33601C54.1123 2.08833 53.792 2.24137 53.4314 2.77297C51.7171 5.29808 49.9807 7.80709 48.2019 10.2879C47.9783 10.6 47.4687 10.8678 47.0859 10.8759C44.7048 10.9202 42.3238 10.9182 39.9447 10.8477C39.5398 10.8356 39.01 10.5154 38.7703 10.1751C37.0137 7.68023 35.3014 5.15109 33.6113 2.60987C33.2507 2.0682 32.9223 1.9353 32.2979 2.16888C31.1395 2.60584 29.953 2.98642 28.7565 3.30659C28.0917 3.48379 27.9487 3.83014 27.9688 4.45839C28.0715 7.50907 28.1582 10.5597 28.1864 13.6124C28.1904 14.0272 27.9325 14.587 27.6102 14.8367C25.7751 16.2463 23.8976 17.6015 21.9919 18.9184C21.6797 19.1338 21.1136 19.2184 20.7551 19.0976C17.7999 18.1069 14.8709 17.0417 11.9217 16.0328C11.6397 15.9362 11.1119 15.9483 10.9749 16.1234C9.94956 17.4363 8.9927 18.8036 8.01972 20.1487C10.1228 22.8611 12.1715 25.4748 14.1718 28.1248C14.4055 28.4349 14.5425 28.9947 14.4357 29.3551C13.7569 31.6567 13.0216 33.9442 12.244 36.2156C12.1292 36.5539 11.7444 36.9204 11.404 37.0392C10.01 37.5224 8.59182 37.9312 7.16962 38.3239C6.83925 38.4145 3.09842 39.6046 2.41552 39.7656C1.88975 39.8905 1.7286 40.1664 1.74471 40.6859C1.78097 41.8921 1.7991 43.1023 1.76083 44.3084C1.73867 44.9669 1.98846 45.2246 2.621 45.3978C5.56411 46.2013 8.48304 47.0853 11.4241 47.8947C12.0164 48.0578 12.3045 48.3418 12.4898 48.9197C13.2251 51.2193 14.0369 53.4927 14.754 55.7963C14.8688 56.1628 14.7701 56.7306 14.5445 57.0427C13.1687 58.9456 11.7263 60.7982 10.3101 62.6709C10.151 62.8803 10.0261 63.1139 9.8851 63.3374C11.7706 61.3862 13.4527 59.298 15.167 57.2381C15.5558 56.7709 15.6283 56.3581 15.4409 55.7822C14.6211 53.2651 13.8697 50.7259 13.0276 48.2169C12.9068 47.8545 12.4797 47.4497 12.1111 47.339C9.40163 46.5335 6.67205 45.7885 3.94449 45.0454C2.4961 44.6508 2.4961 44.6729 2.52028 43.1727C2.53438 42.3391 2.52229 41.5075 2.52229 40.5771ZM53.8585 83.7779C54.9241 83.4074 55.9052 83.0792 56.8782 82.7227C57.692 82.4247 58.81 82.31 59.2109 81.7179C59.6037 81.138 59.2653 80.0607 59.2451 79.2009C59.2371 78.8324 59.231 78.4639 59.2048 78.0954C59.1162 76.8046 59.0215 75.5139 58.9289 74.2211C58.8322 74.2252 58.7355 74.2292 58.6408 74.2332C58.6408 76.3355 58.6207 78.4397 58.6549 80.542C58.665 81.1138 58.4776 81.3615 57.9277 81.5186C56.4249 81.9435 54.9403 82.4348 53.377 82.9221C53.5563 83.2382 53.6812 83.4597 53.8605 83.7759L53.8585 83.7779ZM85.02 45.6274C85.7089 45.7341 85.9164 45.4119 85.8902 44.7897C85.854 43.9198 85.852 43.0499 85.8479 42.178C85.8412 40.4785 85.0093 39.4005 83.352 38.9441C81.7505 38.5071 80.147 38.0802 78.5435 37.6493C80.3042 38.487 82.1111 39.1777 83.9523 39.7495C84.7984 40.0113 85.1046 40.3798 85.0442 41.29C84.9475 42.7237 85.018 44.1675 85.018 45.6274H85.02ZM75.3486 69.1729L75.4776 69.5233C75.8079 69.4246 76.2793 69.4287 76.4425 69.2072C77.3893 67.9124 78.2917 66.5794 79.1378 65.2161C79.2808 64.9845 79.2063 64.4449 79.023 64.2133C78.0198 62.9568 76.9501 61.7526 75.9026 60.5304C75.6891 60.2807 75.4715 60.033 75.256 59.7833L75.0666 59.9504C76.2269 61.5654 77.3873 63.1803 78.5435 64.7892C77.4396 66.3035 76.3961 67.7372 75.3506 69.1709L75.3486 69.1729ZM36.7296 78.0873C36.6551 78.033 36.5786 77.9786 36.504 77.9242C35.5592 79.1767 34.5802 80.405 33.6858 81.6938C33.2366 82.3402 32.8518 82.5435 32.0622 82.2173C30.6883 81.6515 29.25 81.2387 27.8379 80.7615C27.7573 80.842 27.6767 80.9205 27.5961 81.0011C27.7956 81.289 27.9346 81.7502 28.2005 81.8408C29.8745 82.4046 31.5767 82.8859 33.3252 83.4094C34.4795 81.6072 35.6036 79.8493 36.7296 78.0914V78.0873Z" fill="white"/>
<path d="M18.1221 41.1327C18.388 35.6456 20.3098 30.7947 23.827 26.6083C27.8519 21.8179 33.0391 19.0249 39.1952 17.998C39.3584 17.9718 39.5256 17.9778 39.5236 17.9778C37.7247 18.6625 35.7122 19.2505 33.861 20.1647C26.8245 23.6362 22.4894 29.2925 20.8537 36.9444C20.2252 39.8843 20.8678 42.498 23.8048 44.2237C24.3648 44.4291 25.2431 44.7029 23.9821 44.419C24.7496 44.419 24.246 44.4734 24.9007 44.4734C25.5232 49.1893 27.5175 53.1824 31.0629 56.3458C32.6402 57.7554 34.4089 58.8589 36.4536 59.4972C36.244 59.3603 36.0366 59.2153 35.821 59.0864C30.66 55.9995 27.6887 51.4305 26.6533 45.5527C26.5384 44.9023 26.5505 44.3707 27.3905 44.2217C27.7028 44.1673 27.9888 43.9317 28.2688 43.7505C28.5186 43.5874 28.7443 43.382 29.1451 43.0658C29.1834 43.6538 29.6024 45.9796 29.6407 46.5817C28.8732 45.9373 31.3328 50.5284 30.6439 50.5284C30.8151 50.6271 27.5074 44.864 27.5517 44.866C29.2418 44.9808 29.2499 44.9788 29.7273 46.636C31.4335 52.5562 36.5966 56.7808 42.9824 57.0405C50.734 57.3567 57.1802 51.4064 57.8188 43.682C57.8289 43.5612 57.843 43.4424 57.8732 43.1424C59.7265 45.5668 62.0834 46.3199 64.8774 45.8306C64.8049 52.387 59.7647 59.5757 52.0796 64.3179C52.4181 64.191 52.7686 64.0843 53.0969 63.9333C60.8243 60.3711 65.518 54.4409 66.8999 46.0199C67.0994 44.8016 67.8145 44.1129 68.6545 43.1263C68.5961 45.8487 68.163 48.2933 67.3572 50.6694C63.7916 61.1705 53.9752 68.0975 42.8877 67.8135C35.9197 67.6343 30.0134 64.9199 25.1767 59.8959C21.3109 55.8807 18.9963 51.1124 18.2329 45.5869" fill="white"/>
<path d="M56.0219 42.5705C56.0621 49.3666 50.5526 55.1034 43.498 55.1034C36.7637 55.1034 31.0064 49.7653 30.9823 42.5967C30.9581 35.6395 36.5582 30.0275 43.488 30.0356C50.4539 30.0436 56.0077 35.5972 56.0219 42.5685V42.5705ZM35.7223 44.5439C36.2057 45.4178 36.3548 46.3098 36.9289 47.0851C39.1005 50.019 42.7305 51.2654 46.1087 50.0834C49.4991 48.8974 51.6203 45.6292 51.435 42.0248C51.306 39.5158 49.5756 36.2396 46.1067 35.0536C42.7003 33.8897 38.9877 35.0918 36.9793 38.0781C36.4978 38.7929 36.379 39.8863 35.7545 40.3273C35.1522 40.7522 34.1127 40.5569 33.2264 40.6374V44.5439H35.7223Z" fill="white"/>
<path d="M35.7203 44.5439H33.2244V40.6374C34.1087 40.5569 35.1482 40.7522 35.7525 40.3273C36.377 39.8883 36.4958 38.7929 36.9773 38.0781C38.9857 35.0938 42.6983 33.8897 46.1047 35.0536C49.5736 36.2396 51.304 39.5138 51.433 42.0248C51.6183 45.6292 49.4971 48.8974 46.1068 50.0834C42.7285 51.2654 39.1005 50.017 36.9269 47.0851C36.3528 46.3119 36.2037 45.4198 35.7203 44.5439Z" fill="#000A2F"/>
<path d="M81.4179 27.6836H5.6908V60.5604H81.4179V27.6836Z" fill="#000A2F" stroke="white" stroke-width="0.5" stroke-miterlimit="10"/>
<path d="M80.4429 28.5998H6.66577V59.6401H80.4429V28.5998Z" fill="#070A2A" stroke="white" stroke-width="0.5" stroke-miterlimit="10"/>
<path d="M22.3987 31.7209H29.8058C31.8122 31.7209 33.3472 32.3412 34.4129 33.5836C35.4765 34.826 36.0103 36.6262 36.0103 38.9862C36.0103 41.3462 35.4785 43.1464 34.4129 44.3888C33.3492 45.6312 31.8122 46.2514 29.8058 46.2514H22.3987V31.723V31.7209ZM23.3273 32.8123V45.16H29.6628C31.4174 45.16 32.7509 44.6345 33.6675 43.5853C34.5841 42.5362 35.0414 41.0018 35.0414 38.9862C35.0414 36.9705 34.5801 35.4542 33.6615 34.3971C32.7409 33.3399 31.4033 32.8123 29.6507 32.8123H23.3294H23.3273ZM23.6275 33.203H29.6487C31.3146 33.203 32.5797 33.6963 33.4439 34.685C34.3081 35.6737 34.7392 37.1074 34.7392 38.9862C34.7392 40.8649 34.3101 42.2986 33.4499 43.2873C32.5898 44.276 31.3267 44.7694 29.6608 44.7694H23.6275V33.203ZM24.5562 34.2944V43.678H29.6608C31.0044 43.678 32.0237 43.2813 32.7167 42.4839C33.4097 41.6885 33.7582 40.5226 33.7582 38.9862C33.7582 37.4498 33.4117 36.2839 32.7167 35.4885C32.0237 34.6931 31.0044 34.2944 29.6608 34.2944H24.5562Z" fill="white"/>
<path d="M48.3912 41.908C48.3912 42.8282 48.1555 43.531 47.6841 44.0183C47.2127 44.5056 46.5097 44.7492 45.577 44.7492H37.358V43.6377H45.5246C46.143 43.6377 46.6144 43.4827 46.9387 43.1746C47.2611 42.8665 47.4222 42.4174 47.4222 41.8274C47.4222 41.2374 47.2611 40.8085 46.9387 40.5004C46.6164 40.1924 46.1451 40.0373 45.5246 40.0373H41.3628C40.0715 40.0373 39.0804 39.6769 38.3914 38.956C37.7025 38.2351 37.358 37.2101 37.358 35.8791C37.358 34.5481 37.7025 33.5232 38.3914 32.8023C39.0804 32.0814 40.0715 31.7209 41.3628 31.7209H49.5293V32.8325H41.4272C40.4321 32.8325 39.6666 33.0963 39.1307 33.6259C38.5949 34.1534 38.325 34.9267 38.325 35.9415C38.325 36.9564 38.5949 37.7417 39.1368 38.2975C39.6787 38.8533 40.4401 39.1312 41.4272 39.1312H45.577C47.4524 39.1312 48.3912 40.0574 48.3912 41.91V41.908ZM48.647 45.1499C47.9621 45.8849 46.969 46.2514 45.6696 46.2514H37.358V45.1399H45.577C46.5882 45.1399 47.3638 44.858 47.8996 44.2962C48.4355 43.7344 48.7054 42.937 48.7054 41.908C48.7054 40.879 48.4375 40.0876 47.8996 39.5319C47.3638 38.9761 46.5882 38.6982 45.577 38.6982H41.4272C40.5288 38.6982 39.8378 38.4626 39.3523 37.9874C38.8689 37.5142 38.6251 36.8316 38.6251 35.9395C38.6251 35.0475 38.8669 34.3729 39.3523 33.9118C39.8358 33.4527 40.5288 33.2231 41.4272 33.2231H49.5293V34.3347H41.5058C40.2226 34.3347 39.582 34.8965 39.582 36.0221C39.582 37.1477 40.2226 37.7095 41.5058 37.7095H45.6676C46.9589 37.7095 47.95 38.076 48.6389 38.811C49.3279 39.546 49.6724 40.6052 49.6724 41.9905C49.6724 43.3759 49.3299 44.415 48.645 45.1499H48.647Z" fill="white"/>
<path d="M57.2245 46.2494C55.2523 46.2494 53.7274 45.6191 52.6496 44.3566C51.5719 43.094 51.0341 41.3039 51.0341 38.9862C51.0341 36.6685 51.5719 34.8763 52.6496 33.6158C53.7274 32.3532 55.2523 31.723 57.2245 31.723H64.8935V32.8144H57.3816C55.6713 32.8144 54.3478 33.352 53.4091 34.4293C52.4704 35.5066 52.003 37.0249 52.003 38.9882C52.003 40.9515 52.4704 42.4859 53.4031 43.5572C54.3357 44.6264 55.6592 45.162 57.3695 45.162H64.0434V38.9479H57.3695V37.9592H64.8955V46.2534H57.2265L57.2245 46.2494ZM64.8935 33.203V34.2944H57.3675C56.0581 34.2944 55.0489 34.7052 54.3378 35.5288C53.6267 36.3523 53.2721 37.5122 53.2721 39.0063C53.2721 40.5004 53.6267 41.6603 54.3378 42.4839C55.0489 43.3075 56.0581 43.7182 57.3675 43.7182H62.877V40.3434H57.3675V39.3547H63.7412V44.7674H57.3675C55.7539 44.7674 54.505 44.2639 53.6246 43.2551C52.7423 42.2463 52.3032 40.8226 52.3032 38.9842C52.3032 37.1457 52.7484 35.7402 53.6387 34.7233C54.5291 33.7084 55.7761 33.201 57.3816 33.201H64.8935V33.203Z" fill="white"/>
<path d="M13.4746 49.8277C13.8715 49.7612 14.3932 49.7048 15.056 49.7048C15.8698 49.7048 16.4661 49.8941 16.8448 50.2344C17.1953 50.5365 17.4028 51.0016 17.4028 51.5695C17.4028 52.1373 17.2316 52.6005 16.9113 52.9327C16.4761 53.3958 15.765 53.6335 14.9613 53.6335C14.7155 53.6335 14.4879 53.6234 14.2985 53.5771V56.1324H13.4746V49.8297V49.8277ZM14.2985 52.9025C14.4778 52.9508 14.7054 52.969 14.9794 52.969C15.9725 52.969 16.5789 52.4857 16.5789 51.6057C16.5789 50.7258 15.9826 50.3573 15.0741 50.3573C14.7135 50.3573 14.4395 50.3854 14.2985 50.4237V52.9025Z" fill="white"/>
<path d="M21.8144 53.1401H19.3347V55.4397H22.0985V56.1304H18.5107V49.7511H21.9575V50.4418H19.3347V52.4575H21.8144V53.1381V53.1401Z" fill="white"/>
<path d="M28.5468 53.3294C28.5004 52.4393 28.442 51.3701 28.4521 50.5747H28.4239C28.2063 51.3218 27.9404 52.1172 27.6201 52.9971L26.494 56.0921H25.8696L24.8382 53.0535C24.536 52.1554 24.2802 51.3318 24.0989 50.5747H24.0807C24.0626 51.3701 24.0142 52.4393 23.9578 53.3938L23.7866 56.1283H23.001L23.4462 49.7491H24.4977L25.5855 52.834C25.8514 53.6193 26.069 54.3201 26.2301 54.9826H26.2583C26.4195 54.3382 26.6471 53.6395 26.9312 52.834L28.0673 49.7491H29.1189L29.5157 56.1283H28.7099L28.5488 53.3274L28.5468 53.3294Z" fill="white"/>
<path d="M36.2338 52.8763C36.2338 55.0712 34.8982 56.2351 33.2706 56.2351C31.6429 56.2351 30.402 54.9282 30.402 52.9991C30.402 50.9734 31.661 49.6484 33.3652 49.6484C35.0695 49.6484 36.2338 50.9835 36.2338 52.8763ZM31.2823 52.981C31.2823 54.3443 32.0216 55.5645 33.3169 55.5645C34.6122 55.5645 35.3615 54.3624 35.3615 52.9146C35.3615 51.646 34.6988 50.321 33.327 50.321C31.9551 50.321 31.2823 51.5795 31.2823 52.981Z" fill="white"/>
<path d="M38.1274 49.7531V52.4212H41.2135V49.7531H42.0475V56.1324H41.2135V53.1421H38.1274V56.1324H37.3035V49.7531H38.1274Z" fill="white"/>
<path d="M44.6884 50.4519H42.7485V49.7511H47.4724V50.4519H45.5224V56.1304H44.6905V50.4519H44.6884Z" fill="white"/>
<path d="M51.2213 54.1248L50.5585 56.1304H49.7064L51.874 49.7511H52.8671L55.0447 56.1304H54.1644L53.4835 54.1248H51.2213ZM53.3143 53.4804L52.6898 51.644C52.5488 51.2271 52.4541 50.8486 52.3595 50.4801H52.3413C52.2466 50.8586 52.1419 51.2473 52.019 51.6339L51.3945 53.4784H53.3163L53.3143 53.4804Z" fill="white"/>
<path d="M56.7973 49.7531V52.5823H57.0531L59.2408 49.7531H60.236L57.8226 52.677C58.8742 52.8199 59.2811 53.4623 59.6115 54.3241C59.8472 54.9765 60.0285 55.5645 60.3125 56.1324H59.4221C59.1945 55.6974 59.0152 55.1296 58.844 54.6282C58.5499 53.7865 58.1429 53.2086 57.0652 53.2086H56.7993V56.1324H55.9855V49.7531H56.7993H56.7973Z" fill="white"/>
<path d="M65.7253 49.7531V56.1324H64.9014V50.4438H61.9382V56.1324H61.1143V49.7531H65.7253Z" fill="white"/>
<path d="M71.7768 49.7531V56.1324H70.9529V50.4438H67.9897V56.1324H67.1658V49.7531H71.7768Z" fill="white"/>
</g>
<path d="M77.6239 95.0183C78.546 93.817 79.4487 92.6325 80.3647 91.4585C80.5345 91.2403 80.5899 91.0564 80.4905 90.7827C80.2468 90.1077 80.0286 89.423 79.8288 88.7331C79.7417 88.433 79.586 88.2799 79.2824 88.1936C77.8623 87.7897 76.4493 87.362 75.0019 86.9343C75.0019 85.8615 74.9922 84.7932 75.0168 83.7266C75.0195 83.621 75.2139 83.467 75.3468 83.4265C76.649 83.0269 77.9547 82.638 79.2657 82.2675C79.5649 82.183 79.7364 82.0475 79.8253 81.7403C80.0162 81.0794 80.2318 80.4256 80.465 79.7779C80.5811 79.4558 80.5424 79.2199 80.3215 78.9427C79.4109 77.796 78.5293 76.6256 77.6186 75.4411C78.253 74.5672 78.875 73.6986 79.5165 72.8458C79.5737 72.7693 79.7752 72.742 79.8843 72.7746C80.3048 72.9013 80.714 73.0641 81.1293 73.2084C81.5138 73.3422 83.1618 73.9072 83.7618 74.1536C84.1023 74.2926 84.3461 74.2627 84.6347 74.0339C85.1555 73.6212 85.7081 73.248 86.2563 72.8705C86.5316 72.6804 86.6469 72.4586 86.6311 72.1049C86.573 70.8015 86.5536 69.4964 86.5211 68.1914C86.5167 68.0312 86.5211 67.871 86.5211 67.6774C87.5831 67.3316 88.6398 66.9875 89.7502 66.6258C90.2095 67.292 90.6732 67.9617 91.1351 68.6331C91.5337 69.2131 91.9129 69.808 92.3379 70.3668C92.4567 70.5234 92.7057 70.659 92.9001 70.666C93.6577 70.6959 94.417 70.6863 95.1746 70.6528C95.3418 70.6458 95.5582 70.519 95.6559 70.38C96.5234 69.1462 97.3698 67.8974 98.2427 66.624C99.2651 66.9558 100.282 67.2761 101.287 67.6281C101.387 67.6633 101.475 67.8974 101.474 68.0374C101.453 69.4005 101.424 70.7646 101.368 72.1269C101.354 72.4648 101.46 72.6619 101.735 72.845C102.294 73.2199 102.842 73.6168 103.371 74.033C103.641 74.2451 103.869 74.2882 104.201 74.1624C105.421 73.7012 106.654 73.2788 107.882 72.8423C108.033 72.7886 108.185 72.7402 108.35 72.6839C109.031 73.6053 109.702 74.5126 110.38 75.4287C109.453 76.6379 108.553 77.826 107.636 79.0008C107.465 79.2208 107.414 79.4065 107.51 79.6775C107.756 80.3675 107.975 81.0671 108.188 81.7676C108.268 82.0307 108.389 82.1997 108.681 82.2481C108.806 82.2692 111.623 83.1017 112.797 83.4626C112.883 83.489 112.984 83.6447 112.986 83.7415C113.002 84.6066 113.003 85.4717 112.995 86.3359C112.991 86.79 112.48 87.1208 111.84 87.2828C110.702 87.5714 109.584 87.9358 108.462 88.2825C108.373 88.3098 108.284 88.433 108.251 88.5307C107.983 89.3218 107.715 90.113 107.482 90.9147C107.441 91.0572 107.522 91.2799 107.62 91.4101C108.529 92.614 109.454 93.8056 110.38 95.0086C109.704 95.9423 109.044 96.8531 108.372 97.7807C106.959 97.2773 105.564 96.7898 104.177 96.2802C103.884 96.1729 103.667 96.1905 103.416 96.3849C102.85 96.8258 102.266 97.2465 101.674 97.6531C101.439 97.8141 101.361 97.9901 101.371 98.2717C101.421 99.6199 101.447 100.969 101.481 102.317C101.484 102.462 101.481 102.608 101.481 102.776C100.449 103.11 99.4367 103.448 98.4151 103.756C98.3236 103.784 98.1336 103.655 98.0597 103.549C97.2625 102.407 96.4724 101.259 95.6981 100.102C95.5406 99.8664 95.3726 99.7757 95.0901 99.7836C94.3572 99.8039 93.6234 99.8021 92.8904 99.7836C92.6265 99.7775 92.4646 99.8593 92.3159 100.08C91.5478 101.224 90.7559 102.352 89.9904 103.498C89.8276 103.742 89.6948 103.829 89.3939 103.721C88.5809 103.429 87.7582 103.161 86.9293 102.918C86.6091 102.824 86.4938 102.692 86.5088 102.345C86.566 100.982 86.5783 99.6182 86.6311 98.255C86.6425 97.9637 86.5387 97.7992 86.3134 97.6434C85.7116 97.2254 85.1159 96.7968 84.5335 96.3524C84.3223 96.1913 84.1437 96.1658 83.8929 96.2582C82.5863 96.7378 81.2709 97.1919 79.9643 97.6707C79.718 97.7613 79.5789 97.7323 79.4241 97.5105C78.8372 96.6718 78.2283 95.8481 77.623 95.0121L77.6239 95.0183ZM82.3584 85.9812C82.6664 89.3148 84.0372 92.1097 86.6443 94.2377C89.1554 96.2864 92.0519 97.1497 95.2766 96.8074C103.697 95.9132 108.432 86.3711 103.937 79.1803C101.423 75.1586 97.6593 73.2964 92.8755 73.6423C92.6388 73.659 92.5939 73.6432 92.1311 73.7268C89.3965 74.202 87.0904 75.4701 85.2532 77.5602C83.4064 79.6608 82.4658 82.1355 82.3479 84.9216C82.3268 85.5421 82.3505 85.895 82.3584 85.9821V85.9812ZM76.1026 84.3584C77.5104 83.9527 78.8575 83.5576 80.2098 83.1809C80.4764 83.107 80.6269 82.9838 80.714 82.7119C81.0659 81.6101 81.4531 80.5188 81.7944 79.4144C81.8472 79.2446 81.7848 78.9788 81.6765 78.8292C81.0835 78.0108 80.4562 77.2161 79.8464 76.4091C79.6009 76.0835 79.1865 75.7482 79.1848 75.4147C79.1821 75.0803 79.6159 74.7538 79.8235 74.4035C79.9951 74.1131 80.1825 74.1078 80.4738 74.2161C81.6809 74.6658 82.8934 75.1014 84.1129 75.5141C84.2818 75.5713 84.5493 75.5326 84.6954 75.4305C85.6579 74.7617 86.6082 74.0735 87.5409 73.3633C87.694 73.2463 87.8233 72.9902 87.8233 72.7983C87.8251 71.7872 87.7784 70.776 87.7547 69.7649C87.745 69.3583 87.5989 68.832 87.7951 68.5768C88.0116 68.2952 88.5571 68.2776 88.9478 68.1174C89.1985 68.0145 89.3375 68.0708 89.4871 68.2934C90.2095 69.3618 90.9547 70.4143 91.6745 71.4844C91.8381 71.7282 92.0044 71.8356 92.3106 71.8285C93.3946 71.8039 94.4804 71.7925 95.5644 71.8224C95.9577 71.8329 96.1688 71.6904 96.3747 71.3771C97.1288 70.2269 97.9101 69.0952 98.6905 67.9441C99.1489 68.0866 99.5774 68.2345 100.013 68.3515C100.282 68.4237 100.381 68.5487 100.371 68.8426C100.328 70.1318 100.321 71.422 100.283 72.7103C100.275 72.9893 100.352 73.1662 100.588 73.329C101.36 73.8588 102.143 74.3806 102.868 74.9711C103.367 75.3777 103.812 75.5079 104.402 75.1903C104.74 75.0081 107.056 74.1958 107.171 74.0075C106.735 74.1492 106.3 74.3093 105.853 74.4273C105.717 74.4633 103.627 75.1903 103.245 74.9183C102.492 74.3833 101.752 73.8306 100.983 73.3193C100.638 73.0896 100.515 72.8423 100.542 72.4199C100.621 71.1474 100.639 69.8713 100.697 68.5971C100.709 68.3322 100.629 68.2028 100.371 68.128C99.8783 67.9863 99.3874 67.8341 98.9114 67.6457C98.636 67.5375 98.4961 67.6044 98.3386 67.8367C97.5898 68.9403 96.8314 70.0368 96.0544 71.121C95.9568 71.2574 95.7342 71.3744 95.567 71.378C94.527 71.3973 93.487 71.3964 92.4479 71.3656C92.271 71.3604 92.0396 71.2204 91.9349 71.0717C91.1677 69.9813 90.4198 68.876 89.6816 67.7654C89.5241 67.5287 89.3807 67.4706 89.1079 67.5727C88.602 67.7637 88.0837 67.93 87.5611 68.0699C87.2707 68.1474 87.2083 68.2987 87.2171 68.5733C87.2619 69.9065 87.2998 71.2398 87.3121 72.5739C87.3139 72.7552 87.2012 72.9999 87.0604 73.109C86.2589 73.725 85.4389 74.3173 84.6065 74.8928C84.4701 74.987 84.2229 75.0239 84.0663 74.9711C82.7755 74.5382 81.4962 74.0726 80.208 73.6317C80.0849 73.5895 79.8543 73.5948 79.7945 73.6713C79.3467 74.2451 78.9287 74.8426 78.5037 75.4305C79.4223 76.6159 80.3171 77.7582 81.1909 78.9163C81.2929 79.0518 81.3528 79.2965 81.3061 79.454C81.0096 80.4599 80.6885 81.4596 80.3488 82.4523C80.2987 82.6001 80.1306 82.7603 79.9819 82.8122C79.3731 83.0234 78.7536 83.2021 78.1324 83.3737C77.9881 83.4133 76.3542 83.9334 76.056 84.0038C75.8263 84.0583 75.7559 84.1789 75.763 84.4059C75.7788 84.9331 75.7867 85.462 75.77 85.9891C75.7603 86.2769 75.8694 86.3895 76.1457 86.4652C77.4312 86.8164 78.7061 87.2027 79.9907 87.5565C80.2494 87.6277 80.3752 87.7518 80.4562 88.0044C80.7773 89.0094 81.1319 90.003 81.4451 91.0097C81.4953 91.1699 81.4522 91.418 81.3536 91.5544C80.7527 92.3861 80.1227 93.1957 79.5042 94.0141C79.4346 94.1057 79.3801 94.2077 79.3185 94.3054C80.1421 93.4527 80.8767 92.5401 81.6255 91.6398C81.7953 91.4356 81.827 91.2552 81.7452 91.0035C81.3871 89.9035 81.0589 88.7938 80.6911 87.6973C80.6383 87.5389 80.4518 87.362 80.2908 87.3136C79.1073 86.9616 77.9151 86.636 76.7238 86.3112C76.0911 86.1387 76.0911 86.1484 76.1017 85.4928C76.1079 85.1285 76.1026 84.765 76.1026 84.3584ZM98.5251 103.239C98.9906 103.077 99.4191 102.933 99.844 102.777C100.2 102.647 100.688 102.597 100.863 102.338C101.034 102.085 100.887 101.614 100.878 101.238C100.874 101.077 100.872 100.916 100.86 100.755C100.822 100.191 100.78 99.627 100.74 99.062C100.698 99.0638 100.655 99.0655 100.614 99.0673C100.614 99.986 100.605 100.906 100.62 101.824C100.624 102.074 100.543 102.183 100.302 102.251C99.6461 102.437 98.9976 102.652 98.3148 102.865C98.3931 103.003 98.4477 103.1 98.526 103.238L98.5251 103.239ZM112.136 86.5655C112.437 86.6122 112.527 86.4714 112.516 86.1995C112.5 85.8193 112.499 85.4391 112.497 85.0581C112.494 84.3153 112.131 83.8442 111.407 83.6447C110.708 83.4538 110.007 83.2672 109.307 83.0789C110.076 83.445 110.865 83.7468 111.669 83.9967C112.039 84.1111 112.173 84.2722 112.146 84.67C112.104 85.2965 112.135 85.9275 112.135 86.5655H112.136ZM107.912 96.8558L107.968 97.0089C108.112 96.9658 108.318 96.9675 108.389 96.8707C108.803 96.3049 109.197 95.7223 109.567 95.1265C109.629 95.0253 109.596 94.7894 109.516 94.6882C109.078 94.1391 108.611 93.6128 108.153 93.0787C108.06 92.9695 107.965 92.8613 107.871 92.7522L107.788 92.8252C108.295 93.531 108.802 94.2368 109.307 94.9399C108.825 95.6017 108.369 96.2283 107.912 96.8549L107.912 96.8558ZM91.0436 100.752C91.0111 100.728 90.9776 100.704 90.9451 100.68C90.5324 101.228 90.1048 101.765 89.7141 102.328C89.5179 102.61 89.3499 102.699 89.005 102.557C88.4049 102.309 87.7767 102.129 87.1599 101.92C87.1247 101.956 87.0895 101.99 87.0543 102.025C87.1414 102.151 87.2021 102.352 87.3182 102.392C88.0494 102.638 88.7929 102.849 89.5566 103.078C90.0608 102.29 90.5518 101.522 91.0436 100.753V100.752Z" fill="white"/>
<path d="M82.9163 84.6012C83.0324 82.2031 83.8718 80.0831 85.408 78.2536C87.166 76.16 89.4317 74.9394 92.1205 74.4905C92.1918 74.4791 92.2648 74.4817 92.264 74.4817C91.4782 74.781 90.5993 75.0379 89.7907 75.4375C86.7173 76.9546 84.8238 79.4266 84.1094 82.7708C83.8348 84.0556 84.1155 85.1979 85.3984 85.9521C85.643 86.0418 86.0266 86.1615 85.4758 86.0374C85.811 86.0374 85.5911 86.0612 85.877 86.0612C86.1489 88.1222 87.02 89.8673 88.5685 91.2499C89.2575 91.8659 90.03 92.3482 90.923 92.6271C90.8315 92.5673 90.7409 92.5039 90.6468 92.4476C88.3926 91.0985 87.0947 89.1017 86.6425 86.5329C86.5923 86.2486 86.5976 86.0163 86.9645 85.9512C87.1009 85.9274 87.2258 85.8245 87.3481 85.7453C87.4573 85.674 87.5558 85.5842 87.7309 85.4461C87.7476 85.703 87.9306 86.7195 87.9473 86.9826C87.6121 86.701 88.6864 88.7075 88.3855 88.7075C88.4603 88.7506 87.0156 86.2319 87.0349 86.2328C87.7731 86.283 87.7766 86.2821 87.9852 87.0064C88.7304 89.5936 90.9855 91.44 93.7747 91.5535C97.1604 91.6916 99.976 89.0912 100.255 85.7153C100.259 85.6625 100.265 85.6106 100.279 85.4795C101.088 86.5391 102.118 86.8682 103.338 86.6543C103.306 89.5197 101.105 92.6614 97.7482 94.7339C97.896 94.6785 98.0491 94.6318 98.1925 94.5658C101.568 93.0091 103.618 90.4174 104.221 86.7371C104.308 86.2046 104.621 85.9037 104.988 85.4725C104.962 86.6623 104.773 87.7306 104.421 88.7691C102.864 93.3584 98.5761 96.3857 93.7333 96.2617C90.6899 96.1833 88.1101 94.997 85.9976 92.8014C84.3091 91.0466 83.2981 88.9627 82.9647 86.5479" fill="white"/>
<path d="M99.47 85.2296C99.4876 88.1997 97.0811 90.7069 93.9998 90.7069C91.0585 90.7069 88.5438 88.3739 88.5332 85.241C88.5227 82.2005 90.9687 79.7479 93.9955 79.7514C97.038 79.7549 99.4638 82.182 99.47 85.2287V85.2296ZM90.6036 86.092C90.8147 86.4739 90.8798 86.8638 91.1306 87.2026C92.0791 88.4848 93.6646 89.0296 95.1402 88.513C96.621 87.9946 97.5475 86.5663 97.4665 84.9911C97.4102 83.8946 96.6544 82.4628 95.1393 81.9444C93.6514 81.4358 92.0298 81.9611 91.1526 83.2662C90.9423 83.5786 90.8904 84.0565 90.6176 84.2492C90.3546 84.4349 89.9006 84.3495 89.5134 84.3847V86.092H90.6036Z" fill="white"/>
<path d="M90.6027 86.092H89.5126V84.3848C89.8988 84.3496 90.3528 84.4349 90.6168 84.2492C90.8896 84.0574 90.9415 83.5787 91.1518 83.2662C92.029 81.962 93.6506 81.4358 95.1384 81.9444C96.6536 82.4628 97.4094 83.8937 97.4657 84.9911C97.5466 86.5664 96.6201 87.9947 95.1393 88.513C93.6638 89.0296 92.0791 88.484 91.1298 87.2026C90.879 86.8647 90.8139 86.4748 90.6027 86.092Z" fill="#000A2F"/>
<path d="M97.5906 60.6989C98.8524 59.101 100.088 57.5253 101.341 55.9637C101.573 55.6734 101.649 55.4287 101.513 55.0646C101.18 54.1668 100.881 53.256 100.608 52.3382C100.489 51.939 100.276 51.7354 99.8602 51.6206C97.9169 51.0833 95.9832 50.5144 94.0026 49.9454C94.0026 48.5184 93.9893 47.0973 94.023 45.6785C94.0266 45.538 94.2927 45.3331 94.4745 45.2793C96.2565 44.7478 98.0433 44.2304 99.8373 43.7376C100.247 43.6252 100.481 43.4449 100.603 43.0364C100.864 42.1572 101.159 41.2874 101.478 40.4258C101.637 39.9974 101.584 39.6837 101.282 39.3149C100.036 37.7896 98.8295 36.2326 97.5833 34.6569C98.4514 33.4945 99.3027 32.3391 100.18 31.2047C100.259 31.1029 100.534 31.0666 100.684 31.1099C101.259 31.2785 101.819 31.4951 102.387 31.687C102.914 31.865 105.169 32.6165 105.99 32.9443C106.456 33.1293 106.789 33.0895 107.184 32.7851C107.897 32.2361 108.653 31.7397 109.403 31.2375C109.78 30.9847 109.938 30.6897 109.916 30.2191C109.837 28.4854 109.81 26.7493 109.766 25.0132C109.76 24.8002 109.766 24.5871 109.766 24.3296C111.219 23.8695 112.665 23.4118 114.184 22.9307C114.813 23.8169 115.448 24.7077 116.08 25.6009C116.625 26.3724 117.144 27.1637 117.726 27.9071C117.888 28.1154 118.229 28.2957 118.495 28.3051C119.532 28.3449 120.571 28.332 121.607 28.2875C121.836 28.2782 122.132 28.1096 122.266 27.9246C123.453 26.2834 124.611 24.6223 125.806 22.9283C127.205 23.3697 128.597 23.7958 129.972 24.264C130.109 24.3109 130.229 24.6223 130.227 24.8084C130.199 26.6217 130.16 28.4362 130.082 30.2483C130.063 30.6979 130.209 30.9601 130.585 31.2036C131.35 31.7023 132.099 32.2302 132.824 32.7839C133.192 33.0661 133.504 33.1234 133.959 32.956C135.628 32.3426 137.316 31.7807 138.997 31.2001C139.203 31.1286 139.411 31.0643 139.636 30.9893C140.568 32.215 141.487 33.4219 142.414 34.6406C141.146 36.249 139.915 37.8294 138.66 39.3922C138.425 39.6848 138.355 39.9318 138.488 40.2924C138.824 41.2102 139.124 42.1408 139.415 43.0726C139.524 43.4227 139.691 43.6474 140.09 43.7118C140.261 43.7399 144.115 44.8473 145.722 45.3273C145.84 45.3624 145.978 45.5696 145.98 45.6984C146.002 46.8491 146.005 47.9999 145.994 49.1494C145.988 49.7535 145.288 50.1936 144.413 50.409C142.856 50.793 141.326 51.2776 139.791 51.7389C139.669 51.7752 139.546 51.939 139.502 52.069C139.134 53.1214 138.768 54.1738 138.449 55.2402C138.393 55.4299 138.503 55.7261 138.638 55.8993C139.882 57.5007 141.147 59.0858 142.415 60.686C141.489 61.9281 140.586 63.1397 139.667 64.3735C137.733 63.7039 135.824 63.0554 133.927 62.3776C133.526 62.2348 133.229 62.2582 132.885 62.5169C132.11 63.1034 131.312 63.663 130.501 64.2038C130.18 64.418 130.073 64.6521 130.087 65.0268C130.155 66.8202 130.191 68.6147 130.237 70.4082C130.241 70.6013 130.237 70.7945 130.237 71.0181C128.825 71.4629 127.44 71.9124 126.042 72.3222C125.917 72.3596 125.656 72.1875 125.555 72.0471C124.464 70.5276 123.383 69.0011 122.324 67.4617C122.108 67.1479 121.878 67.0274 121.492 67.0379C120.489 67.0648 119.485 67.0625 118.482 67.0379C118.12 67.0297 117.899 67.1386 117.695 67.4324C116.644 68.9542 115.561 70.455 114.513 71.9792C114.29 72.3034 114.109 72.4193 113.697 72.2753C112.584 71.8867 111.459 71.5308 110.324 71.2077C109.886 71.0825 109.728 70.9069 109.749 70.4445C109.827 68.6323 109.844 66.8178 109.916 65.0045C109.932 64.617 109.79 64.3981 109.482 64.1909C108.658 63.6349 107.843 63.0648 107.046 62.4736C106.757 62.2594 106.512 62.2254 106.169 62.3483C104.381 62.9863 102.581 63.5904 100.793 64.2272C100.456 64.3478 100.266 64.3092 100.054 64.0142C99.2509 62.8985 98.4177 61.8028 97.5894 60.6907L97.5906 60.6989ZM104.069 48.6777C104.491 53.112 106.367 56.83 109.934 59.6606C113.371 62.3858 117.334 63.5342 121.747 63.0788C133.27 61.8895 139.75 49.1962 133.598 39.631C130.157 34.2812 125.007 31.8041 118.461 32.2642C118.137 32.2864 118.076 32.2653 117.443 32.3765C113.7 33.0087 110.545 34.6956 108.031 37.4758C105.503 40.2701 104.216 43.562 104.055 47.2682C104.026 48.0935 104.059 48.5629 104.069 48.6788V48.6777ZM95.5088 46.519C97.4352 45.9793 99.2786 45.4537 101.129 44.9527C101.494 44.8544 101.7 44.6905 101.819 44.3287C102.301 42.8631 102.831 41.4115 103.298 39.9424C103.37 39.7164 103.284 39.3629 103.136 39.1639C102.325 38.0752 101.466 37.0181 100.632 35.9446C100.296 35.5115 99.7289 35.0655 99.7265 34.6218C99.7229 34.177 100.316 33.7427 100.601 33.2768C100.835 32.8905 101.092 32.8834 101.49 33.0274C103.142 33.6256 104.801 34.2051 106.47 34.7541C106.701 34.8302 107.067 34.7787 107.267 34.6429C108.585 33.7532 109.885 32.8378 111.161 31.8931C111.371 31.7374 111.548 31.3967 111.548 31.1415C111.55 29.7965 111.486 28.4514 111.454 27.1063C111.441 26.5655 111.241 25.8655 111.509 25.526C111.805 25.1514 112.552 25.128 113.086 24.9149C113.43 24.7779 113.62 24.8529 113.824 25.149C114.813 26.5702 115.833 27.9703 116.818 29.3938C117.042 29.718 117.269 29.8609 117.688 29.8515C119.172 29.8187 120.657 29.8035 122.141 29.8433C122.679 29.8573 122.968 29.6677 123.25 29.2509C124.281 27.7209 125.351 26.2155 126.419 24.6843C127.046 24.8739 127.632 25.0706 128.228 25.2263C128.597 25.3223 128.732 25.4885 128.718 25.8795C128.659 27.5945 128.65 29.3107 128.598 31.0245C128.587 31.3956 128.692 31.6309 129.015 31.8474C130.072 32.5521 131.143 33.2463 132.135 34.0318C132.818 34.5727 133.427 34.7459 134.234 34.3233C134.698 34.081 137.867 33.0005 138.023 32.75C137.427 32.9385 136.831 33.1515 136.219 33.3084C136.034 33.3564 133.174 34.3233 132.651 33.9616C131.62 33.2498 130.607 32.5147 129.555 31.8345C129.083 31.529 128.916 31.2001 128.952 30.6382C129.06 28.9454 129.084 27.248 129.164 25.5529C129.181 25.2005 129.071 25.0285 128.718 24.929C128.044 24.7405 127.372 24.538 126.721 24.2875C126.344 24.1435 126.153 24.2324 125.937 24.5415C124.912 26.0095 123.875 27.4681 122.811 28.9103C122.678 29.0917 122.373 29.2474 122.144 29.2521C120.721 29.2779 119.298 29.2767 117.876 29.2357C117.634 29.2287 117.317 29.0426 117.174 28.8447C116.124 27.3943 115.101 25.924 114.091 24.4467C113.875 24.1318 113.679 24.0545 113.306 24.1903C112.613 24.4443 111.904 24.6656 111.189 24.8517C110.792 24.9547 110.706 25.1561 110.718 25.5213C110.779 27.2948 110.831 29.0683 110.848 30.843C110.851 31.0842 110.696 31.4096 110.504 31.5548C109.407 32.3742 108.285 33.162 107.146 33.9276C106.959 34.0529 106.621 34.1021 106.406 34.0318C104.64 33.4559 102.889 32.8366 101.127 32.2501C100.958 32.1939 100.643 32.201 100.561 32.3028C99.9481 33.0661 99.3761 33.8609 98.7946 34.6429C100.052 36.2197 101.276 37.7392 102.472 39.2798C102.611 39.4601 102.693 39.7855 102.629 39.995C102.224 41.3331 101.784 42.6629 101.319 43.9834C101.251 44.1801 101.021 44.3931 100.817 44.4622C99.9842 44.7431 99.1365 44.9808 98.2865 45.2091C98.089 45.2617 95.8532 45.9536 95.445 46.0472C95.1307 46.1198 95.0344 46.2802 95.044 46.5822C95.0657 47.2834 95.0766 47.987 95.0537 48.6882C95.0404 49.071 95.1897 49.2208 95.5678 49.3215C97.3269 49.7886 99.0715 50.3025 100.829 50.7731C101.183 50.8679 101.356 51.033 101.466 51.3689C101.906 52.7058 102.391 54.0275 102.82 55.3667C102.888 55.5797 102.829 55.9098 102.694 56.0913C101.872 57.1975 101.01 58.2745 100.164 59.3632C100.068 59.485 99.9938 59.6208 99.9095 59.7507C101.036 58.6164 102.042 57.4024 103.066 56.2048C103.299 55.9333 103.342 55.6933 103.23 55.3585C102.74 53.8952 102.291 52.419 101.788 50.9604C101.716 50.7497 101.46 50.5144 101.24 50.45C99.6206 49.9817 97.9891 49.5486 96.3588 49.1166C95.4932 48.8872 95.4932 48.9001 95.5076 48.0279C95.516 47.5433 95.5088 47.0598 95.5088 46.519ZM126.192 71.6338C126.829 71.4184 127.416 71.2276 127.997 71.0204C128.484 70.8472 129.152 70.7804 129.391 70.4363C129.626 70.0991 129.424 69.4728 129.412 68.973C129.407 68.7587 129.403 68.5445 129.388 68.3303C129.335 67.5799 129.278 66.8295 129.223 66.078C129.165 66.0803 129.107 66.0827 129.051 66.085C129.051 67.3072 129.039 68.5305 129.059 69.7526C129.065 70.0851 128.953 70.2291 128.624 70.3204C127.726 70.5674 126.839 70.853 125.904 71.1363C126.012 71.3201 126.086 71.4489 126.193 71.6327L126.192 71.6338ZM144.817 49.455C145.229 49.517 145.353 49.3297 145.338 48.968C145.316 48.4623 145.315 47.9565 145.312 47.4497C145.308 46.4616 144.811 45.835 143.82 45.5696C142.863 45.3156 141.905 45.0674 140.946 44.8169C141.999 45.3039 143.079 45.7054 144.179 46.0379C144.685 46.1901 144.868 46.4043 144.832 46.9334C144.774 47.7669 144.816 48.6062 144.816 49.455H144.817ZM139.037 63.1432L139.114 63.3469C139.311 63.2895 139.593 63.2919 139.691 63.1631C140.257 62.4104 140.796 61.6354 141.302 60.8429C141.387 60.7083 141.343 60.3946 141.233 60.2599C140.633 59.5294 139.994 58.8294 139.368 58.1188C139.24 57.9737 139.11 57.8297 138.981 57.6845L138.868 57.7817C139.562 58.7205 140.255 59.6594 140.946 60.5947C140.287 61.475 139.663 62.3085 139.038 63.142L139.037 63.1432ZM115.954 68.3256C115.91 68.294 115.864 68.2624 115.82 68.2308C115.255 68.9589 114.67 69.673 114.135 70.4222C113.867 70.798 113.637 70.9162 113.165 70.7266C112.344 70.3976 111.484 70.1576 110.64 69.8802C110.592 69.927 110.544 69.9727 110.495 70.0195C110.615 70.1869 110.698 70.455 110.857 70.5077C111.857 70.8354 112.875 71.1152 113.92 71.4196C114.61 70.3719 115.281 69.3499 115.954 68.3279V68.3256Z" fill="white"/>
<path d="M104.833 46.842C104.992 43.652 106.14 40.8319 108.243 38.3982C110.648 35.6132 113.749 33.9896 117.428 33.3925C117.526 33.3773 117.626 33.3808 117.624 33.3808C116.549 33.7789 115.346 34.1207 114.24 34.6522C110.034 36.6703 107.443 39.9586 106.466 44.4071C106.09 46.1162 106.474 47.6357 108.229 48.6389C108.564 48.7583 109.089 48.9175 108.335 48.7525C108.794 48.7525 108.493 48.7841 108.884 48.7841C109.256 51.5257 110.448 53.8471 112.568 55.6861C113.51 56.5056 114.567 57.1471 115.79 57.5182C115.664 57.4386 115.54 57.3543 115.411 57.2794C112.327 55.4848 110.551 52.8286 109.932 49.4115C109.863 49.0334 109.871 48.7244 110.373 48.6377C110.559 48.6061 110.73 48.4692 110.898 48.3638C111.047 48.269 111.182 48.1496 111.421 47.9658C111.444 48.3076 111.695 49.6597 111.718 50.0097C111.259 49.6351 112.729 52.3042 112.317 52.3042C112.419 52.3615 110.442 49.0112 110.469 49.0123C111.479 49.0791 111.484 49.0779 111.769 50.0413C112.789 53.483 115.875 55.939 119.692 56.09C124.325 56.2738 128.178 52.8146 128.559 48.324C128.565 48.2538 128.574 48.1847 128.592 48.0103C129.7 49.4197 131.108 49.8575 132.778 49.5731C132.735 53.3847 129.723 57.5638 125.129 60.3207C125.331 60.2469 125.541 60.1849 125.737 60.0971C130.356 58.0262 133.161 54.5787 133.987 49.6831C134.106 48.9749 134.534 48.5745 135.036 48.0009C135.001 49.5836 134.742 51.0048 134.261 52.3861C132.129 58.491 126.262 62.518 119.635 62.3529C115.47 62.2487 111.94 60.6707 109.049 57.75C106.739 55.4157 105.355 52.6437 104.899 49.4314" fill="white"/>
<path d="M127.485 47.6778C127.509 51.6287 124.216 54.9638 120 54.9638C115.975 54.9638 112.534 51.8605 112.519 47.693C112.505 43.6485 115.852 40.3859 119.994 40.3906C124.157 40.3953 127.477 43.6239 127.485 47.6766V47.6778ZM115.352 48.825C115.641 49.3331 115.73 49.8517 116.074 50.3024C117.372 52.008 119.541 52.7326 121.56 52.0455C123.587 51.3559 124.855 49.456 124.744 47.3606C124.667 45.902 123.633 43.9973 121.559 43.3078C119.523 42.6312 117.304 43.3301 116.104 45.0661C115.816 45.4817 115.745 46.1174 115.372 46.3737C115.012 46.6207 114.39 46.5072 113.861 46.554V48.825H115.352Z" fill="white"/>
<path d="M115.351 48.8251H113.859V46.554C114.388 46.5072 115.009 46.6208 115.37 46.3738C115.744 46.1186 115.815 45.4817 116.102 45.0662C117.303 43.3313 119.522 42.6312 121.558 43.3079C123.631 43.9974 124.666 45.9008 124.743 47.3606C124.853 49.4561 123.586 51.356 121.559 52.0455C119.54 52.7327 117.372 52.0069 116.072 50.3024C115.729 49.8529 115.64 49.3343 115.351 48.8251Z" fill="#000A2F"/>
<defs>
<clipPath id="clip0_26_91">
<rect width="87" height="85" fill="white"/>
</clipPath>
</defs>
</svg>
