<svg width="96" height="59" viewBox="0 0 96 59" fill="none" xmlns="http://www.w3.org/2000/svg">
<g clip-path="url(#clip0_35_782)">
<path d="M3.93947 42.6253C5.32459 40.822 6.68063 39.0437 8.0565 37.2813C8.31158 36.9536 8.39485 36.6775 8.2455 36.2666C7.87939 35.2533 7.55162 34.2255 7.2516 33.1897C7.12075 32.7392 6.88681 32.5093 6.43083 32.3798C4.29764 31.7734 2.17502 31.1313 0.000861524 30.4892C0.000861524 28.8787 -0.013677 27.2749 0.0233301 25.6736C0.0272951 25.5151 0.319386 25.2839 0.51896 25.2231C2.47505 24.6233 4.43642 24.0394 6.40572 23.4832C6.85509 23.3563 7.11282 23.1529 7.24631 22.6918C7.53311 21.6996 7.85693 20.718 8.20717 19.7456C8.38163 19.2621 8.32348 18.908 7.99174 18.4918C6.6238 16.7704 5.29948 15.0133 3.93154 13.235C4.88447 11.9231 5.8189 10.6191 6.7824 9.3389C6.86831 9.22396 7.17097 9.183 7.33486 9.23189C7.96662 9.42213 8.58121 9.66655 9.20504 9.88322C9.78261 10.084 12.2581 10.9322 13.1595 11.3021C13.671 11.5109 14.0371 11.466 14.4706 11.1225C15.253 10.5028 16.0831 9.94267 16.9065 9.37589C17.3202 9.09052 17.4933 8.75759 17.4695 8.22649C17.3823 6.26986 17.3532 4.31059 17.3043 2.35132C17.2977 2.11087 17.3043 1.87043 17.3043 1.57977C18.8996 1.06056 20.4869 0.543988 22.1549 0.000994356C22.8448 1.00111 23.5413 2.0065 24.2352 3.01454C24.8339 3.88518 25.4035 4.77828 26.0419 5.61721C26.2203 5.85238 26.5944 6.05584 26.8865 6.06641C28.0244 6.11132 29.165 6.09679 30.303 6.04659C30.5541 6.03602 30.8793 5.84577 31.026 5.63703C32.3291 3.78477 33.6006 1.91006 34.9117 -0.00164795C36.4475 0.496427 37.9754 0.977326 39.4847 1.50579C39.6354 1.55863 39.7676 1.91006 39.7649 2.12012C39.7345 4.16659 39.6909 6.21438 39.6063 8.25952C39.5852 8.76684 39.7451 9.06278 40.1575 9.33758C40.998 9.90039 41.8201 10.4962 42.6158 11.1211C43.0202 11.4395 43.3625 11.5043 43.8621 11.3153C45.694 10.6231 47.547 9.98891 49.392 9.33362C49.618 9.25303 49.8467 9.18036 50.0938 9.09581C51.1168 10.4791 52.1253 11.8412 53.143 13.2165C51.7512 15.0317 50.3992 16.8153 49.022 18.579C48.7642 18.9093 48.6876 19.1881 48.833 19.595C49.2017 20.6308 49.5308 21.6811 49.8507 22.7327C49.9709 23.1278 50.1533 23.3814 50.5921 23.4541C50.7798 23.4858 55.0105 24.7356 56.7736 25.2773C56.9031 25.3169 57.0551 25.5508 57.0578 25.6961C57.0816 26.9948 57.0842 28.2935 57.0723 29.5908C57.0657 30.2726 56.2978 30.7693 55.3369 31.0124C53.628 31.4457 51.9482 31.9927 50.263 32.5132C50.1295 32.5542 49.9947 32.7392 49.9458 32.8858C49.5427 34.0735 49.1409 35.2612 48.7907 36.4648C48.7285 36.6788 48.8501 37.0131 48.9982 37.2086C50.3635 39.016 51.7526 40.8048 53.1443 42.6108C52.1279 44.0126 51.1366 45.3799 50.1269 46.7724C48.0043 46.0167 45.9094 45.2848 43.8264 44.5199C43.3863 44.3587 43.0599 44.3851 42.6832 44.6771C41.832 45.339 40.9557 45.9705 40.0663 46.5809C39.7134 46.8226 39.5957 47.0869 39.6116 47.5096C39.6856 49.5336 39.7253 51.559 39.7755 53.583C39.7808 53.801 39.7755 54.019 39.7755 54.2713C38.2265 54.7733 36.7052 55.2807 35.1708 55.7431C35.0333 55.7853 34.7478 55.5911 34.6368 55.4326C33.4394 53.7177 32.2525 51.995 31.0894 50.2576C30.8528 49.9036 30.6004 49.7675 30.1761 49.7794C29.0752 49.8098 27.9729 49.8071 26.8719 49.7794C26.4754 49.7701 26.2322 49.893 26.0089 50.2246C24.855 51.9421 23.6655 53.6358 22.5157 55.356C22.2712 55.7219 22.0716 55.8527 21.6196 55.6902C20.3983 55.2516 19.1626 54.85 17.9176 54.4853C17.4365 54.344 17.2633 54.1458 17.2858 53.6239C17.3717 51.5788 17.3902 49.531 17.4695 47.4845C17.4867 47.0472 17.3307 46.8002 16.9924 46.5663C16.0883 45.9388 15.1936 45.2954 14.3186 44.6282C14.0014 44.3864 13.7331 44.3481 13.3564 44.4868C11.3937 45.2069 9.41783 45.8886 7.45513 46.6073C7.08506 46.7434 6.87624 46.6998 6.64362 46.3668C5.76206 45.1078 4.84746 43.8712 3.93814 42.6161L3.93947 42.6253ZM11.0514 29.0584C11.514 34.063 13.5732 38.2589 17.4893 41.4535C21.2614 44.5291 25.6124 45.8252 30.4563 45.3112C43.1048 43.969 50.2181 29.6437 43.4656 18.8486C39.6883 12.8109 34.0354 10.0153 26.8495 10.5345C26.4939 10.5596 26.4265 10.5359 25.7313 10.6614C21.6235 11.3748 18.1594 13.2786 15.3998 16.4163C12.6255 19.5699 11.2127 23.285 11.0356 27.4678C11.0038 28.3992 11.0395 28.929 11.0514 29.0597V29.0584ZM1.65428 26.6222C3.76897 26.0132 5.79246 25.42 7.82388 24.8545C8.22435 24.7435 8.45036 24.5586 8.58121 24.1503C9.10988 22.4963 9.69142 20.858 10.2042 19.2C10.2835 18.945 10.1897 18.546 10.0271 18.3214C9.13631 17.0927 8.19395 15.8997 7.27803 14.6882C6.90928 14.1994 6.28677 13.6961 6.28413 13.1953C6.28016 12.6933 6.93175 12.2032 7.24367 11.6773C7.50139 11.2414 7.78291 11.2334 8.22039 11.3959C10.0337 12.071 11.855 12.725 13.6869 13.3446C13.9406 13.4305 14.3424 13.3724 14.5618 13.2191C16.0077 12.215 17.4351 11.1819 18.8361 10.1157C19.0661 9.94003 19.2604 9.55557 19.2604 9.26756C19.263 7.74955 19.193 6.23155 19.1573 4.71355C19.1427 4.10317 18.9233 3.31312 19.2181 2.92999C19.5432 2.50722 20.3627 2.4808 20.9495 2.24035C21.3262 2.08577 21.535 2.17033 21.7597 2.50458C22.8448 4.10846 23.9642 5.68856 25.0454 7.29508C25.2912 7.66104 25.541 7.82222 26.0009 7.81165C27.6293 7.77466 29.2602 7.75748 30.8885 7.8024C31.4793 7.81825 31.7965 7.60423 32.1058 7.1339C33.2385 5.40715 34.4121 3.70815 35.5844 1.98008C36.273 2.19411 36.9167 2.41606 37.5709 2.59177C37.9754 2.70011 38.1234 2.88771 38.1088 3.32898C38.0441 5.26447 38.0335 7.20128 37.9767 9.13544C37.9648 9.55425 38.0798 9.8198 38.434 10.0642C39.5944 10.8595 40.7707 11.643 41.8598 12.5295C42.6092 13.1399 43.2779 13.3354 44.1635 12.8585C44.6723 12.585 48.151 11.3655 48.3228 11.0828C47.6686 11.2955 47.0143 11.536 46.3429 11.713C46.1394 11.7672 43.0004 12.8585 42.4255 12.4502C41.2941 11.647 40.1826 10.8173 39.0274 10.0497C38.5093 9.70486 38.3256 9.33362 38.3653 8.69946C38.4842 6.78908 38.5106 4.8734 38.5979 2.96038C38.6164 2.56271 38.4961 2.3685 38.1088 2.2562C37.3687 2.0435 36.6312 1.81494 35.9162 1.53221C35.5025 1.36971 35.2924 1.47012 35.0558 1.8189C33.931 3.47563 32.7917 5.12178 31.6247 6.74944C31.478 6.95422 31.1436 7.12993 30.8925 7.13522C29.3303 7.16428 27.768 7.16296 26.2071 7.11672C25.9415 7.1088 25.5939 6.89873 25.4366 6.67546C24.2841 5.03855 23.1607 3.37918 22.0518 1.71189C21.8152 1.3565 21.5998 1.2693 21.19 1.42255C20.4301 1.70924 19.6516 1.95894 18.8665 2.16901C18.4304 2.28527 18.3365 2.51251 18.3497 2.92471C18.4171 4.92625 18.474 6.9278 18.4925 8.93067C18.4951 9.20282 18.3259 9.5701 18.1145 9.73393C16.9104 10.6587 15.6786 11.5479 14.4283 12.4119C14.2235 12.5533 13.8521 12.6088 13.6168 12.5295C11.6779 11.8795 9.75618 11.1806 7.82124 10.5187C7.6362 10.4553 7.28992 10.4632 7.20005 10.5781C6.52732 11.4395 5.89952 12.3366 5.26115 13.2191C6.64098 14.9987 7.98513 16.7136 9.29756 18.4522C9.45087 18.6557 9.54075 19.0229 9.4707 19.2594C9.02529 20.7695 8.54288 22.2703 8.03271 23.7606C7.95737 23.9826 7.70493 24.223 7.48157 24.301C6.56697 24.618 5.6365 24.8862 4.7034 25.1439C4.48664 25.2033 2.03228 25.9841 1.58423 26.0898C1.23928 26.1717 1.13354 26.3527 1.14411 26.6936C1.1679 27.4849 1.1798 28.2789 1.15469 29.0703C1.14015 29.5023 1.30404 29.6714 1.71905 29.7851C3.65002 30.3122 5.56513 30.8922 7.49478 31.4233C7.88336 31.5303 8.07236 31.7166 8.19395 32.0958C8.67637 33.6045 9.209 35.0961 9.67952 36.6075C9.75486 36.8479 9.69009 37.2205 9.54207 37.4253C8.63936 38.6738 7.69304 39.8892 6.7639 41.1179C6.65948 41.2553 6.57754 41.4086 6.48502 41.5552C7.72211 40.275 8.82572 38.905 9.95047 37.5534C10.2056 37.2469 10.2531 36.9761 10.1302 36.5982C9.59229 34.9468 9.0993 33.2808 8.54684 31.6347C8.46754 31.3969 8.18735 31.1313 7.94548 31.0586C6.16782 30.5302 4.37694 30.0414 2.58739 29.5539C1.6371 29.2949 1.6371 29.3094 1.65296 28.3252C1.66221 27.7782 1.65428 27.2326 1.65428 26.6222ZM35.336 54.9662C36.0351 54.7231 36.6788 54.5078 37.3172 54.2739C37.8511 54.0784 38.5847 54.0031 38.8477 53.6147C39.1054 53.2342 38.8834 52.5274 38.8701 51.9632C38.8649 51.7215 38.8609 51.4797 38.8437 51.2379C38.7855 50.3911 38.7234 49.5442 38.6626 48.696C38.5992 48.6987 38.5358 48.7013 38.4736 48.704C38.4736 50.0832 38.4604 51.4639 38.4829 52.8431C38.4895 53.2183 38.3666 53.3808 38.0058 53.4839C37.0198 53.7627 36.0457 54.085 35.0201 54.4047C35.1377 54.6122 35.2197 54.7575 35.3373 54.9649L35.336 54.9662ZM55.781 29.9357C56.233 30.0057 56.3692 29.7943 56.352 29.3861C56.3282 28.8153 56.3269 28.2446 56.3242 27.6725C56.3198 26.5575 55.774 25.8502 54.6867 25.5508C53.6359 25.2641 52.5839 24.984 51.5318 24.7013C52.687 25.2509 53.8725 25.704 55.0805 26.0792C55.6356 26.251 55.8365 26.4927 55.7969 27.0899C55.7335 28.0306 55.7797 28.9778 55.7797 29.9357H55.781ZM49.4356 45.3839L49.5202 45.6138C49.737 45.5491 50.0463 45.5517 50.1533 45.4064C50.7745 44.5569 51.3666 43.6823 51.9217 42.7878C52.0156 42.6359 51.9667 42.2818 51.8464 42.1299C51.1882 41.3055 50.4864 40.5155 49.7991 39.7135C49.659 39.5497 49.5163 39.3872 49.3748 39.2234L49.2506 39.333C50.0119 40.3926 50.7732 41.4522 51.5318 42.5078C50.8075 43.5013 50.1229 44.4419 49.437 45.3826L49.4356 45.3839ZM24.0977 51.2327C24.0488 51.197 23.9986 51.1613 23.9497 51.1256C23.3298 51.9474 22.6875 52.7533 22.1007 53.5988C21.8059 54.0229 21.5535 54.1564 21.0354 53.9423C20.134 53.5711 19.1903 53.3003 18.2638 52.9871C18.211 53.04 18.1581 53.0915 18.1052 53.1444C18.2361 53.3333 18.3273 53.6358 18.5017 53.6953C19.6 54.0652 20.7169 54.381 21.8641 54.7245C22.6214 53.542 23.3589 52.3887 24.0977 51.2353V51.2327Z" fill="white"/>
<path d="M11.8896 26.9871C12.0641 23.3869 13.325 20.2043 15.6326 17.4576C18.2734 14.3146 21.6767 12.4821 25.7157 11.8083C25.8228 11.7912 25.9325 11.7951 25.9312 11.7951C24.7509 12.2443 23.4306 12.6301 22.2159 13.2299C17.5993 15.5076 14.755 19.2187 13.6818 24.2391C13.2695 26.168 13.6911 27.8828 15.6181 29.015C15.9855 29.1498 16.5618 29.3295 15.7344 29.1432C16.238 29.1432 15.9076 29.1789 16.3371 29.1789C16.7455 32.273 18.054 34.8928 20.3801 36.9684C21.415 37.8932 22.5754 38.6172 23.9169 39.036C23.7795 38.9461 23.6433 38.851 23.5019 38.7665C20.1158 36.7411 18.1663 33.7434 17.487 29.887C17.4116 29.4603 17.4196 29.1115 17.9707 29.0137C18.1756 28.978 18.3632 28.8235 18.5469 28.7046C18.7108 28.5976 18.8589 28.4628 19.1219 28.2554C19.147 28.6412 19.4219 30.1671 19.447 30.5621C18.9435 30.1393 20.5572 33.1516 20.1052 33.1516C20.2176 33.2163 18.0474 29.4352 18.0764 29.4365C19.1853 29.5118 19.1906 29.5105 19.5038 30.5978C20.6233 34.482 24.0108 37.2537 28.2005 37.4242C33.2863 37.6316 37.5157 33.7276 37.9347 28.6596C37.9413 28.5804 37.9505 28.5024 37.9704 28.3056C39.1863 29.8962 40.7327 30.3904 42.5658 30.0693C42.5182 34.371 39.2114 39.0875 34.1692 42.1988C34.3912 42.1156 34.6212 42.0456 34.8366 41.9465C39.9066 39.6094 42.9861 35.7186 43.8928 30.1935C44.0236 29.3942 44.4928 28.9424 45.044 28.295C45.0056 30.0812 44.7215 31.6851 44.1928 33.244C41.8534 40.1339 35.4129 44.6786 28.1384 44.4923C23.5667 44.3748 19.6915 42.5938 16.5182 39.2976C13.9819 36.6632 12.4633 33.5347 11.9623 29.9095" fill="white"/>
<path d="M36.7562 27.9305C36.7826 32.3894 33.1678 36.1533 28.5393 36.1533C24.1209 36.1533 20.3435 32.651 20.3277 27.9477C20.3118 23.3831 23.9861 19.701 28.5327 19.7063C33.103 19.7116 36.7469 23.3553 36.7562 27.9292V27.9305ZM23.4376 29.2252C23.7548 29.7986 23.8526 30.3839 24.2293 30.8925C25.6541 32.8174 28.0357 33.6352 30.2522 32.8597C32.4766 32.0815 33.8683 29.9373 33.7467 27.5724C33.6621 25.9263 32.5268 23.7768 30.2509 22.9986C28.0159 22.235 25.58 23.0237 24.2623 24.983C23.9464 25.452 23.8685 26.1694 23.4587 26.4587C23.0636 26.7375 22.3816 26.6093 21.8 26.6622V29.2252H23.4376Z" fill="white"/>
<path d="M23.4364 29.2252H21.7988V26.6622C22.379 26.6093 23.061 26.7375 23.4575 26.4587C23.8673 26.1707 23.9452 25.452 24.2611 24.983C25.5788 23.025 28.0147 22.235 30.2496 22.9986C32.5256 23.7768 33.6609 25.925 33.7455 27.5724C33.8671 29.9373 32.4754 32.0815 30.251 32.8597C28.0345 33.6352 25.6542 32.8161 24.2281 30.8925C23.8514 30.3852 23.7536 29.7999 23.4364 29.2252Z" fill="#000A2F"/>
<path d="M53.418 18.1634H3.7334V39.7339H53.418V18.1634Z" fill="#000A2F" stroke="white" stroke-width="0.32805" stroke-miterlimit="10"/>
<path d="M52.7787 18.7644H4.37354V39.13H52.7787V18.7644Z" fill="#070A2A" stroke="white" stroke-width="0.32805" stroke-miterlimit="10"/>
<path d="M14.6958 20.8124H19.5556C20.872 20.8124 21.8791 21.2193 22.5783 22.0344C23.2761 22.8496 23.6264 24.0307 23.6264 25.5791C23.6264 27.1275 23.2775 28.3086 22.5783 29.1237C21.8805 29.9389 20.872 30.3458 19.5556 30.3458H14.6958V20.8137V20.8124ZM15.3051 21.5284V29.6298H19.4618C20.613 29.6298 21.4879 29.2849 22.0893 28.5966C22.6906 27.9083 22.9907 26.9016 22.9907 25.5791C22.9907 24.2566 22.688 23.2618 22.0853 22.5682C21.4813 21.8746 20.6037 21.5284 19.4538 21.5284H15.3064H15.3051ZM15.502 21.7847H19.4525C20.5456 21.7847 21.3756 22.1084 21.9426 22.7571C22.5096 23.4058 22.7924 24.3465 22.7924 25.5791C22.7924 26.8117 22.5109 27.7524 21.9465 28.4011C21.3822 29.0498 20.5535 29.3734 19.4605 29.3734H15.502V21.7847ZM16.1113 22.5008V28.6574H19.4605C20.342 28.6574 21.0108 28.3971 21.4654 27.8739C21.9201 27.3521 22.1488 26.5871 22.1488 25.5791C22.1488 24.5711 21.9214 23.8061 21.4654 23.2843C21.0108 22.7624 20.342 22.5008 19.4605 22.5008H16.1113Z" fill="white"/>
<path d="M31.7491 27.4958C31.7491 28.0996 31.5945 28.5607 31.2852 28.8804C30.9759 29.2001 30.5146 29.36 29.9027 29.36H24.5103V28.6307H29.8683C30.2741 28.6307 30.5834 28.529 30.7962 28.3269C31.0076 28.1247 31.1134 27.8301 31.1134 27.443C31.1134 27.0559 31.0076 26.7745 30.7962 26.5724C30.5847 26.3702 30.2754 26.2685 29.8683 26.2685H27.1378C26.2906 26.2685 25.6403 26.032 25.1883 25.559C24.7363 25.0861 24.5103 24.4136 24.5103 23.5403C24.5103 22.667 24.7363 21.9946 25.1883 21.5216C25.6403 21.0486 26.2906 20.8121 27.1378 20.8121H32.4958V21.5414H27.18C26.5271 21.5414 26.0249 21.7145 25.6733 22.0619C25.3218 22.4081 25.1447 22.9154 25.1447 23.5813C25.1447 24.2471 25.3218 24.7624 25.6773 25.127C26.0328 25.4917 26.5324 25.674 27.18 25.674H29.9027C31.1332 25.674 31.7491 26.2817 31.7491 27.4972V27.4958ZM31.9169 29.6229C31.4676 30.1051 30.816 30.3456 29.9635 30.3456H24.5103V29.6163H29.9027C30.5662 29.6163 31.075 29.4313 31.4266 29.0627C31.7782 28.6941 31.9553 28.171 31.9553 27.4958C31.9553 26.8207 31.7795 26.3015 31.4266 25.9369C31.075 25.5722 30.5662 25.3899 29.9027 25.3899H27.18C26.5906 25.3899 26.1372 25.2354 25.8187 24.9236C25.5015 24.6131 25.3416 24.1652 25.3416 23.5799C25.3416 22.9947 25.5002 22.5521 25.8187 22.2495C26.1359 21.9483 26.5906 21.7977 27.18 21.7977H32.4958V22.527H27.2316C26.3897 22.527 25.9694 22.8956 25.9694 23.6341C25.9694 24.3726 26.3897 24.7412 27.2316 24.7412H29.9622C30.8094 24.7412 31.4596 24.9817 31.9117 25.4639C32.3637 25.9461 32.5897 26.6411 32.5897 27.55C32.5897 28.459 32.365 29.1407 31.9156 29.6229H31.9169Z" fill="white"/>
<path d="M37.5449 30.3443C36.251 30.3443 35.2505 29.9308 34.5434 29.1024C33.8363 28.2741 33.4834 27.0996 33.4834 25.5789C33.4834 24.0583 33.8363 22.8825 34.5434 22.0554C35.2505 21.2271 36.251 20.8135 37.5449 20.8135H42.5766V21.5296H37.648C36.5259 21.5296 35.6576 21.8824 35.0417 22.5892C34.4258 23.296 34.1191 24.2921 34.1191 25.5803C34.1191 26.8684 34.4258 27.8751 35.0377 28.578C35.6496 29.2795 36.518 29.6309 37.6401 29.6309H42.0188V25.5538H37.6401V24.9051H42.5779V30.347H37.5462L37.5449 30.3443ZM42.5766 21.7846V22.5007H37.6388C36.7797 22.5007 36.1175 22.7702 35.651 23.3105C35.1844 23.8509 34.9518 24.6119 34.9518 25.5921C34.9518 26.5724 35.1844 27.3334 35.651 27.8738C36.1175 28.4141 36.7797 28.6836 37.6388 28.6836H41.2536V26.4694H37.6388V25.8207H41.8206V29.372H37.6388C36.5801 29.372 35.7607 29.0417 35.1831 28.3798C34.6042 27.7179 34.3161 26.7838 34.3161 25.5776C34.3161 24.3714 34.6081 23.4492 35.1923 22.7821C35.7765 22.1162 36.5946 21.7833 37.648 21.7833H42.5766V21.7846Z" fill="white"/>
<path d="M8.84082 32.6923C9.10119 32.6487 9.44351 32.6117 9.87834 32.6117C10.4123 32.6117 10.8035 32.7359 11.052 32.9592C11.282 33.1573 11.4181 33.4625 11.4181 33.8351C11.4181 34.2076 11.3058 34.5115 11.0956 34.7295C10.8101 35.0334 10.3436 35.1893 9.81622 35.1893C9.65497 35.1893 9.50563 35.1827 9.38139 35.1523V36.8288H8.84082V32.6936V32.6923ZM9.38139 34.7097C9.49902 34.7414 9.64837 34.7533 9.82812 34.7533C10.4797 34.7533 10.8775 34.4362 10.8775 33.8589C10.8775 33.2815 10.4863 33.0397 9.89023 33.0397C9.65365 33.0397 9.47391 33.0582 9.38139 33.0833V34.7097Z" fill="white"/>
<path d="M14.3121 34.8653H12.6851V36.374H14.4984V36.8272H12.1445V32.6418H14.4059V33.0949H12.6851V34.4174H14.3121V34.864V34.8653Z" fill="white"/>
<path d="M18.7299 34.9894C18.6995 34.4054 18.6612 33.7039 18.6678 33.1821H18.6493C18.5065 33.6722 18.3321 34.1941 18.1219 34.7714L17.3831 36.802H16.9734L16.2967 34.8084C16.0984 34.2192 15.9306 33.6788 15.8116 33.1821H15.7997C15.7878 33.7039 15.7561 34.4054 15.7191 35.0317L15.6068 36.8258H15.0913L15.3834 32.6404H16.0733L16.787 34.6644C16.9615 35.1796 17.1042 35.6394 17.21 36.0741H17.2285C17.3342 35.6513 17.4835 35.1928 17.6699 34.6644L18.4153 32.6404H19.1053L19.3656 36.8258H18.8369L18.7312 34.9881L18.7299 34.9894Z" fill="white"/>
<path d="M23.7735 34.6923C23.7735 36.1324 22.8973 36.896 21.8293 36.896C20.7614 36.896 19.9473 36.0386 19.9473 34.7729C19.9473 33.4438 20.7733 32.5745 21.8915 32.5745C23.0096 32.5745 23.7735 33.4504 23.7735 34.6923ZM20.5248 34.761C20.5248 35.6555 21.0099 36.4561 21.8597 36.4561C22.7096 36.4561 23.2012 35.6673 23.2012 34.7174C23.2012 33.8851 22.7664 33.0158 21.8663 33.0158C20.9663 33.0158 20.5248 33.8415 20.5248 34.761Z" fill="white"/>
<path d="M25.0152 32.6431V34.3937H27.04V32.6431H27.5872V36.8285H27.04V34.8666H25.0152V36.8285H24.4746V32.6431H25.0152Z" fill="white"/>
<path d="M29.3197 33.1015H28.0469V32.6418H31.1462V33.1015H29.8668V36.8272H29.321V33.1015H29.3197Z" fill="white"/>
<path d="M33.6062 35.5113L33.1714 36.8272H32.6123L34.0344 32.6418H34.686L36.1148 36.8272H35.5372L35.0905 35.5113H33.6062ZM34.9794 35.0886L34.5697 33.8837C34.4772 33.6102 34.4151 33.3618 34.353 33.12H34.3411C34.2789 33.3684 34.2102 33.6234 34.1296 33.8771L33.7199 35.0872H34.9808L34.9794 35.0886Z" fill="white"/>
<path d="M37.2641 32.6434V34.4996H37.4319L38.8673 32.6434H39.5202L37.9368 34.5617C38.6267 34.6555 38.8937 35.0769 39.1105 35.6424C39.2651 36.0704 39.3841 36.4562 39.5704 36.8288H38.9862C38.8369 36.5434 38.7192 36.1709 38.6069 35.8419C38.4139 35.2896 38.147 34.9105 37.4399 34.9105H37.2654V36.8288H36.7314V32.6434H37.2654H37.2641Z" fill="white"/>
<path d="M43.122 32.6434V36.8288H42.5814V33.0965H40.6372V36.8288H40.0967V32.6434H43.122Z" fill="white"/>
<path d="M47.0927 32.6431V36.8285H46.5521V33.0963H44.6079V36.8285H44.0674V32.6431H47.0927Z" fill="white"/>
</g>
<path d="M54.8216 54.0206C55.4266 53.4191 56.0189 52.826 56.6199 52.2382C56.7313 52.129 56.7676 52.0369 56.7024 51.8998C56.5425 51.5619 56.3993 51.2191 56.2683 50.8736C56.2111 50.7234 56.109 50.6467 55.9098 50.6035C54.9781 50.4013 54.051 50.1871 53.1013 49.973C53.1013 49.4359 53.095 48.901 53.1111 48.3669C53.1129 48.3141 53.2405 48.2369 53.3276 48.2167C54.182 48.0166 55.0387 47.8219 55.8988 47.6364C56.0951 47.5941 56.2077 47.5262 56.266 47.3724C56.3912 47.0415 56.5327 46.7141 56.6857 46.3899C56.7619 46.2286 56.7365 46.1105 56.5916 45.9717C55.9941 45.3976 55.4156 44.8115 54.8182 44.2185C55.2344 43.7809 55.6425 43.346 56.0634 42.9191C56.1009 42.8807 56.2331 42.8671 56.3047 42.8834C56.5806 42.9468 56.849 43.0283 57.1215 43.1006C57.3738 43.1676 58.455 43.4505 58.8487 43.5738C59.0721 43.6435 59.232 43.6285 59.4214 43.5139C59.7631 43.3073 60.1257 43.1204 60.4853 42.9314C60.666 42.8362 60.7416 42.7252 60.7312 42.5481C60.6931 41.8955 60.6804 41.2421 60.6591 40.5886C60.6562 40.5084 60.6591 40.4282 60.6591 40.3313C61.3559 40.1581 62.0492 39.9858 62.7777 39.8047C63.079 40.1383 63.3833 40.4736 63.6863 40.8098C63.9479 41.1002 64.1967 41.398 64.4755 41.6778C64.5534 41.7563 64.7168 41.8241 64.8444 41.8276C65.3414 41.8426 65.8396 41.8378 66.3366 41.821C66.4463 41.8175 66.5883 41.7541 66.6524 41.6844C67.2216 41.0667 67.777 40.4414 68.3496 39.8039C69.0204 39.97 69.6878 40.1304 70.347 40.3066C70.4128 40.3242 70.4705 40.4414 70.4694 40.5115C70.4561 41.194 70.4371 41.877 70.4001 42.5591C70.3909 42.7283 70.4607 42.827 70.6408 42.9186C71.008 43.1063 71.3671 43.3051 71.7146 43.5135C71.8912 43.6197 72.0407 43.6412 72.259 43.5782C73.0591 43.3474 73.8684 43.1359 74.6743 42.9173C74.773 42.8904 74.8729 42.8662 74.9808 42.838C75.4277 43.2993 75.8681 43.7536 76.3126 44.2123C75.7048 44.8177 75.1142 45.4125 74.5127 46.0008C74.4001 46.1109 74.3666 46.2039 74.4301 46.3396C74.5912 46.6851 74.7349 47.0354 74.8746 47.3861C74.9272 47.5178 75.0068 47.6024 75.1985 47.6267C75.2804 47.6373 77.1283 48.0541 77.8984 48.2347C77.955 48.248 78.0214 48.3259 78.0225 48.3744C78.0329 48.8075 78.0341 49.2407 78.0289 49.6734C78.026 49.9007 77.6906 50.0664 77.2709 50.1475C76.5245 50.292 75.7908 50.4744 75.0547 50.648C74.9964 50.6617 74.9375 50.7234 74.9162 50.7723C74.7401 51.1684 74.5646 51.5645 74.4116 51.9659C74.3845 52.0373 74.4376 52.1488 74.5023 52.214C75.0986 52.8168 75.7053 53.4134 76.3132 54.0157C75.8693 54.4832 75.4363 54.9393 74.9953 55.4037C74.0682 55.1516 73.1532 54.9075 72.2434 54.6524C72.0511 54.5987 71.9086 54.6075 71.744 54.7048C71.3723 54.9256 70.9895 55.1362 70.601 55.3398C70.4469 55.4204 70.3955 55.5085 70.4024 55.6495C70.4348 56.3246 70.4521 57 70.474 57.6751C70.4763 57.7478 70.474 57.8205 70.474 57.9046C69.7974 58.0721 69.133 58.2413 68.4628 58.3955C68.4027 58.4096 68.278 58.3448 68.2295 58.292C67.7065 57.72 67.1881 57.1455 66.6801 56.566C66.5768 56.4479 66.4665 56.4026 66.2812 56.4065C65.8003 56.4167 65.3189 56.4158 64.838 56.4065C64.6648 56.4034 64.5586 56.4444 64.4611 56.555C63.9571 57.1278 63.4375 57.6927 62.9353 58.2664C62.8285 58.3884 62.7413 58.4321 62.5439 58.3779C62.0105 58.2316 61.4707 58.0976 60.9269 57.976C60.7168 57.9289 60.6412 57.8628 60.651 57.6887C60.6885 57.0067 60.6966 56.3237 60.7312 55.6412C60.7387 55.4953 60.6706 55.4129 60.5228 55.3349C60.128 55.1256 59.7372 54.9111 59.355 54.6885C59.2165 54.6079 59.0993 54.5951 58.9347 54.6414C58.0775 54.8815 57.2145 55.1089 56.3572 55.3486C56.1956 55.394 56.1043 55.3794 56.0027 55.2684C55.6177 54.8485 55.2182 54.4361 54.821 54.0175L54.8216 54.0206ZM57.928 49.4958C58.13 51.1649 59.0294 52.5643 60.7399 53.6297C62.3875 54.6555 64.2879 55.0877 66.4036 54.9163C71.9282 54.4687 75.0351 49.691 72.0858 46.0907C70.4359 44.077 67.9669 43.1447 64.8282 43.3178C64.6729 43.3262 64.6435 43.3183 64.3398 43.3601C62.5456 43.5981 61.0326 44.233 59.8272 45.2795C58.6155 46.3312 57.9984 47.5703 57.921 48.9653C57.9072 49.2759 57.9228 49.4526 57.928 49.4962V49.4958ZM53.8235 48.6833C54.7472 48.4802 55.631 48.2823 56.5183 48.0937C56.6932 48.0567 56.7919 47.995 56.849 47.8589C57.0799 47.3072 57.3339 46.7609 57.5579 46.2079C57.5926 46.1228 57.5516 45.9898 57.4806 45.9149C57.0915 45.5051 56.6799 45.1072 56.2798 44.7031C56.1188 44.5401 55.8469 44.3722 55.8457 44.2052C55.844 44.0378 56.1286 43.8743 56.2648 43.699C56.3774 43.5536 56.5004 43.5509 56.6914 43.6051C57.4835 43.8303 58.279 44.0484 59.0791 44.255C59.1899 44.2837 59.3654 44.2643 59.4612 44.2132C60.0928 43.8783 60.7162 43.5337 61.3282 43.1782C61.4286 43.1195 61.5135 42.9913 61.5135 42.8953C61.5146 42.389 61.484 41.8827 61.4684 41.3764C61.4621 41.1729 61.3663 40.9094 61.495 40.7816C61.637 40.6406 61.9949 40.6318 62.2512 40.5516C62.4157 40.5 62.507 40.5282 62.6051 40.6397C63.079 41.1746 63.568 41.7016 64.0402 42.2374C64.1476 42.3595 64.2567 42.4132 64.4576 42.4097C65.1688 42.3974 65.8812 42.3916 66.5924 42.4066C66.8504 42.4119 66.989 42.3405 67.1241 42.1837C67.6188 41.6078 68.1314 41.0411 68.6435 40.4648C68.9442 40.5362 69.2254 40.6102 69.5111 40.6688C69.6878 40.7049 69.7524 40.7675 69.7461 40.9147C69.7178 41.5602 69.7132 42.2061 69.6883 42.8512C69.6831 42.9909 69.7334 43.0795 69.8881 43.161C70.3949 43.4262 70.9087 43.6875 71.3844 43.9832C71.7117 44.1867 72.0038 44.2519 72.3906 44.0929C72.6128 44.0017 74.1322 43.595 74.2073 43.5007C73.9215 43.5716 73.6358 43.6518 73.3425 43.7109C73.2536 43.7289 71.8826 44.0929 71.6315 43.9567C71.1373 43.6888 70.6518 43.4121 70.1473 43.1561C69.921 43.0411 69.8407 42.9173 69.8581 42.7058C69.91 42.0687 69.9216 41.4298 69.9597 40.7917C69.9677 40.6591 69.9152 40.5943 69.7461 40.5569C69.4228 40.4859 69.1007 40.4097 68.7884 40.3154C68.6077 40.2612 68.5159 40.2947 68.4125 40.411C67.9213 40.9636 67.4237 41.5126 66.9139 42.0554C66.8498 42.1237 66.7038 42.1823 66.5941 42.1841C65.9118 42.1938 65.2294 42.1934 64.5476 42.1779C64.4316 42.1753 64.2798 42.1052 64.2111 42.0308C63.7077 41.4848 63.217 40.9314 62.7327 40.3754C62.6293 40.2568 62.5352 40.2277 62.3563 40.2789C62.0244 40.3745 61.6843 40.4577 61.3414 40.5278C61.1509 40.5666 61.1099 40.6424 61.1157 40.7798C61.1452 41.4474 61.17 42.1149 61.1781 42.7829C61.1792 42.8737 61.1053 42.9962 61.013 43.0508C60.4871 43.3592 59.949 43.6558 59.4029 43.944C59.3134 43.9911 59.1512 44.0096 59.0485 43.9832C58.2016 43.7664 57.3622 43.5333 56.5171 43.3125C56.4363 43.2914 56.285 43.294 56.2458 43.3324C55.9519 43.6197 55.6777 43.9188 55.3989 44.2132C56.0016 44.8067 56.5887 45.3786 57.1619 45.9585C57.2289 46.0263 57.2681 46.1488 57.2375 46.2277C57.043 46.7313 56.8323 47.2319 56.6095 47.7289C56.5766 47.8029 56.4663 47.8831 56.3687 47.9091C55.9693 48.0149 55.5629 48.1043 55.1553 48.1902C55.0606 48.2101 53.9886 48.4705 53.7929 48.5057C53.6422 48.533 53.5961 48.5934 53.6007 48.7071C53.6111 48.971 53.6163 49.2358 53.6053 49.4998C53.5989 49.6438 53.6705 49.7002 53.8518 49.7381C54.6952 49.914 55.5317 50.1074 56.3745 50.2845C56.5442 50.3202 56.6268 50.3823 56.6799 50.5088C56.8906 51.012 57.1232 51.5094 57.3288 52.0135C57.3617 52.0937 57.3334 52.218 57.2687 52.2863C56.8744 52.7027 56.4611 53.108 56.0553 53.5178C56.0097 53.5636 55.9739 53.6147 55.9335 53.6637C56.4738 53.2367 56.9558 52.7798 57.4471 52.329C57.5585 52.2268 57.5793 52.1365 57.5256 52.0104C57.2907 51.4597 57.0753 50.904 56.834 50.355C56.7994 50.2757 56.677 50.1871 56.5714 50.1629C55.7949 49.9867 55.0127 49.8236 54.2311 49.661C53.816 49.5747 53.816 49.5795 53.8229 49.2513C53.827 49.0688 53.8235 48.8869 53.8235 48.6833ZM68.5349 58.1364C68.8403 58.0553 69.1214 57.9835 69.4003 57.9055C69.6335 57.8403 69.9539 57.8152 70.0688 57.6857C70.1813 57.5588 70.0843 57.323 70.0786 57.1349C70.0763 57.0542 70.0745 56.9736 70.067 56.893C70.0416 56.6105 70.0145 56.3281 69.9879 56.0452C69.9602 56.0461 69.9325 56.047 69.9054 56.0479C69.9054 56.5079 69.8996 56.9683 69.9094 57.4283C69.9123 57.5535 69.8586 57.6077 69.701 57.642C69.2704 57.735 68.8449 57.8425 68.397 57.9491C68.4483 58.0183 68.4841 58.0668 68.5355 58.136L68.5349 58.1364ZM77.4649 49.7884C77.6623 49.8117 77.7218 49.7412 77.7143 49.6051C77.7039 49.4147 77.7033 49.2244 77.7021 49.0336C77.7002 48.6617 77.4618 48.4258 76.9869 48.3259C76.528 48.2303 76.0684 48.1369 75.6089 48.0426C76.1135 48.2259 76.6313 48.3771 77.1589 48.5022C77.4014 48.5595 77.4891 48.6401 77.4718 48.8393C77.4441 49.153 77.4643 49.4689 77.4643 49.7884H77.4649ZM74.6934 54.9406L74.7303 55.0172C74.825 54.9957 74.9601 54.9965 75.0068 54.9481C75.2781 54.6647 75.5368 54.3731 75.7792 54.0748C75.8202 54.0241 75.7988 53.906 75.7463 53.8553C75.4588 53.5804 75.1523 53.3169 74.8521 53.0494C74.7909 52.9948 74.7286 52.9406 74.6668 52.886L74.6125 52.9225C74.945 53.2759 75.2776 53.6293 75.6089 53.9813C75.2926 54.3127 74.9935 54.6264 74.6939 54.9401L74.6934 54.9406ZM63.6263 56.8912C63.6049 56.8793 63.583 56.8674 63.5617 56.8555C63.2909 57.1296 63.0103 57.3984 62.754 57.6804C62.6253 57.8218 62.515 57.8663 62.2887 57.7949C61.895 57.6711 61.4829 57.5808 61.0782 57.4764C61.0551 57.494 61.032 57.5112 61.0089 57.5288C61.0661 57.5918 61.1059 57.6927 61.1821 57.7125C61.6618 57.8359 62.1496 57.9412 62.6507 58.0558C62.9815 57.6614 63.3036 57.2768 63.6263 56.8921V56.8912Z" fill="white"/>
<path d="M58.2939 48.8049C58.3701 47.6042 58.9209 46.5427 59.9288 45.6267C61.0822 44.5784 62.5687 43.9673 64.3329 43.7426C64.3796 43.7368 64.4276 43.7382 64.427 43.7382C63.9115 43.888 63.3348 44.0166 62.8042 44.2167C60.7878 44.9763 59.5455 46.214 59.0767 47.8884C58.8966 48.5317 59.0808 49.1036 59.9225 49.4812C60.0829 49.5262 60.3346 49.5861 59.9733 49.524C60.1932 49.524 60.0489 49.5359 60.2365 49.5359C60.4149 50.5678 60.9864 51.4416 62.0024 52.1338C62.4544 52.4422 62.9613 52.6837 63.5472 52.8234C63.4872 52.7934 63.4277 52.7617 63.3659 52.7335C61.8869 52.058 61.0355 51.0582 60.7387 49.7721C60.7058 49.6297 60.7093 49.5134 60.95 49.4808C61.0395 49.4689 61.1215 49.4174 61.2017 49.3777C61.2733 49.342 61.3379 49.2971 61.4528 49.2279C61.4638 49.3566 61.5839 49.8655 61.5948 49.9972C61.3749 49.8562 62.0798 50.8608 61.8823 50.8608C61.9314 50.8824 60.9835 49.6214 60.9962 49.6218C61.4805 49.6469 61.4828 49.6465 61.6197 50.0091C62.1086 51.3045 63.5882 52.229 65.4182 52.2858C67.6395 52.355 69.4868 51.0529 69.6698 49.3627C69.6727 49.3363 69.6768 49.3103 69.6854 49.2446C70.2165 49.7751 70.8919 49.9399 71.6926 49.8329C71.6718 51.2675 70.2275 52.8406 68.0252 53.8782C68.1221 53.8505 68.2226 53.8271 68.3167 53.7941C70.5311 53.0146 71.8762 51.717 72.2722 49.8743C72.3294 49.6077 72.5343 49.457 72.775 49.2411C72.7583 49.8368 72.6342 50.3717 72.4033 50.8917C71.3815 53.1895 68.5684 54.7053 65.391 54.6431C63.3942 54.6039 61.7016 54.01 60.3156 52.9106C59.2078 52.032 58.5445 50.9886 58.3257 49.7795" fill="white"/>
<path d="M69.1546 49.1194C69.1662 50.6065 67.5873 51.8619 65.5657 51.8619C63.6358 51.8619 61.986 50.6938 61.979 49.1252C61.9721 47.6028 63.5769 46.3748 65.5628 46.3766C67.559 46.3783 69.1506 47.5936 69.1546 49.119V49.1194ZM63.3374 49.5512C63.4759 49.7425 63.5186 49.9377 63.6832 50.1073C64.3055 50.7493 65.3457 51.022 66.3138 50.7634C67.2854 50.5039 67.8933 49.7887 67.8402 49C67.8032 48.451 67.3073 47.7341 66.3132 47.4746C65.3371 47.2199 64.2731 47.483 63.6976 48.1364C63.5596 48.2928 63.5256 48.5321 63.3466 48.6286C63.174 48.7216 62.8761 48.6788 62.6221 48.6964V49.5512H63.3374Z" fill="white"/>
<path d="M63.3368 49.5513H62.6216V48.6965C62.875 48.6789 63.1729 48.7216 63.3461 48.6287C63.525 48.5326 63.5591 48.2929 63.6971 48.1365C64.2726 47.4835 65.3365 47.22 66.3127 47.4747C67.3068 47.7342 67.8027 48.4506 67.8396 49.0001C67.8927 49.7888 67.2849 50.5039 66.3133 50.7635C65.3452 51.0221 64.3055 50.7489 63.6826 50.1074C63.5181 49.9382 63.4754 49.743 63.3368 49.5513Z" fill="#000A2F"/>
<path d="M63.556 35.6037C64.3838 34.7828 65.1944 33.9734 66.0167 33.1711C66.1692 33.022 66.2189 32.8963 66.1297 32.7092C65.9108 32.248 65.7149 31.7801 65.5356 31.3086C65.4574 31.1035 65.3176 30.9989 65.045 30.94C63.77 30.6639 62.5014 30.3717 61.2019 30.0794C61.2019 29.3463 61.1932 28.6162 61.2153 27.8873C61.2177 27.8152 61.3923 27.7099 61.5115 27.6823C62.6807 27.4092 63.853 27.1434 65.03 26.8902C65.2986 26.8325 65.4527 26.7399 65.5325 26.53C65.7039 26.0784 65.8974 25.6315 66.1068 25.1889C66.211 24.9688 66.1763 24.8076 65.978 24.6182C65.1604 23.8346 64.3688 23.0348 63.5512 22.2253C64.1208 21.6281 64.6793 21.0346 65.2552 20.4518C65.3065 20.3995 65.4874 20.3808 65.5854 20.4031C65.963 20.4897 66.3303 20.601 66.7032 20.6996C67.0484 20.791 68.528 21.1771 69.0667 21.3455C69.3725 21.4405 69.5913 21.42 69.8504 21.2637C70.3181 20.9816 70.8141 20.7266 71.3063 20.4686C71.5536 20.3387 71.657 20.1872 71.6428 19.9454C71.5907 19.0548 71.5733 18.1629 71.5441 17.2711C71.5401 17.1616 71.5441 17.0522 71.5441 16.9199C72.4976 16.6835 73.4463 16.4484 74.4432 16.2012C74.8556 16.6565 75.2719 17.1141 75.6866 17.573C76.0445 17.9693 76.385 18.3758 76.7665 18.7577C76.8732 18.8648 77.0967 18.9574 77.2713 18.9622C77.9515 18.9826 78.6332 18.976 79.3134 18.9532C79.4635 18.9483 79.6578 18.8617 79.7455 18.7667C80.5244 17.9236 81.2843 17.0702 82.068 16.2C82.9859 16.4267 83.8991 16.6456 84.8012 16.8862C84.8913 16.9102 84.9703 17.0702 84.9687 17.1658C84.9505 18.0974 84.9245 19.0295 84.8739 19.9605C84.8613 20.1914 84.9569 20.3261 85.2033 20.4512C85.7057 20.7074 86.1971 20.9786 86.6727 21.2631C86.9144 21.408 87.119 21.4375 87.4176 21.3515C88.5125 21.0364 89.62 20.7477 90.7228 20.4494C90.8579 20.4127 90.9945 20.3796 91.1423 20.3412C91.7537 20.9708 92.3564 21.5908 92.9647 22.2169C92.1329 23.0432 91.3247 23.855 90.5016 24.6579C90.3476 24.8082 90.3017 24.9351 90.3886 25.1204C90.609 25.5918 90.8057 26.07 90.9969 26.5487C91.0688 26.7285 91.1778 26.8439 91.4401 26.877C91.5523 26.8914 94.0809 27.4604 95.1347 27.7069C95.2122 27.725 95.303 27.8314 95.3046 27.8976C95.3188 28.4887 95.3204 29.0799 95.3133 29.6704C95.3093 29.9808 94.8504 30.2069 94.276 30.3175C93.2546 30.5148 92.2506 30.7638 91.2434 31.0007C91.1636 31.0194 91.083 31.1035 91.0538 31.1703C90.8129 31.7109 90.5727 32.2516 90.3634 32.7995C90.3262 32.8969 90.3989 33.049 90.4874 33.138C91.3034 33.9607 92.1337 34.775 92.9655 35.5971C92.358 36.2352 91.7655 36.8576 91.162 37.4915C89.8933 37.1475 88.6412 36.8143 87.3963 36.4661C87.1332 36.3927 86.9381 36.4048 86.7129 36.5377C86.2042 36.839 85.6805 37.1264 85.1488 37.4043C84.9379 37.5143 84.8676 37.6346 84.8771 37.827C84.9213 38.7484 84.945 39.6703 84.975 40.5916C84.9782 40.6908 84.975 40.7901 84.975 40.9049C84.0492 41.1335 83.1399 41.3644 82.2228 41.5749C82.1406 41.5941 81.97 41.5057 81.9036 41.4335C81.1879 40.6529 80.4786 39.8687 79.7834 39.0779C79.642 38.9167 79.4911 38.8548 79.2375 38.8602C78.5795 38.8741 77.9207 38.8728 77.2626 38.8602C77.0256 38.856 76.8803 38.9119 76.7468 39.0629C76.0571 39.8447 75.3462 40.6157 74.6589 41.3987C74.5128 41.5652 74.3935 41.6248 74.1233 41.5508C73.3934 41.3512 72.6548 41.1683 71.9106 41.0024C71.6231 40.938 71.5196 40.8478 71.533 40.6102C71.5844 39.6793 71.5954 38.7472 71.6428 37.8156C71.6531 37.6166 71.5599 37.5041 71.3576 37.3976C70.8173 37.112 70.2825 36.8191 69.7595 36.5154C69.57 36.4054 69.4096 36.3879 69.1845 36.4511C68.0114 36.7788 66.8304 37.0891 65.6573 37.4163C65.4361 37.4782 65.3113 37.4584 65.1722 37.3068C64.6453 36.7337 64.0987 36.1708 63.5552 35.5995L63.556 35.6037ZM67.8068 29.4281C68.0832 31.7061 69.314 33.6161 71.6547 35.0703C73.9092 36.4703 76.5098 37.0603 79.405 36.8263C86.9649 36.2153 91.2165 29.6945 87.1806 24.7806C84.9229 22.0322 81.5442 20.7597 77.2492 20.9961C77.0367 21.0075 76.9964 20.9967 76.5809 21.0538C74.1257 21.3785 72.0552 22.2451 70.4057 23.6734C68.7476 25.1089 67.9031 26.8 67.7973 28.704C67.7783 29.128 67.7996 29.3692 67.8068 29.4287V29.4281ZM62.1901 28.3191C63.4541 28.0419 64.6635 27.7719 65.8777 27.5145C66.117 27.464 66.2521 27.3798 66.3303 27.1939C66.6463 26.441 66.9939 25.6953 67.3004 24.9405C67.3478 24.8245 67.2917 24.6429 67.1945 24.5406C66.6621 23.9813 66.0989 23.4383 65.5514 22.8868C65.331 22.6643 64.9589 22.4352 64.9574 22.2073C64.955 21.9787 65.3444 21.7556 65.5309 21.5163C65.6849 21.3178 65.8532 21.3142 66.1147 21.3882C67.1985 21.6955 68.2871 21.9932 69.3819 22.2752C69.5336 22.3143 69.7738 22.2878 69.9049 22.2181C70.7691 21.761 71.6223 21.2907 72.4596 20.8054C72.5971 20.7254 72.7132 20.5504 72.7132 20.4193C72.7148 19.7283 72.6729 19.0373 72.6516 18.3464C72.6429 18.0685 72.5118 17.7089 72.6879 17.5345C72.8823 17.342 73.372 17.33 73.7228 17.2206C73.9479 17.1502 74.0727 17.1887 74.207 17.3408C74.8556 18.0709 75.5247 18.7902 76.1709 19.5215C76.3178 19.688 76.4671 19.7614 76.742 19.7566C77.7153 19.7398 78.6901 19.7319 79.6633 19.7524C80.0164 19.7596 80.206 19.6622 80.3909 19.4481C81.0679 18.6621 81.7694 17.8887 82.4701 17.1021C82.8816 17.1995 83.2663 17.3005 83.6574 17.3805C83.8991 17.4298 83.9876 17.5152 83.9789 17.7161C83.9402 18.5971 83.9339 19.4788 83.8999 20.3592C83.8928 20.5498 83.9615 20.6707 84.1732 20.782C84.8668 21.144 85.5699 21.5006 86.2208 21.9042C86.6687 22.182 87.0684 22.271 87.5977 22.0539C87.9018 21.9294 89.981 21.3743 90.0837 21.2456C89.6927 21.3425 89.3017 21.4519 88.9004 21.5325C88.7787 21.5572 86.9025 22.0539 86.5589 21.8681C85.8827 21.5024 85.2183 21.1248 84.5279 20.7754C84.2182 20.6184 84.1084 20.4494 84.1321 20.1607C84.2032 19.2911 84.219 18.4191 84.2712 17.5483C84.2822 17.3673 84.2103 17.2789 83.9789 17.2278C83.5365 17.131 83.0957 17.0269 82.6683 16.8982C82.4211 16.8243 82.2955 16.87 82.1541 17.0287C81.4818 17.7829 80.8009 18.5322 80.1033 19.2731C80.0156 19.3663 79.8158 19.4463 79.6657 19.4487C78.7319 19.4619 77.7982 19.4613 76.8653 19.4403C76.7065 19.4367 76.4987 19.341 76.4047 19.2394C75.7159 18.4943 75.0444 17.739 74.3816 16.98C74.2402 16.8182 74.1115 16.7785 73.8666 16.8483C73.4123 16.9788 72.947 17.0925 72.4778 17.1881C72.2171 17.241 72.161 17.3444 72.1689 17.5321C72.2092 18.4432 72.2432 19.3543 72.2542 20.266C72.2558 20.3899 72.1547 20.5571 72.0283 20.6316C71.3087 21.0526 70.5724 21.4573 69.8251 21.8506C69.7027 21.915 69.4807 21.9402 69.3401 21.9042C68.1812 21.6083 67.0326 21.2901 65.8761 20.9888C65.7655 20.96 65.5585 20.9636 65.5048 21.0159C65.1027 21.408 64.7275 21.8164 64.3459 22.2181C65.1707 23.0281 65.974 23.8087 66.7585 24.6002C66.8501 24.6928 66.9038 24.86 66.862 24.9676C66.5957 25.655 66.3074 26.3382 66.0025 27.0165C65.9575 27.1176 65.8066 27.227 65.6731 27.2625C65.1264 27.4068 64.5703 27.5289 64.0126 27.6462C63.883 27.6732 62.4161 28.0287 62.1483 28.0768C61.9421 28.1141 61.8789 28.1964 61.8852 28.3516C61.8994 28.7118 61.9065 29.0733 61.8915 29.4335C61.8828 29.6302 61.9808 29.7071 62.2288 29.7588C63.383 29.9988 64.5276 30.2628 65.681 30.5046C65.9132 30.5533 66.0262 30.6381 66.0989 30.8107C66.3872 31.4975 66.7056 32.1764 66.9868 32.8644C67.0318 32.9739 66.9931 33.1434 66.9046 33.2367C66.3651 33.805 65.7995 34.3582 65.2441 34.9175C65.1817 34.9801 65.1327 35.0498 65.0774 35.1166C65.8168 34.5338 66.4765 33.9102 67.1487 33.295C67.3012 33.1555 67.3296 33.0322 67.2562 32.8602C66.9346 32.1085 66.64 31.3501 66.3098 30.6008C66.2624 30.4925 66.0949 30.3717 65.9503 30.3386C64.8878 30.098 63.8174 29.8755 62.7478 29.6536C62.1799 29.5357 62.1799 29.5423 62.1893 29.0943C62.1949 28.8453 62.1901 28.597 62.1901 28.3191ZM82.3215 41.2213C82.7394 41.1106 83.1241 41.0126 83.5057 40.9061C83.8248 40.8171 84.2633 40.7828 84.4205 40.606C84.5745 40.4328 84.4418 40.1111 84.4339 39.8543C84.4307 39.7443 84.4284 39.6342 84.4181 39.5241C84.3833 39.1387 84.3462 38.7532 84.3099 38.3671C84.272 38.3683 84.234 38.3695 84.1969 38.3707C84.1969 38.9985 84.189 39.627 84.2024 40.2548C84.2064 40.4256 84.1329 40.4996 83.9173 40.5465C83.328 40.6734 82.7457 40.8201 82.1327 40.9657C82.203 41.0601 82.252 41.1262 82.3223 41.2207L82.3215 41.2213ZM94.5415 29.8274C94.8116 29.8593 94.893 29.7631 94.8827 29.5772C94.8685 29.3174 94.8677 29.0576 94.8661 28.7972C94.8635 28.2897 94.5373 27.9677 93.8874 27.8314C93.2594 27.7009 92.6306 27.5734 92.0017 27.4447C92.6922 27.6949 93.4008 27.9012 94.1228 28.072C94.4546 28.1501 94.5747 28.2602 94.551 28.532C94.513 28.9602 94.5407 29.3914 94.5407 29.8274H94.5415ZM90.7489 36.8594L90.7994 36.964C90.929 36.9346 91.1138 36.9358 91.1778 36.8696C91.5491 36.4829 91.903 36.0848 92.2348 35.6777C92.2909 35.6085 92.2616 35.4474 92.1898 35.3782C91.7964 35.0029 91.3769 34.6433 90.9661 34.2783C90.8824 34.2037 90.7971 34.1297 90.7125 34.0551L90.6383 34.1051C91.0933 34.5874 91.5483 35.0697 92.0017 35.5502C91.5688 36.0024 91.1596 36.4306 90.7497 36.8588L90.7489 36.8594ZM75.6045 39.5217C75.5753 39.5055 75.5452 39.4893 75.516 39.473C75.1455 39.8471 74.7616 40.2139 74.4108 40.5988C74.2347 40.7919 74.0838 40.8526 73.7741 40.7552C73.2354 40.5862 72.6714 40.4629 72.1176 40.3204C72.086 40.3444 72.0544 40.3679 72.0228 40.3919C72.101 40.4779 72.1555 40.6157 72.2598 40.6427C72.9162 40.8111 73.5838 40.9548 74.2694 41.1112C74.7221 40.573 75.1629 40.048 75.6045 39.5229V39.5217Z" fill="white"/>
<path d="M68.3076 28.4852C68.4119 26.8464 69.1655 25.3976 70.5448 24.1474C72.1231 22.7167 74.1573 21.8825 76.5714 21.5758C76.6354 21.568 76.701 21.5698 76.7002 21.5698C75.9947 21.7743 75.2056 21.9499 74.4796 22.2229C71.7203 23.2597 70.0203 24.949 69.3788 27.2343C69.1323 28.1123 69.3843 28.8929 70.5361 29.4083C70.7557 29.4696 71.1001 29.5514 70.6056 29.4666C70.9066 29.4666 70.7091 29.4829 70.9658 29.4829C71.2099 30.8913 71.992 32.0838 73.3823 33.0286C74.0009 33.4496 74.6945 33.7791 75.4963 33.9698C75.4141 33.9289 75.3328 33.8856 75.2482 33.8471C73.2243 32.9252 72.0592 31.5606 71.6531 29.8052C71.6081 29.6109 71.6128 29.4522 71.9422 29.4077C72.0647 29.3914 72.1769 29.3211 72.2867 29.267C72.3846 29.2182 72.4731 29.1569 72.6303 29.0625C72.6453 29.2381 72.8096 29.9327 72.8246 30.1125C72.5236 29.9201 73.4882 31.2912 73.218 31.2912C73.2852 31.3207 71.9881 29.5995 72.0054 29.6001C72.6682 29.6344 72.6714 29.6338 72.8586 30.1287C73.5277 31.8968 75.5524 33.1585 78.0565 33.2361C81.0963 33.3305 83.6242 31.5534 83.8746 29.2465C83.8786 29.2104 83.8841 29.1749 83.896 29.0853C84.6227 29.8094 85.547 30.0343 86.6427 29.8882C86.6142 31.8463 84.6377 33.9932 81.624 35.4095C81.7567 35.3716 81.8942 35.3397 82.023 35.2946C85.0532 34.2308 86.8939 32.4597 87.4358 29.9447C87.514 29.5809 87.7944 29.3752 88.1238 29.0805C88.1009 29.8936 87.9311 30.6237 87.6151 31.3333C86.2169 34.4695 82.3674 36.5383 78.0194 36.4535C75.2869 36.4 72.9708 35.5893 71.0741 34.0889C69.5581 32.8897 68.6505 31.4656 68.3511 29.8154" fill="white"/>
<path d="M83.1703 28.9146C83.1861 30.9443 81.0256 32.6576 78.2591 32.6576C75.6183 32.6576 73.3606 31.0633 73.3511 28.9224C73.3416 26.8446 75.5377 25.1686 78.2552 25.171C80.9869 25.1734 83.1648 26.832 83.1703 28.914V28.9146ZM75.2099 29.5039C75.3995 29.7649 75.4579 30.0314 75.6831 30.2629C76.5347 31.1391 77.9582 31.5114 79.2829 31.1584C80.6124 30.8041 81.4443 29.8281 81.3716 28.7516C81.321 28.0023 80.6425 27.0238 79.2821 26.6696C77.9463 26.322 76.4904 26.681 75.7028 27.5729C75.514 27.7864 75.4674 28.1129 75.2225 28.2446C74.9863 28.3715 74.5787 28.3132 74.2311 28.3373V29.5039H75.2099Z" fill="white"/>
<path d="M75.2087 29.5038H74.23V28.3371C74.5768 28.3131 74.9844 28.3714 75.2214 28.2445C75.4663 28.1134 75.5129 27.7863 75.7017 27.5728C76.4893 26.6815 77.9452 26.3219 79.281 26.6695C80.6413 27.0237 81.3199 28.0016 81.3705 28.7515C81.4431 29.828 80.6113 30.804 79.2818 31.1582C77.957 31.5113 76.5343 31.1384 75.6819 30.2628C75.4568 30.0318 75.3983 29.7654 75.2087 29.5038Z" fill="#000A2F"/>
<defs>
<clipPath id="clip0_35_782">
<rect width="57.0807" height="55.7685" fill="white"/>
</clipPath>
</defs>
</svg>
