<svg width="70" height="42" viewBox="0 0 70 42" fill="none" xmlns="http://www.w3.org/2000/svg">
<g clip-path="url(#clip0_41_742)">
<path d="M2.89356 32.3035C3.91077 30.9791 4.90664 29.6732 5.91706 28.3789C6.10439 28.1383 6.16554 27.9355 6.05586 27.6337C5.78699 26.8896 5.54628 26.1347 5.32595 25.374C5.22985 25.0432 5.05805 24.8744 4.72319 24.7793C3.1566 24.3339 1.59777 23.8624 0.00109048 23.3909C0.00109048 22.2081 -0.00958641 21.0303 0.0175911 19.8543C0.020503 19.7379 0.235011 19.5681 0.381576 19.5235C1.8181 19.083 3.25851 18.6542 4.70475 18.2457C5.03476 18.1525 5.22403 18.0031 5.32206 17.6645C5.53269 16.9359 5.77049 16.215 6.02771 15.5009C6.15583 15.1458 6.11312 14.8858 5.8695 14.5801C4.8649 13.3159 3.89233 12.0255 2.88773 10.7195C3.58755 9.7561 4.27379 8.79847 4.98137 7.85831C5.04447 7.7739 5.26674 7.74382 5.3871 7.77972C5.85106 7.91944 6.3024 8.09893 6.76053 8.25805C7.1847 8.40552 9.00268 9.02842 9.66465 9.30009C10.0403 9.45338 10.3091 9.4204 10.6275 9.16813C11.2021 8.71309 11.8117 8.30171 12.4164 7.88548C12.7202 7.67591 12.8473 7.4314 12.8299 7.04137C12.7658 5.60444 12.7444 4.16558 12.7085 2.72671C12.7037 2.55013 12.7085 2.37355 12.7085 2.16009C13.8801 1.77879 15.0458 1.39943 16.2707 1.00066C16.7774 1.73513 17.2889 2.47348 17.7985 3.21377C18.2382 3.85316 18.6565 4.50904 19.1253 5.12515C19.2564 5.29785 19.5311 5.44727 19.7456 5.45503C20.5813 5.48802 21.4189 5.47734 22.2546 5.44047C22.4391 5.43271 22.6778 5.293 22.7856 5.1397C23.7426 3.77942 24.6764 2.40265 25.6392 0.998718C26.7671 1.3645 27.8891 1.71767 28.9976 2.10576C29.1082 2.14457 29.2053 2.40265 29.2034 2.55692C29.181 4.05982 29.149 5.56369 29.0869 7.06562C29.0714 7.4382 29.1888 7.65553 29.4916 7.85734C30.1089 8.27066 30.7127 8.70824 31.297 9.16716C31.594 9.40099 31.8454 9.44853 32.2123 9.30979C33.5576 8.80138 34.9184 8.33567 36.2734 7.85443C36.4394 7.79524 36.6073 7.74188 36.7888 7.67979C37.5401 8.69563 38.2807 9.69594 39.028 10.706C38.006 12.0391 37.013 13.3489 36.0016 14.6442C35.8124 14.8867 35.7561 15.0914 35.8628 15.3903C36.1336 16.1509 36.3753 16.9223 36.6102 17.6946C36.6985 17.9847 36.8325 18.171 37.1547 18.2243C37.2926 18.2476 40.3995 19.1655 41.6943 19.5633C41.7895 19.5924 41.9011 19.7641 41.903 19.8708C41.9205 20.8246 41.9224 21.7783 41.9137 22.7311C41.9089 23.2318 41.3449 23.5966 40.6393 23.7751C39.3843 24.0933 38.1506 24.495 36.913 24.8773C36.815 24.9074 36.716 25.0432 36.6801 25.1509C36.384 26.0231 36.089 26.8954 35.8318 27.7793C35.7861 27.9364 35.8754 28.1819 35.9842 28.3255C36.9868 29.6528 38.0069 30.9665 39.029 32.2928C38.2826 33.3222 37.5546 34.3264 36.8131 35.3491C35.2542 34.7941 33.7158 34.2566 32.1861 33.6948C31.8629 33.5764 31.6231 33.5958 31.3465 33.8103C30.7214 34.2964 30.0779 34.7601 29.4247 35.2084C29.1655 35.3859 29.0791 35.58 29.0908 35.8905C29.1451 37.3769 29.1742 38.8642 29.2111 40.3507C29.215 40.5107 29.2111 40.6708 29.2111 40.8561C28.0735 41.2248 26.9564 41.5974 25.8295 41.937C25.7285 41.968 25.5189 41.8254 25.4373 41.709C24.5579 40.4496 23.6863 39.1844 22.8322 37.9086C22.6584 37.6485 22.473 37.5486 22.1615 37.5573C21.3529 37.5797 20.5434 37.5777 19.7349 37.5573C19.4437 37.5505 19.2651 37.6408 19.1011 37.8843C18.2537 39.1456 17.3802 40.3895 16.5357 41.6527C16.3561 41.9215 16.2096 42.0175 15.8776 41.8982C14.9808 41.5761 14.0732 41.2811 13.1589 41.0133C12.8056 40.9095 12.6784 40.764 12.6949 40.3807C12.758 38.8788 12.7716 37.3749 12.8299 35.872C12.8425 35.5509 12.7279 35.3694 12.4795 35.1977C11.8156 34.7369 11.1584 34.2643 10.5159 33.7744C10.2829 33.5968 10.0859 33.5687 9.80927 33.6706C8.36789 34.1993 6.9168 34.7 5.47542 35.2278C5.20365 35.3277 5.05029 35.2957 4.87946 35.0512C4.23205 34.1266 3.56038 33.2184 2.89259 32.2967L2.89356 32.3035ZM8.1165 22.3401C8.45622 26.0154 9.96845 29.0968 12.8444 31.4429C15.6146 33.7016 18.8099 34.6534 22.3672 34.276C31.6561 33.2902 36.88 22.7699 31.9211 14.8421C29.1471 10.4081 24.9957 8.35507 19.7184 8.73638C19.4573 8.75481 19.4078 8.73735 18.8972 8.82952C15.8805 9.35345 13.3365 10.7516 11.3099 13.0559C9.27251 15.3718 8.23491 18.1002 8.10485 21.1719C8.08156 21.856 8.10776 22.245 8.1165 22.3411V22.3401ZM1.21534 20.551C2.76835 20.1037 4.25438 19.6681 5.74623 19.2528C6.04033 19.1713 6.20631 19.0355 6.3024 18.7357C6.69065 17.5209 7.11772 16.3178 7.49433 15.1002C7.55256 14.9129 7.48365 14.6199 7.36426 14.455C6.71006 13.5526 6.018 12.6765 5.34536 11.7868C5.07455 11.4278 4.61739 11.0582 4.61545 10.6904C4.61254 10.3217 5.09106 9.96179 5.32012 9.57563C5.5094 9.25546 5.71614 9.24963 6.03742 9.36897C7.36912 9.86477 8.70664 10.345 10.0519 10.8001C10.2383 10.8631 10.5334 10.8205 10.6945 10.7079C11.7563 9.97052 12.8046 9.21179 13.8335 8.42881C14.0024 8.29977 14.1451 8.01743 14.1451 7.80592C14.147 6.69111 14.0956 5.57631 14.0693 4.4615C14.0587 4.01325 13.8975 3.43305 14.114 3.15168C14.3528 2.8412 14.9546 2.8218 15.3855 2.64521C15.6621 2.5317 15.8155 2.59379 15.9805 2.83926C16.7774 4.01713 17.5995 5.17754 18.3935 6.35735C18.574 6.62611 18.7575 6.74448 19.0953 6.73671C20.2911 6.70955 21.4888 6.69693 22.6846 6.72992C23.1185 6.74156 23.3514 6.58439 23.5786 6.23898C24.4104 4.97088 25.2723 3.72315 26.1333 2.45408C26.639 2.61126 27.1117 2.77426 27.5921 2.9033C27.8891 2.98286 27.9978 3.12063 27.9872 3.44469C27.9396 4.86609 27.9318 6.28846 27.8901 7.70889C27.8814 8.01646 27.9658 8.21148 28.2259 8.39097C29.0781 8.97506 29.942 9.55041 30.7418 10.2014C31.2921 10.6497 31.7833 10.7933 32.4336 10.443C32.8073 10.2422 35.362 9.34666 35.4882 9.13903C35.0077 9.29523 34.5272 9.47182 34.0342 9.60183C33.8847 9.64161 31.5794 10.443 31.1572 10.1432C30.3264 9.55332 29.5101 8.94401 28.6617 8.3803C28.2813 8.12707 28.1463 7.85443 28.1755 7.38871C28.2628 5.98575 28.2822 4.5789 28.3463 3.17399C28.3599 2.88195 28.2716 2.73933 27.9872 2.65686C27.4436 2.50065 26.902 2.3328 26.3769 2.12517C26.0731 2.00583 25.9188 2.07956 25.745 2.33571C24.919 3.55239 24.0823 4.76131 23.2253 5.95664C23.1175 6.10703 22.872 6.23607 22.6875 6.23995C21.5403 6.2613 20.393 6.26033 19.2467 6.22637C19.0516 6.22055 18.7963 6.06628 18.6808 5.90231C17.8344 4.70018 17.0094 3.48156 16.195 2.25712C16.0213 1.99612 15.8631 1.93209 15.5622 2.04464C15.0041 2.25518 14.4324 2.43855 13.8558 2.59282C13.5355 2.6782 13.4666 2.84508 13.4763 3.1478C13.5258 4.61771 13.5675 6.08762 13.5811 7.55851C13.5831 7.75838 13.4588 8.0281 13.3035 8.14841C12.4193 8.82758 11.5147 9.48055 10.5964 10.1151C10.446 10.2189 10.1733 10.2597 10.0005 10.2014C8.57658 9.72408 7.16528 9.21082 5.74429 8.72473C5.6084 8.67816 5.35409 8.68398 5.28809 8.76839C4.79404 9.40099 4.333 10.0598 3.86418 10.7079C4.87752 12.0148 5.86464 13.2742 6.82848 14.551C6.94107 14.7004 7.00707 14.9702 6.95563 15.1438C6.62853 16.2528 6.27425 17.355 5.89959 18.4494C5.84426 18.6124 5.65887 18.789 5.49484 18.8463C4.82316 19.0791 4.13984 19.2761 3.45458 19.4653C3.2954 19.5089 1.49294 20.0824 1.1639 20.16C0.910567 20.2201 0.832917 20.3531 0.840682 20.6034C0.858154 21.1845 0.866889 21.7677 0.848447 22.3488C0.83777 22.6661 0.958128 22.7903 1.2629 22.8737C2.68099 23.2609 4.08743 23.6868 5.50454 24.0768C5.78991 24.1554 5.92871 24.2922 6.018 24.5707C6.37228 25.6787 6.76344 26.7741 7.10899 27.884C7.16431 28.0606 7.11675 28.3342 7.00804 28.4846C6.3451 29.4015 5.65014 30.2941 4.96779 31.1964C4.89111 31.2974 4.83093 31.4099 4.76298 31.5176C5.67149 30.5774 6.48196 29.5713 7.30797 28.5787C7.4953 28.3536 7.53024 28.1547 7.43997 27.8773C7.04493 26.6645 6.68288 25.441 6.27716 24.2321C6.21892 24.0574 6.01315 23.8624 5.83553 23.809C4.53003 23.4209 3.21483 23.062 1.90061 22.7039C1.20273 22.5138 1.20273 22.5244 1.21437 21.8016C1.22117 21.3999 1.21534 20.9992 1.21534 20.551ZM25.9508 41.3665C26.4642 41.188 26.9369 41.0298 27.4058 40.8581C27.7979 40.7145 28.3366 40.6592 28.5297 40.3739C28.719 40.0945 28.5559 39.5754 28.5462 39.1611C28.5424 38.9836 28.5394 38.806 28.5268 38.6285C28.4841 38.0066 28.4385 37.3846 28.3939 36.7617C28.3473 36.7637 28.3007 36.7656 28.2551 36.7676C28.2551 37.7805 28.2453 38.7944 28.2619 39.8073C28.2667 40.0829 28.1764 40.2022 27.9115 40.2779C27.1874 40.4826 26.472 40.7193 25.7188 40.9541C25.8052 41.1065 25.8654 41.2132 25.9518 41.3655L25.9508 41.3665ZM40.9654 22.9843C41.2974 23.0358 41.3973 22.8805 41.3847 22.5807C41.3672 22.1616 41.3663 21.7424 41.3643 21.3223C41.3611 20.5034 40.9602 19.984 40.1617 19.7641C39.3901 19.5536 38.6175 19.3479 37.8448 19.1403C38.6932 19.5439 39.5638 19.8767 40.451 20.1522C40.8586 20.2783 41.0062 20.4559 40.9771 20.8944C40.9305 21.5853 40.9644 22.2809 40.9644 22.9843H40.9654ZM36.3054 34.3293L36.3675 34.4982C36.5267 34.4506 36.7539 34.4526 36.8325 34.3458C37.2887 33.722 37.7235 33.0797 38.1312 32.4228C38.2001 32.3113 38.1642 32.0512 38.0759 31.9397C37.5925 31.3342 37.0771 30.754 36.5724 30.1651C36.4695 30.0448 36.3646 29.9254 36.2608 29.8051L36.1695 29.8857C36.7286 30.6638 37.2877 31.4419 37.8448 32.2171C37.3129 32.9468 36.8102 33.6376 36.3064 34.3284L36.3054 34.3293ZM17.6975 38.6246C17.6616 38.5984 17.6248 38.5722 17.5888 38.546C17.1336 39.1495 16.6619 39.7413 16.2309 40.3623C16.0145 40.6737 15.8291 40.7717 15.4486 40.6146C14.7866 40.3419 14.0936 40.143 13.4132 39.9131C13.3744 39.9519 13.3356 39.9897 13.2967 40.0285C13.3928 40.1673 13.4598 40.3895 13.5879 40.4331C14.3945 40.7048 15.2147 40.9367 16.0572 41.1889C16.6134 40.3206 17.155 39.4736 17.6975 38.6265V38.6246Z" fill="white"/>
<path d="M8.73242 20.8189C8.86054 18.175 9.78652 15.8377 11.4812 13.8206C13.4205 11.5124 15.9199 10.1667 18.8861 9.67186C18.9648 9.65924 19.0453 9.66216 19.0444 9.66216C18.1776 9.99204 17.2079 10.2753 16.3159 10.7158C12.9255 12.3885 10.8367 15.1139 10.0486 18.8008C9.74576 20.2174 10.0554 21.4768 11.4706 22.3083C11.7404 22.4072 12.1636 22.5392 11.556 22.4024C11.9258 22.4024 11.6831 22.4286 11.9986 22.4286C12.2985 24.7009 13.2594 26.6249 14.9677 28.1491C15.7277 28.8283 16.5799 29.36 17.5651 29.6675C17.4642 29.6015 17.3642 29.5317 17.2603 29.4696C14.7736 27.9822 13.3419 25.7807 12.843 22.9486C12.7877 22.6352 12.7935 22.3791 13.1983 22.3073C13.3487 22.2811 13.4865 22.1676 13.6215 22.0802C13.7418 22.0017 13.8505 21.9027 14.0437 21.7504C14.0621 22.0337 14.264 23.1543 14.2825 23.4444C13.9127 23.1339 15.0978 25.3461 14.7658 25.3461C14.8483 25.3936 13.2546 22.6168 13.2759 22.6178C14.0903 22.6731 14.0942 22.6721 14.3242 23.4706C15.1463 26.3231 17.634 28.3587 20.7109 28.4838C24.4459 28.6362 27.5519 25.7691 27.8596 22.0473C27.8644 21.989 27.8712 21.9318 27.8858 21.7872C28.7788 22.9554 29.9144 23.3183 31.2607 23.0825C31.2257 26.2416 28.7972 29.7054 25.0943 31.9903C25.2573 31.9291 25.4262 31.8777 25.5844 31.805C29.3078 30.0886 31.5693 27.2312 32.2352 23.1737C32.3313 22.5867 32.6758 22.2549 33.0806 21.7795C33.0524 23.0912 32.8437 24.2691 32.4555 25.414C30.7375 30.4738 26.0076 33.8114 20.6653 33.6746C17.3079 33.5883 14.462 32.2804 12.1316 29.8596C10.2689 27.925 9.15367 25.6274 8.78581 22.9651" fill="white"/>
<path d="M26.9936 21.5117C27.013 24.7863 24.3584 27.5505 20.9592 27.5505C17.7144 27.5505 14.9404 24.9784 14.9287 21.5243C14.9171 18.1722 17.6154 15.4681 20.9544 15.472C24.3108 15.4759 26.9868 18.1518 26.9936 21.5108V21.5117ZM17.2126 22.4626C17.4456 22.8836 17.5174 23.3135 17.794 23.687C18.8404 25.1006 20.5894 25.7012 22.2172 25.1317C23.8507 24.5602 24.8728 22.9855 24.7835 21.2488C24.7214 20.0399 23.8876 18.4613 22.2162 17.8898C20.5749 17.329 18.786 17.9083 17.8183 19.3471C17.5863 19.6916 17.5291 20.2184 17.2282 20.4309C16.9379 20.6356 16.4371 20.5415 16.01 20.5803V22.4626H17.2126Z" fill="white"/>
<path d="M17.2124 22.4626H16.0098V20.5803C16.4359 20.5415 16.9367 20.6356 17.2279 20.4309C17.5288 20.2194 17.5861 19.6916 17.818 19.3471C18.7858 17.9092 20.5746 17.329 22.216 17.8898C23.8874 18.4613 24.7211 20.0389 24.7833 21.2488C24.8726 22.9855 23.8505 24.5602 22.2169 25.1317C20.5892 25.7012 18.8411 25.0997 17.7938 23.687C17.5171 23.3145 17.4453 22.8846 17.2124 22.4626Z" fill="#000A2F"/>
<path d="M39.23 14.3389H2.74219V30.18H39.23V14.3389Z" fill="#000A2F" stroke="white" stroke-width="0.32805" stroke-miterlimit="10"/>
<path d="M38.7601 14.7803H3.21191V29.7365H38.7601V14.7803Z" fill="#070A2A" stroke="white" stroke-width="0.32805" stroke-miterlimit="10"/>
<path d="M10.792 16.2844H14.361C15.3277 16.2844 16.0673 16.5832 16.5808 17.1818C17.0933 17.7805 17.3505 18.6479 17.3505 19.785C17.3505 20.9221 17.0943 21.7895 16.5808 22.3881C16.0683 22.9868 15.3277 23.2856 14.361 23.2856H10.792V16.2853V16.2844ZM11.2395 16.8102V22.7597H14.2921C15.1375 22.7597 15.78 22.5065 16.2217 22.001C16.6633 21.4955 16.8836 20.7562 16.8836 19.785C16.8836 18.8138 16.6614 18.0832 16.2188 17.5738C15.7752 17.0644 15.1307 16.8102 14.2862 16.8102H11.2404H11.2395ZM11.3841 16.9985H14.2853C15.088 16.9985 15.6975 17.2362 16.1139 17.7126C16.5303 18.1889 16.738 18.8798 16.738 19.785C16.738 20.6902 16.5313 21.381 16.1168 21.8574C15.7024 22.3338 15.0938 22.5715 14.2911 22.5715H11.3841V16.9985ZM11.8315 17.5243V22.0456H14.2911C14.9385 22.0456 15.4296 21.8545 15.7635 21.4703C16.0974 21.087 16.2654 20.5253 16.2654 19.785C16.2654 19.0447 16.0984 18.4829 15.7635 18.0997C15.4296 17.7164 14.9385 17.5243 14.2911 17.5243H11.8315Z" fill="white"/>
<path d="M23.3161 21.1926C23.3161 21.636 23.2026 21.9746 22.9754 22.2094C22.7483 22.4442 22.4096 22.5616 21.9602 22.5616H18V22.026H21.9349C22.2329 22.026 22.46 21.9513 22.6163 21.8028C22.7716 21.6544 22.8492 21.438 22.8492 21.1537C22.8492 20.8695 22.7716 20.6628 22.6163 20.5144C22.461 20.3659 22.2339 20.2912 21.9349 20.2912H19.9296C19.3074 20.2912 18.8299 20.1175 18.4979 19.7702C18.166 19.4228 18 18.929 18 18.2877C18 17.6463 18.166 17.1525 18.4979 16.8051C18.8299 16.4578 19.3074 16.2841 19.9296 16.2841H23.8645V16.8197H19.9607C19.4812 16.8197 19.1123 16.9468 18.8542 17.202C18.596 17.4562 18.4659 17.8287 18.4659 18.3177C18.4659 18.8067 18.596 19.1851 18.8571 19.4529C19.1182 19.7207 19.4851 19.8546 19.9607 19.8546H21.9602C22.8638 19.8546 23.3161 20.3009 23.3161 21.1935V21.1926ZM23.4394 22.7546C23.1094 23.1088 22.6309 23.2854 22.0048 23.2854H18V22.7498H21.9602C22.4474 22.7498 22.8211 22.614 23.0793 22.3433C23.3375 22.0726 23.4675 21.6884 23.4675 21.1926C23.4675 20.6968 23.3384 20.3155 23.0793 20.0477C22.8211 19.7799 22.4474 19.646 21.9602 19.646H19.9607C19.5278 19.646 19.1948 19.5325 18.9609 19.3035C18.728 19.0755 18.6105 18.7466 18.6105 18.3168C18.6105 17.887 18.727 17.5619 18.9609 17.3397C19.1939 17.1185 19.5278 17.0079 19.9607 17.0079H23.8645V17.5435H19.9985C19.3802 17.5435 19.0716 17.8142 19.0716 18.3565C19.0716 18.8989 19.3802 19.1696 19.9985 19.1696H22.0038C22.626 19.1696 23.1036 19.3462 23.4355 19.7003C23.7675 20.0545 23.9334 20.5648 23.9334 21.2323C23.9334 21.8999 23.7684 22.4005 23.4384 22.7546H23.4394Z" fill="white"/>
<path d="M27.5726 23.2845C26.6223 23.2845 25.8876 22.9808 25.3683 22.3724C24.849 21.7641 24.5898 20.9016 24.5898 19.7848C24.5898 18.6681 24.849 17.8046 25.3683 17.1972C25.8876 16.5888 26.6223 16.2852 27.5726 16.2852H31.2678V16.811H27.6483C26.8242 16.811 26.1865 17.0701 25.7342 17.5892C25.2819 18.1082 25.0567 18.8398 25.0567 19.7858C25.0567 20.7318 25.2819 21.4711 25.7313 21.9873C26.1807 22.5024 26.8184 22.7605 27.6425 22.7605H30.8582V19.7664H27.6425V19.29H31.2687V23.2864H27.5735L27.5726 23.2845ZM31.2678 16.9983V17.5242H27.6415C27.0106 17.5242 26.5243 17.7221 26.1817 18.1189C25.839 18.5157 25.6682 19.0746 25.6682 19.7945C25.6682 20.5144 25.839 21.0733 26.1817 21.4701C26.5243 21.8669 27.0106 22.0649 27.6415 22.0649H30.2962V20.4388H27.6415V19.9624H30.7126V22.5704H27.6415C26.864 22.5704 26.2622 22.3278 25.8381 21.8417C25.4129 21.3556 25.2013 20.6697 25.2013 19.7838C25.2013 18.898 25.4158 18.2208 25.8449 17.7308C26.2739 17.2418 26.8747 16.9973 27.6483 16.9973H31.2678V16.9983Z" fill="white"/>
<path d="M6.49219 25.0088C6.6834 24.9768 6.93479 24.9496 7.25413 24.9496C7.64626 24.9496 7.93357 25.0408 8.11605 25.2048C8.28493 25.3503 8.38491 25.5744 8.38491 25.848C8.38491 26.1216 8.30241 26.3448 8.14808 26.5049C7.93842 26.728 7.59579 26.8425 7.20851 26.8425C7.09009 26.8425 6.98041 26.8377 6.88917 26.8154V28.0466H6.49219V25.0097V25.0088ZM6.88917 26.4903C6.97556 26.5136 7.08524 26.5223 7.21725 26.5223C7.69576 26.5223 7.98792 26.2895 7.98792 25.8655C7.98792 25.4415 7.70062 25.2639 7.26287 25.2639C7.08912 25.2639 6.95712 25.2775 6.88917 25.296V26.4903Z" fill="white"/>
<path d="M10.5108 26.6046H9.31593V27.7126H10.6476V28.0454H8.91895V24.9717H10.5797V25.3045H9.31593V26.2757H10.5108V26.6036V26.6046Z" fill="white"/>
<path d="M13.7542 26.6958C13.7318 26.2669 13.7037 25.7517 13.7085 25.3685H13.695C13.5901 25.7285 13.462 26.1117 13.3077 26.5357L12.7651 28.027H12.4642L11.9672 26.5629C11.8216 26.1301 11.6984 25.7333 11.611 25.3685H11.6023C11.5936 25.7517 11.5703 26.2669 11.5431 26.7268L11.4606 28.0444H11.082L11.2965 24.9707H11.8032L12.3273 26.4571C12.4555 26.8355 12.5603 27.1731 12.6379 27.4924H12.6515C12.7292 27.1819 12.8389 26.8452 12.9757 26.4571L13.5232 24.9707H14.0298L14.221 28.0444H13.8328L13.7551 26.6948L13.7542 26.6958Z" fill="white"/>
<path d="M17.4584 26.4776C17.4584 27.5352 16.8149 28.096 16.0306 28.096C15.2463 28.096 14.6484 27.4663 14.6484 26.5368C14.6484 25.5607 15.2551 24.9223 16.0762 24.9223C16.8974 24.9223 17.4584 25.5656 17.4584 26.4776ZM15.0726 26.528C15.0726 27.1849 15.4288 27.7729 16.0529 27.7729C16.677 27.7729 17.0381 27.1936 17.0381 26.496C17.0381 25.8848 16.7188 25.2464 16.0578 25.2464C15.3968 25.2464 15.0726 25.8528 15.0726 26.528Z" fill="white"/>
<path d="M18.3706 24.9727V26.2583H19.8576V24.9727H20.2595V28.0464H19.8576V26.6056H18.3706V28.0464H17.9736V24.9727H18.3706Z" fill="white"/>
<path d="M21.5314 25.3093H20.5967V24.9717H22.8728V25.3093H21.9332V28.0454H21.5324V25.3093H21.5314Z" fill="white"/>
<path d="M24.6791 27.079L24.3598 28.0454H23.9492L24.9936 24.9717H25.4721L26.5214 28.0454H26.0972L25.7691 27.079H24.6791ZM25.6876 26.7686L25.3867 25.8837C25.3188 25.6829 25.2732 25.5005 25.2275 25.3229H25.2188C25.1732 25.5053 25.1227 25.6926 25.0635 25.8789L24.7626 26.7676H25.6886L25.6876 26.7686Z" fill="white"/>
<path d="M27.3658 24.9728V26.336H27.489L28.5431 24.9728H29.0226L27.8598 26.3816C28.3665 26.4505 28.5626 26.76 28.7217 27.1753C28.8353 27.4896 28.9227 27.773 29.0595 28.0466H28.6305C28.5208 27.837 28.4344 27.5634 28.3519 27.3218C28.2102 26.9162 28.0141 26.6378 27.4949 26.6378H27.3667V28.0466H26.9746V24.9728H27.3667H27.3658Z" fill="white"/>
<path d="M31.6681 24.9728V28.0466H31.2711V25.3056H29.8433V28.0466H29.4463V24.9728H31.6681Z" fill="white"/>
<path d="M34.5841 24.9727V28.0464H34.1871V25.3055H32.7593V28.0464H32.3623V24.9727H34.5841Z" fill="white"/>
</g>
<path d="M40.1861 25.3417C40.6304 24.9235 41.0654 24.5111 41.5067 24.1024C41.5886 24.0264 41.6153 23.9624 41.5674 23.8671C41.4499 23.6321 41.3448 23.3937 41.2486 23.1535C41.2066 23.0491 41.1315 22.9958 40.9853 22.9657C40.301 22.8251 39.6202 22.6762 38.9228 22.5273C38.9228 22.1538 38.9181 21.7819 38.93 21.4106C38.9313 21.3738 39.0249 21.3202 39.089 21.3061C39.7164 21.167 40.3455 21.0316 40.9772 20.9026C41.1214 20.8732 41.204 20.826 41.2469 20.7191C41.3389 20.489 41.4427 20.2613 41.5551 20.0358C41.611 19.9237 41.5924 19.8416 41.486 19.7451C41.0472 19.3459 40.6224 18.9384 40.1836 18.526C40.4893 18.2218 40.789 17.9194 41.0981 17.6225C41.1256 17.5959 41.2227 17.5864 41.2753 17.5977C41.4779 17.6418 41.6751 17.6985 41.8752 17.7487C42.0604 17.7953 42.8545 17.992 43.1436 18.0778C43.3077 18.1262 43.4251 18.1158 43.5642 18.0361C43.8151 17.8924 44.0814 17.7625 44.3455 17.6311C44.4782 17.5649 44.5337 17.4877 44.5261 17.3645C44.4981 16.9108 44.4888 16.4564 44.4731 16.0021C44.471 15.9463 44.4731 15.8906 44.4731 15.8232C44.9848 15.7027 45.494 15.583 46.029 15.457C46.2503 15.689 46.4737 15.9221 46.6963 16.1559C46.8883 16.3578 47.0711 16.5649 47.2758 16.7594C47.3331 16.814 47.453 16.8612 47.5467 16.8636C47.9118 16.874 48.2776 16.8707 48.6426 16.859C48.7232 16.8566 48.8275 16.8124 48.8745 16.764C49.2926 16.3345 49.7004 15.8997 50.1209 15.4564C50.6136 15.5719 51.1037 15.6834 51.5878 15.806C51.6361 15.8183 51.6785 15.8997 51.6777 15.9485C51.6679 16.423 51.6539 16.8979 51.6268 17.3722C51.62 17.4899 51.6713 17.5585 51.8036 17.6222C52.0732 17.7527 52.3369 17.8909 52.5921 18.0358C52.7219 18.1097 52.8317 18.1247 52.9919 18.0809C53.5795 17.9203 54.1739 17.7732 54.7657 17.6213C54.8382 17.6026 54.9116 17.5857 54.9908 17.5661C55.319 17.8869 55.6424 18.2028 55.9689 18.5217C55.5225 18.9427 55.0888 19.3563 54.647 19.7653C54.5643 19.8419 54.5398 19.9066 54.5864 20.0009C54.7047 20.2411 54.8102 20.4847 54.9128 20.7286C54.9514 20.8202 55.0099 20.879 55.1507 20.8959C55.2109 20.9032 56.5679 21.193 57.1335 21.3187C57.175 21.3278 57.2238 21.3821 57.2246 21.4158C57.2323 21.7169 57.2331 22.0181 57.2293 22.319C57.2272 22.4771 56.9809 22.5923 56.6726 22.6486C56.1245 22.7491 55.5856 22.876 55.0451 22.9967C55.0023 23.0062 54.959 23.0491 54.9434 23.0831C54.8141 23.3585 54.6852 23.634 54.5728 23.9131C54.5529 23.9627 54.5919 24.0402 54.6394 24.0856C55.0773 24.5047 55.5229 24.9195 55.9693 25.3383C55.6433 25.6634 55.3253 25.9805 55.0014 26.3034C54.3206 26.1282 53.6486 25.9584 52.9805 25.781C52.8393 25.7437 52.7346 25.7498 52.6138 25.8175C52.3407 25.971 52.0597 26.1174 51.7743 26.259C51.6611 26.3151 51.6234 26.3763 51.6285 26.4744C51.6522 26.9437 51.665 27.4134 51.6811 27.8828C51.6828 27.9333 51.6811 27.9839 51.6811 28.0424C51.1842 28.1588 50.6962 28.2765 50.204 28.3837C50.1599 28.3935 50.0684 28.3485 50.0328 28.3117C49.6487 27.914 49.268 27.5145 48.8949 27.1116C48.819 27.0295 48.738 26.998 48.6019 27.0007C48.2488 27.0078 47.8952 27.0072 47.5421 27.0007C47.4149 26.9986 47.3369 27.0271 47.2652 27.104C46.8951 27.5023 46.5136 27.8951 46.1447 28.294C46.0663 28.3788 46.0023 28.4092 45.8573 28.3715C45.4656 28.2698 45.0692 28.1766 44.6698 28.0921C44.5155 28.0593 44.46 28.0133 44.4672 27.8923C44.4947 27.418 44.5007 26.9431 44.5261 26.4686C44.5316 26.3671 44.4816 26.3099 44.3731 26.2556C44.0831 26.1101 43.7961 25.9609 43.5154 25.8062C43.4137 25.7501 43.3276 25.7412 43.2068 25.7734C42.5772 25.9404 41.9434 26.0985 41.3138 26.2651C41.1951 26.2967 41.1282 26.2866 41.0535 26.2094C40.7708 25.9174 40.4774 25.6306 40.1857 25.3396L40.1861 25.3417ZM42.4674 22.1955C42.6158 23.3561 43.2763 24.3291 44.5325 25.0699C45.7424 25.7832 47.138 26.0837 48.6918 25.9646C52.749 25.6533 55.0307 22.3312 52.8647 19.8278C51.6531 18.4277 49.8399 17.7794 47.5349 17.8998C47.4208 17.9056 47.3992 17.9001 47.1762 17.9292C45.8586 18.0946 44.7474 18.5361 43.8622 19.2638C42.9723 19.9951 42.5191 20.8566 42.4623 21.8266C42.4521 22.0426 42.4636 22.1655 42.4674 22.1958V22.1955ZM39.4531 21.6305C40.1315 21.4893 40.7805 21.3517 41.4321 21.2206C41.5606 21.1949 41.6331 21.152 41.6751 21.0573C41.8446 20.6737 42.0312 20.2938 42.1957 19.9093C42.2211 19.8502 42.191 19.7577 42.1388 19.7056C41.8531 19.4206 41.5508 19.144 41.257 18.863C41.1388 18.7497 40.9391 18.6329 40.9382 18.5168C40.937 18.4004 41.146 18.2867 41.246 18.1648C41.3287 18.0637 41.419 18.0619 41.5593 18.0995C42.141 18.2561 42.7252 18.4078 43.3128 18.5514C43.3942 18.5714 43.523 18.5579 43.5934 18.5223C44.0572 18.2895 44.5151 18.0499 44.9645 17.8027C45.0382 17.7619 45.1006 17.6728 45.1006 17.606C45.1014 17.2539 45.0789 16.9019 45.0675 16.5499C45.0628 16.4083 44.9924 16.2251 45.087 16.1363C45.1913 16.0382 45.4541 16.0321 45.6424 15.9763C45.7632 15.9405 45.8302 15.9601 45.9022 16.0376C46.2503 16.4096 46.6094 16.776 46.9562 17.1485C47.035 17.2334 47.1152 17.2708 47.2627 17.2683C47.785 17.2598 48.3081 17.2558 48.8304 17.2662C49.02 17.2699 49.1217 17.2202 49.2209 17.1112C49.5842 16.7107 49.9607 16.3167 50.3367 15.916C50.5576 15.9656 50.7641 16.0171 50.9739 16.0578C51.1037 16.083 51.1511 16.1265 51.1465 16.2288C51.1257 16.6776 51.1223 17.1268 51.1041 17.5753C51.1003 17.6725 51.1371 17.734 51.2508 17.7907C51.623 17.9752 52.0003 18.1568 52.3496 18.3624C52.59 18.504 52.8045 18.5493 53.0886 18.4387C53.2518 18.3753 54.3676 18.0925 54.4227 18.0269C54.2129 18.0763 54.003 18.132 53.7877 18.1731C53.7224 18.1856 52.7155 18.4387 52.5311 18.344C52.1682 18.1578 51.8117 17.9653 51.4411 17.7873C51.2749 17.7074 51.216 17.6213 51.2287 17.4742C51.2669 17.0312 51.2754 16.587 51.3033 16.1433C51.3093 16.0511 51.2707 16.0061 51.1465 15.98C50.9091 15.9307 50.6725 15.8777 50.4431 15.8121C50.3105 15.7744 50.243 15.7977 50.1672 15.8786C49.8064 16.2628 49.4409 16.6446 49.0666 17.022C49.0195 17.0695 48.9123 17.1102 48.8317 17.1115C48.3306 17.1182 47.8295 17.1179 47.3288 17.1072C47.2436 17.1053 47.1321 17.0566 47.0817 17.0049C46.712 16.6253 46.3516 16.2404 45.9959 15.8538C45.92 15.7714 45.8509 15.7512 45.7195 15.7867C45.4757 15.8532 45.226 15.9111 44.9742 15.9598C44.8343 15.9868 44.8042 16.0395 44.8085 16.135C44.8301 16.5992 44.8483 17.0634 44.8542 17.5278C44.8551 17.591 44.8008 17.6761 44.733 17.7141C44.3468 17.9286 43.9517 18.1348 43.5506 18.3351C43.4849 18.3679 43.3658 18.3808 43.2903 18.3624C42.6684 18.2117 42.0519 18.0496 41.4313 17.8961C41.3719 17.8814 41.2609 17.8832 41.232 17.9099C41.0162 18.1097 40.8149 18.3177 40.6101 18.5223C41.0527 18.935 41.4838 19.3327 41.9048 19.7359C41.954 19.7831 41.9828 19.8683 41.9604 19.9231C41.8175 20.2733 41.6628 20.6213 41.4991 20.9669C41.4749 21.0184 41.394 21.0742 41.3223 21.0922C41.029 21.1658 40.7305 21.228 40.4312 21.2877C40.3617 21.3015 39.5744 21.4826 39.4307 21.5071C39.32 21.5261 39.2861 21.568 39.2895 21.6471C39.2971 21.8306 39.3009 22.0147 39.2929 22.1983C39.2882 22.2984 39.3408 22.3377 39.4739 22.364C40.0933 22.4863 40.7076 22.6208 41.3266 22.7439C41.4512 22.7687 41.5118 22.8119 41.5508 22.8999C41.7056 23.2498 41.8764 23.5957 42.0274 23.9461C42.0515 24.0019 42.0307 24.0883 41.9833 24.1358C41.6937 24.4253 41.3902 24.7072 41.0921 24.9921C41.0586 25.024 41.0323 25.0595 41.0027 25.0935C41.3995 24.7967 41.7535 24.4789 42.1143 24.1655C42.1961 24.0944 42.2113 24.0316 42.1719 23.944C41.9994 23.561 41.8412 23.1747 41.664 22.7929C41.6386 22.7378 41.5487 22.6762 41.4711 22.6594C40.9009 22.5368 40.3265 22.4235 39.7524 22.3104C39.4476 22.2503 39.4476 22.2537 39.4527 22.0255C39.4557 21.8986 39.4531 21.7721 39.4531 21.6305ZM50.257 28.2036C50.4813 28.1472 50.6878 28.0973 50.8925 28.043C51.0638 27.9977 51.2991 27.9802 51.3835 27.8901C51.4661 27.8019 51.3949 27.638 51.3907 27.5072C51.389 27.4511 51.3877 27.395 51.3822 27.339C51.3635 27.1426 51.3436 26.9462 51.3241 26.7495C51.3038 26.7501 51.2834 26.7507 51.2635 26.7513C51.2635 27.0712 51.2592 27.3914 51.2665 27.7112C51.2686 27.7982 51.2291 27.8359 51.1134 27.8598C50.7971 27.9245 50.4847 27.9992 50.1557 28.0734C50.1934 28.1215 50.2197 28.1552 50.2575 28.2033L50.257 28.2036ZM56.8151 22.3989C56.9601 22.4152 57.0037 22.3662 56.9982 22.2715C56.9906 22.1391 56.9902 22.0068 56.9893 21.8741C56.9879 21.6155 56.8128 21.4515 56.4641 21.3821C56.127 21.3156 55.7896 21.2506 55.4521 21.1851C55.8226 21.3125 56.2029 21.4176 56.5904 21.5046C56.7685 21.5445 56.8329 21.6005 56.8202 21.739C56.7998 21.9571 56.8147 22.1768 56.8147 22.3989H56.8151ZM54.7797 25.9814L54.8068 26.0347C54.8764 26.0197 54.9756 26.0203 55.0099 25.9866C55.2092 25.7896 55.3991 25.5868 55.5772 25.3794C55.6073 25.3441 55.5916 25.262 55.553 25.2268C55.3419 25.0356 55.1168 24.8524 54.8963 24.6664C54.8514 24.6285 54.8056 24.5908 54.7602 24.5528L54.7204 24.5782C54.9646 24.8239 55.2087 25.0696 55.4521 25.3144C55.2198 25.5448 55.0002 25.763 54.7801 25.9811L54.7797 25.9814ZM46.6522 27.3378C46.6365 27.3295 46.6204 27.3212 46.6047 27.3129C46.4059 27.5035 46.1998 27.6904 46.0116 27.8865C45.9171 27.9848 45.8361 28.0158 45.6699 27.9661C45.3808 27.88 45.0781 27.8172 44.7809 27.7446C44.7639 27.7569 44.747 27.7688 44.73 27.7811C44.772 27.8249 44.8012 27.8951 44.8572 27.9088C45.2095 27.9946 45.5677 28.0678 45.9357 28.1475C46.1787 27.8733 46.4152 27.6058 46.6522 27.3384V27.3378Z" fill="white"/>
<path d="M42.7363 21.7151C42.7923 20.8802 43.1967 20.1421 43.9369 19.5052C44.784 18.7763 45.8757 18.3514 47.1713 18.1951C47.2056 18.1911 47.2408 18.192 47.2404 18.192C46.8618 18.2962 46.4382 18.3857 46.0486 18.5248C44.5678 19.053 43.6554 19.9136 43.3112 21.0778C43.1789 21.5251 43.3142 21.9228 43.9323 22.1854C44.0501 22.2166 44.235 22.2583 43.9696 22.2151C44.1311 22.2151 44.0251 22.2234 44.1629 22.2234C44.2939 22.9409 44.7136 23.5485 45.4598 24.0298C45.7917 24.2442 46.164 24.4121 46.5943 24.5093C46.5502 24.4884 46.5065 24.4664 46.4611 24.4468C45.375 23.9771 44.7497 23.2819 44.5317 22.3876C44.5076 22.2886 44.5101 22.2077 44.6869 22.1851C44.7526 22.1768 44.8128 22.141 44.8718 22.1134C44.9243 22.0886 44.9718 22.0573 45.0562 22.0092C45.0642 22.0987 45.1524 22.4525 45.1605 22.5441C44.9989 22.4461 45.5166 23.1446 45.3716 23.1446C45.4076 23.1597 44.7115 22.2828 44.7208 22.2831C45.0765 22.3006 45.0782 22.3003 45.1787 22.5524C45.5378 23.4532 46.6244 24.0959 47.9683 24.1355C49.5996 24.1836 50.9563 23.2782 51.0907 22.103C51.0928 22.0846 51.0957 22.0665 51.1021 22.0209C51.4921 22.3897 51.9882 22.5043 52.5762 22.4299C52.5609 23.4274 51.5002 24.5212 49.8828 25.2427C49.954 25.2234 50.0278 25.2072 50.0969 25.1842C51.7232 24.6422 52.711 23.7399 53.0018 22.4587C53.0438 22.2733 53.1943 22.1685 53.3711 22.0184C53.3588 22.4326 53.2676 22.8046 53.098 23.1661C52.3477 24.7639 50.2818 25.8178 47.9483 25.7746C46.4819 25.7473 45.2389 25.3343 44.221 24.5699C43.4074 23.959 42.9203 23.2335 42.7596 22.3928" fill="white"/>
<path d="M50.7121 21.9338C50.7206 22.9678 49.5611 23.8407 48.0764 23.8407C46.6591 23.8407 45.4475 23.0285 45.4424 21.9378C45.4373 20.8793 46.6159 20.0254 48.0743 20.0266C49.5403 20.0278 50.7091 20.8728 50.7121 21.9335V21.9338ZM46.4399 22.2341C46.5417 22.367 46.5731 22.5028 46.6939 22.6207C47.1509 23.0671 47.9149 23.2568 48.6258 23.0769C49.3393 22.8965 49.7857 22.3992 49.7467 21.8508C49.7196 21.469 49.3554 20.9706 48.6254 20.7901C47.9085 20.613 47.1272 20.7959 46.7045 21.2503C46.6032 21.359 46.5782 21.5254 46.4467 21.5925C46.32 21.6572 46.1012 21.6274 45.9147 21.6397V22.2341H46.4399Z" fill="white"/>
<path d="M46.4393 22.2341H45.9141V21.6398C46.1002 21.6275 46.3189 21.6572 46.4461 21.5926C46.5775 21.5258 46.6026 21.3591 46.7039 21.2504C47.1266 20.7963 47.9079 20.6131 48.6248 20.7902C49.3548 20.9706 49.719 21.4688 49.7461 21.8509C49.7851 22.3993 49.3387 22.8965 48.6252 23.077C47.9143 23.2568 47.1507 23.0669 46.6933 22.6208C46.5725 22.5031 46.5411 22.3674 46.4393 22.2341Z" fill="#000A2F"/>
<path d="M46.6754 12.8355C47.2834 12.302 47.8786 11.7759 48.4825 11.2544C48.5945 11.1575 48.631 11.0758 48.5655 10.9542C48.4048 10.6544 48.2609 10.3503 48.1292 10.0438C48.0718 9.91055 47.9691 9.84253 47.7689 9.80423C46.8326 9.62481 45.9009 9.43484 44.9465 9.24487C44.9465 8.76838 44.9402 8.29385 44.9564 7.82009C44.9582 7.77319 45.0864 7.70478 45.174 7.6868C46.0326 7.50934 46.8935 7.33657 47.7579 7.17201C47.9552 7.13448 48.0683 7.07428 48.1269 6.93787C48.2528 6.64431 48.3949 6.35388 48.5486 6.06619C48.6252 5.92313 48.5997 5.81837 48.4541 5.69524C47.8536 5.18592 47.2723 4.66604 46.6719 4.13991C47.0902 3.75176 47.5003 3.36596 47.9232 2.98719C47.961 2.95318 48.0938 2.94107 48.1657 2.95553C48.443 3.01182 48.7128 3.08413 48.9866 3.14824C49.2402 3.20765 50.3268 3.4586 50.7224 3.56805C50.9469 3.62981 51.1076 3.61652 51.2979 3.51489C51.6414 3.33156 52.0057 3.16583 52.3671 2.99814C52.5487 2.9137 52.6247 2.8152 52.6143 2.65807C52.576 2.07916 52.5632 1.49948 52.5417 0.919799C52.5388 0.848658 52.5417 0.777517 52.5417 0.691522C53.242 0.537904 53.9387 0.385068 54.6708 0.224415C54.9737 0.520315 55.2794 0.817778 55.584 1.11602C55.8468 1.37362 56.0968 1.63786 56.377 1.88607C56.4554 1.95564 56.6195 2.01584 56.7477 2.01897C57.2472 2.03226 57.7479 2.02796 58.2474 2.0131C58.3576 2.00998 58.5004 1.95369 58.5647 1.89193C59.1368 1.34391 59.6949 0.789244 60.2704 0.223633C60.9445 0.370996 61.6151 0.513279 62.2776 0.669633C62.3438 0.685268 62.4018 0.789244 62.4006 0.851394C62.3873 1.45688 62.3681 2.06275 62.331 2.66784C62.3217 2.81794 62.3919 2.9055 62.5729 2.9868C62.9419 3.15332 63.3027 3.32961 63.652 3.51449C63.8295 3.6087 63.9798 3.62785 64.1991 3.57195C65.0031 3.36713 65.8165 3.17951 66.6264 2.98563C66.7256 2.96178 66.8259 2.94028 66.9344 2.91527C67.3835 3.32452 67.8261 3.72753 68.2728 4.13444C67.6619 4.67151 67.0684 5.19921 66.4639 5.72104C66.3508 5.81876 66.3172 5.90124 66.381 6.02163C66.5428 6.32809 66.6873 6.63884 66.8277 6.94998C66.8805 7.06686 66.9605 7.14191 67.1531 7.16341C67.2355 7.17279 69.0925 7.54257 69.8664 7.70283C69.9233 7.71455 69.99 7.78374 69.9912 7.82674C70.0016 8.21098 70.0028 8.59522 69.9976 8.97907C69.9947 9.18076 69.6576 9.32774 69.2358 9.39966C68.4857 9.52787 67.7484 9.6897 67.0087 9.84371C66.9501 9.85582 66.8909 9.91055 66.8694 9.95394C66.6925 10.3053 66.5161 10.6567 66.3624 11.0128C66.3351 11.0762 66.3885 11.1751 66.4535 11.2329C67.0528 11.7676 67.6625 12.2969 68.2734 12.8312C67.8273 13.246 67.3922 13.6505 66.9489 14.0625C66.0172 13.8389 65.0977 13.6224 64.1834 13.3961C63.9902 13.3484 63.8469 13.3562 63.6816 13.4426C63.308 13.6384 62.9233 13.8253 62.5329 14.0059C62.378 14.0774 62.3264 14.1556 62.3333 14.2806C62.3658 14.8795 62.3832 15.4787 62.4053 16.0775C62.4076 16.142 62.4053 16.2065 62.4053 16.2812C61.7253 16.4297 61.0576 16.5798 60.3841 16.7166C60.3237 16.7291 60.1984 16.6717 60.1497 16.6248C59.6241 16.1174 59.1031 15.6077 58.5926 15.0937C58.4887 14.9889 58.3779 14.9487 58.1917 14.9522C57.7085 14.9612 57.2246 14.9604 56.7414 14.9522C56.5673 14.9494 56.4606 14.9858 56.3625 15.0839C55.8561 15.5921 55.3339 16.0932 54.8292 16.6021C54.7219 16.7104 54.6343 16.7491 54.4359 16.701C53.8998 16.5712 53.3574 16.4524 52.8109 16.3445C52.5998 16.3027 52.5238 16.2441 52.5336 16.0897C52.5713 15.4846 52.5794 14.8787 52.6143 14.2732C52.6218 14.1438 52.5533 14.0707 52.4048 14.0016C52.008 13.8159 51.6153 13.6255 51.2312 13.4281C51.092 13.3566 50.9742 13.3453 50.8089 13.3863C49.9474 13.5993 49.08 13.801 48.2185 14.0137C48.0561 14.0539 47.9644 14.041 47.8623 13.9425C47.4754 13.57 47.0739 13.2041 46.6748 12.8328L46.6754 12.8355ZM49.7971 8.82154C50.0001 10.3022 50.904 11.5437 52.623 12.4888C54.2787 13.3988 56.1885 13.7823 58.3147 13.6302C63.8666 13.2331 66.989 8.9947 64.025 5.80078C62.367 4.01444 59.8857 3.18732 56.7315 3.34094C56.5754 3.34837 56.5459 3.34133 56.2407 3.37847C54.4376 3.58954 52.9171 4.15281 51.7058 5.08116C50.488 6.0142 49.8679 7.11337 49.7901 8.35092C49.7762 8.62649 49.7919 8.78323 49.7971 8.82193V8.82154ZM45.6723 8.10075C46.6005 7.92055 47.4887 7.74504 48.3804 7.57774C48.5562 7.54491 48.6554 7.49019 48.7128 7.3694C48.9449 6.88001 49.2001 6.39532 49.4252 5.90476C49.46 5.82932 49.4188 5.71127 49.3475 5.64482C48.9565 5.28129 48.5428 4.92833 48.1408 4.56988C47.9789 4.42526 47.7057 4.27633 47.7045 4.12818C47.7028 3.97965 47.9888 3.83463 48.1257 3.67906C48.2388 3.55007 48.3624 3.54772 48.5544 3.5958C49.3504 3.79554 50.1498 3.98903 50.9539 4.17235C51.0653 4.19776 51.2416 4.18056 51.3379 4.13522C51.9726 3.83815 52.5992 3.53248 53.2141 3.21703C53.3151 3.16504 53.4003 3.0513 53.4003 2.96608C53.4015 2.51696 53.3708 2.06783 53.3551 1.6187C53.3487 1.43811 53.2524 1.20436 53.3818 1.09101C53.5245 0.965924 53.8842 0.958106 54.1418 0.886965C54.3071 0.841231 54.3988 0.866248 54.4974 0.965142C54.9737 1.43968 55.4651 1.90717 55.9396 2.38249C56.0475 2.49077 56.1572 2.53845 56.3591 2.53533C57.0738 2.52438 57.7897 2.5193 58.5044 2.53259C58.7637 2.53728 58.903 2.47396 59.0387 2.3348C59.5359 1.82392 60.0511 1.32124 60.5656 0.80996C60.8679 0.873284 61.1504 0.938953 61.4376 0.99094C61.6151 1.02299 61.6801 1.0785 61.6737 1.20905C61.6453 1.7817 61.6406 2.35474 61.6157 2.92699C61.6105 3.0509 61.661 3.12947 61.8164 3.20179C62.3258 3.4371 62.8421 3.66889 63.3202 3.93118C63.6491 4.11177 63.9426 4.16962 64.3313 4.02851C64.5547 3.9476 66.0816 3.58681 66.157 3.50316C65.8699 3.56609 65.5827 3.63723 65.288 3.68961C65.1986 3.70564 63.8208 4.02851 63.5685 3.90772C63.0719 3.67007 62.584 3.42459 62.0769 3.19749C61.8495 3.09547 61.7689 2.98563 61.7863 2.798C61.8385 2.23278 61.8501 1.666 61.8884 1.1C61.8965 0.982341 61.8437 0.924881 61.6737 0.891655C61.3488 0.828723 61.0251 0.7611 60.7113 0.67745C60.5297 0.629372 60.4374 0.659079 60.3336 0.762272C59.8399 1.25244 59.3398 1.73949 58.8276 2.22106C58.7632 2.28164 58.6164 2.33363 58.5062 2.33519C57.8204 2.34379 57.1347 2.3434 56.4496 2.32972C56.3329 2.32738 56.1804 2.26523 56.1113 2.19917C55.6055 1.71486 55.1123 1.22391 54.6256 0.730611C54.5218 0.625463 54.4272 0.599664 54.2473 0.645007C53.9138 0.729829 53.5721 0.803706 53.2275 0.865857C53.036 0.900255 52.9948 0.967487 53.0006 1.08944C53.0302 1.68163 53.0552 2.27383 53.0633 2.86641C53.0644 2.94693 52.9902 3.0556 52.8974 3.10407C52.3689 3.37768 51.8282 3.64075 51.2794 3.89639C51.1894 3.93821 51.0264 3.95463 50.9231 3.93118C50.0721 3.73886 49.2286 3.53208 48.3792 3.33625C48.298 3.31749 48.146 3.31983 48.1066 3.35384C47.8113 3.6087 47.5357 3.87411 47.2555 4.13522C47.8612 4.66174 48.4512 5.16911 49.0273 5.68352C49.0945 5.74371 49.134 5.85238 49.1032 5.92235C48.9077 6.36913 48.696 6.81317 48.4721 7.25409C48.439 7.31976 48.3282 7.3909 48.2301 7.41396C47.8287 7.50778 47.4203 7.58713 47.0107 7.66335C46.9155 7.68094 45.8382 7.91195 45.6416 7.94322C45.4901 7.96746 45.4437 8.02101 45.4484 8.12186C45.4588 8.356 45.464 8.59092 45.453 8.82506C45.4466 8.95288 45.5186 9.00291 45.7007 9.03653C46.5483 9.19249 47.3889 9.36409 48.2359 9.52123C48.4065 9.55289 48.4895 9.608 48.5428 9.72019C48.7546 10.1666 48.9884 10.6079 49.1949 11.0551C49.228 11.1262 49.1996 11.2364 49.1346 11.297C48.7383 11.6664 48.323 12.026 47.9151 12.3895C47.8693 12.4302 47.8333 12.4755 47.7927 12.5189C48.3357 12.1402 48.8201 11.7348 49.3138 11.3349C49.4258 11.2442 49.4467 11.1641 49.3927 11.0523C49.1566 10.5637 48.9402 10.0708 48.6977 9.58377C48.6629 9.51341 48.5399 9.43484 48.4338 9.41334C47.6535 9.25699 46.8674 9.11236 46.0819 8.96812C45.6648 8.89151 45.6648 8.89581 45.6717 8.6046C45.6758 8.44277 45.6723 8.28134 45.6723 8.10075ZM60.4566 16.4868C60.7635 16.4149 61.046 16.3512 61.3262 16.282C61.5606 16.2241 61.8826 16.2018 61.998 16.0869C62.1111 15.9743 62.0137 15.7652 62.0079 15.5983C62.0056 15.5268 62.0038 15.4553 61.9963 15.3837C61.9707 15.1332 61.9435 14.8826 61.9168 14.6317C61.8889 14.6324 61.8611 14.6332 61.8338 14.634C61.8338 15.0421 61.828 15.4506 61.8379 15.8586C61.8408 15.9697 61.7868 16.0177 61.6285 16.0482C61.1957 16.1307 60.7681 16.2261 60.3179 16.3207C60.3696 16.382 60.4055 16.425 60.4572 16.4864L60.4566 16.4868ZM69.4308 9.08109C69.6292 9.10181 69.6889 9.03926 69.6814 8.91848C69.6709 8.74962 69.6704 8.58076 69.6692 8.4115C69.6673 8.0816 69.4277 7.87234 68.9504 7.78374C68.4892 7.69892 68.0274 7.61605 67.5656 7.5324C68.0727 7.69501 68.593 7.82908 69.1233 7.94009C69.3669 7.99091 69.4551 8.06244 69.4377 8.23912C69.4099 8.51743 69.4302 8.7977 69.4302 9.08109H69.4308ZM66.6455 13.6517L66.6826 13.7197C66.7778 13.7006 66.9135 13.7014 66.9605 13.6584C67.2332 13.407 67.4931 13.1482 67.7368 12.8836C67.7779 12.8387 67.7565 12.7339 67.7037 12.689C67.4148 12.445 67.1067 12.2113 66.8051 11.974C66.7436 11.9256 66.6809 11.8775 66.6188 11.829L66.5643 11.8615C66.8985 12.1749 67.2326 12.4884 67.5656 12.8008C67.2477 13.0947 66.9472 13.373 66.6461 13.6513L66.6455 13.6517ZM55.5237 15.3822C55.5022 15.3716 55.4801 15.361 55.4587 15.3505C55.1866 15.5936 54.9046 15.8321 54.6471 16.0822C54.5177 16.2077 54.4069 16.2472 54.1795 16.1839C53.7838 16.074 53.3696 15.9939 52.9629 15.9013C52.9397 15.9169 52.9165 15.9321 52.8933 15.9478C52.9507 16.0037 52.9908 16.0932 53.0673 16.1108C53.5494 16.2202 54.0397 16.3136 54.5432 16.4153C54.8756 16.0654 55.1994 15.7242 55.5237 15.3829V15.3822Z" fill="white"/>
<path d="M50.165 8.20871C50.2416 7.14355 50.7951 6.20191 51.808 5.38926C52.9671 4.45934 54.461 3.91718 56.2339 3.71783C56.2809 3.71275 56.329 3.71392 56.3284 3.71392C55.8104 3.84682 55.2308 3.96096 54.6977 4.13842C52.6712 4.81231 51.4228 5.91031 50.9517 7.39567C50.7707 7.96636 50.9558 8.47373 51.8016 8.80872C51.9629 8.84859 52.2158 8.90175 51.8527 8.84663C52.0737 8.84663 51.9287 8.85719 52.1172 8.85719C52.2965 9.77264 52.8708 10.5478 53.8919 11.1618C54.3461 11.4355 54.8555 11.6497 55.4443 11.7736C55.384 11.747 55.3242 11.7189 55.2621 11.6938C53.7758 11.0946 52.9201 10.2077 52.6219 9.0667C52.5889 8.94045 52.5923 8.83725 52.8343 8.80833C52.9242 8.79777 53.0066 8.75204 53.0872 8.71686C53.1591 8.6852 53.2241 8.64533 53.3396 8.58396C53.3506 8.6981 53.4713 9.14957 53.4823 9.26644C53.2612 9.14136 53.9696 10.0326 53.7712 10.0326C53.8205 10.0517 52.8679 8.93302 52.8807 8.93341C53.3674 8.95569 53.3697 8.9553 53.5072 9.277C53.9986 10.4262 55.4855 11.2463 57.3245 11.2967C59.5569 11.3581 61.4134 10.203 61.5973 8.70357C61.6002 8.68012 61.6042 8.65705 61.6129 8.59881C62.1467 9.06944 62.8254 9.21563 63.6301 9.12064C63.6092 10.3934 62.1577 11.7888 59.9445 12.7094C60.0419 12.6847 60.1429 12.664 60.2374 12.6347C62.4628 11.9432 63.8146 10.7921 64.2125 9.15739C64.27 8.9209 64.4759 8.78722 64.7178 8.59569C64.701 9.12416 64.5763 9.5987 64.3442 10.0599C63.3174 12.0984 60.4904 13.443 57.2973 13.3879C55.2906 13.3531 53.5896 12.8262 52.1967 11.851C51.0834 11.0716 50.4168 10.1459 50.1969 9.07335" fill="white"/>
<path d="M61.0803 8.48783C61.0919 9.80706 59.5052 10.9207 57.4736 10.9207C55.5342 10.9207 53.8761 9.88446 53.8692 8.49291C53.8622 7.1424 55.475 6.053 57.4707 6.05457C59.4768 6.05613 61.0762 7.13419 61.0803 8.48744V8.48783ZM55.2342 8.87089C55.3735 9.04054 55.4164 9.2137 55.5817 9.36419C56.2071 9.93371 57.2525 10.1757 58.2254 9.94622C59.2018 9.71599 59.8127 9.08158 59.7593 8.3819C59.7222 7.89485 59.2239 7.25888 58.2249 7.02865C57.2438 6.80272 56.1746 7.03608 55.5962 7.61576C55.4576 7.75453 55.4234 7.96678 55.2435 8.05238C55.0701 8.13486 54.7707 8.09694 54.5154 8.11258V8.87089H55.2342Z" fill="white"/>
<path d="M55.2334 8.87078H54.5146V8.11247C54.7693 8.09683 55.0687 8.13475 55.2427 8.05227C55.4226 7.96706 55.4568 7.75442 55.5954 7.61565C56.1738 7.03636 57.243 6.80261 58.2241 7.02854C59.2231 7.25877 59.7214 7.89435 59.7585 8.38179C59.8119 9.08147 59.201 9.71588 58.2246 9.94611C57.2517 10.1756 56.2069 9.93321 55.5809 9.36408C55.4156 9.21398 55.3727 9.04082 55.2334 8.87078Z" fill="#000A2F"/>
<defs>
<clipPath id="clip0_41_742">
<rect width="41.9194" height="40.9557" fill="white" transform="translate(0 1)"/>
</clipPath>
</defs>
</svg>
