<svg width="48" height="48" viewBox="0 0 48 48" fill="none" xmlns="http://www.w3.org/2000/svg">
<rect width="48" height="48" rx="8.1" fill="#FF0000"/>
<path d="M20.9689 15.6376C21.5541 15.0541 22.4958 15.0541 23.0809 15.6376C23.3735 15.9294 23.5198 16.3078 23.5198 16.6908C23.5198 17.0737 23.3735 17.4521 23.0809 17.7439L17.8969 22.9092H33.7049C34.5278 22.9092 35.1998 23.5748 35.1998 24.4C35.1998 25.2252 34.5324 25.8908 33.7049 25.8908H17.8969L23.0809 31.0561C23.6661 31.6396 23.6661 32.5788 23.0809 33.1623C22.4958 33.7459 21.5541 33.7459 20.9689 33.1623L13.2387 25.4531C12.9552 25.175 12.7998 24.7966 12.7998 24.4C12.7998 24.0034 12.9552 23.625 13.2387 23.3469L20.9689 15.6376Z" fill="white"/>
</svg>
