<svg width="60" height="60" viewBox="0 0 60 60" fill="none" xmlns="http://www.w3.org/2000/svg">
<rect width="60" height="60" rx="10" fill="#FF0000"/>
<path d="M26.2114 19.5471C26.9429 18.8176 28.12 18.8176 28.8514 19.5471C29.2171 19.9118 29.4 20.3848 29.4 20.8635C29.4 21.3422 29.2171 21.8152 28.8514 22.1799L22.3714 28.6365H42.1314C43.16 28.6365 44 29.4685 44 30.5C44 31.5315 43.1657 32.3635 42.1314 32.3635H22.3714L28.8514 38.8201C29.5829 39.5496 29.5829 40.7235 28.8514 41.4529C28.12 42.1824 26.9429 42.1824 26.2114 41.4529L16.5486 31.8164C16.1943 31.4688 16 30.9958 16 30.5C16 30.0042 16.1943 29.5312 16.5486 29.1836L26.2114 19.5471Z" fill="white"/>
</svg>
