<svg width="41" height="40" viewBox="0 0 41 40" fill="none" xmlns="http://www.w3.org/2000/svg">
<rect width="40" height="40" rx="6.561" transform="matrix(-1 0 0 1 40.4785 0)" fill="#FF0000"/>
<path d="M23.0039 13.0314C22.5163 12.5451 21.7315 12.5451 21.2439 13.0314C21.0001 13.2745 20.8782 13.5899 20.8782 13.909C20.8782 14.2281 21.0001 14.5434 21.2439 14.7866L25.5639 19.091H12.3906C11.7049 19.091 11.1449 19.6457 11.1449 20.3333C11.1449 21.021 11.701 21.5757 12.3906 21.5757H25.5639L21.2439 25.8801C20.7563 26.3664 20.7563 27.149 21.2439 27.6353C21.7315 28.1216 22.5163 28.1216 23.0039 27.6353L29.4458 21.2109C29.682 20.9792 29.8115 20.6639 29.8115 20.3333C29.8115 20.0028 29.682 19.6875 29.4458 19.4557L23.0039 13.0314Z" fill="white"/>
</svg>
