<svg width="54" height="54" viewBox="0 0 54 54" fill="none" xmlns="http://www.w3.org/2000/svg">
<rect width="54" height="54" rx="9" fill="#FF0000"/>
<path d="M23.5907 17.5924C24.249 16.9359 25.3084 16.9359 25.9667 17.5924C26.2958 17.9206 26.4604 18.3463 26.4604 18.7771C26.4604 19.2079 26.2958 19.6336 25.9667 19.9619L20.1347 25.7729H37.9187C38.8444 25.7729 39.6004 26.5217 39.6004 27.45C39.6004 28.3783 38.8495 29.1271 37.9187 29.1271H20.1347L25.9667 34.9381C26.625 35.5946 26.625 36.6511 25.9667 37.3076C25.3084 37.9641 24.249 37.9641 23.5907 37.3076L14.8941 28.6347C14.5752 28.3219 14.4004 27.8962 14.4004 27.45C14.4004 27.0038 14.5752 26.5781 14.8941 26.2652L23.5907 17.5924Z" fill="white"/>
</svg>
