<svg width="55" height="54" viewBox="0 0 55 54" fill="none" xmlns="http://www.w3.org/2000/svg">
<rect width="54" height="54" rx="9" transform="matrix(-1 0 0 1 54.5996 0)" fill="#FF0000"/>
<path d="M31.0089 17.5924C30.3506 16.9359 29.2912 16.9359 28.6329 17.5924C28.3038 17.9206 28.1392 18.3463 28.1392 18.7771C28.1392 19.2079 28.3038 19.6336 28.6329 19.9619L34.4649 25.7729H16.6809C15.7552 25.7729 14.9992 26.5217 14.9992 27.45C14.9992 28.3783 15.7501 29.1271 16.6809 29.1271H34.4649L28.6329 34.9381C27.9746 35.5946 27.9746 36.6511 28.6329 37.3076C29.2912 37.9641 30.3506 37.9641 31.0089 37.3076L39.7055 28.6347C40.0244 28.3219 40.1992 27.8962 40.1992 27.45C40.1992 27.0038 40.0244 26.5781 39.7055 26.2652L31.0089 17.5924Z" fill="white"/>
</svg>
